<svg width="62" height="78" viewBox="0 0 62 78" fill="none" xmlns="http://www.w3.org/2000/svg">
<path d="M58.4117 3.06943L46.162 10.1418L44.793 7.75942L57.0427 0.687012L58.4117 3.06943Z" fill="#E73649"/>
<path d="M61.1026 15.8498H46.958V13.0901H61.1026V15.8498Z" fill="#E73649"/>
<path d="M57.0427 28.2518L44.793 21.1794L46.162 18.7971L58.4117 25.8693L57.0427 28.2518Z" fill="#E73649"/>
<path fill-rule="evenodd" clip-rule="evenodd" d="M10.2666 77.6164V72.1024C10.2666 71.4792 10.7765 70.9692 11.3996 70.9692H49.702C50.325 70.9692 50.835 71.4792 50.835 72.1024V77.6164H10.2666Z" fill="#E73649"/>
<path fill-rule="evenodd" clip-rule="evenodd" d="M19.8325 27.8389L18.811 36.6753L15.0039 69.6076H46.1006L42.2935 36.6753L41.2721 27.8389H19.8325ZM24.1123 66.8843V55.914C24.1123 52.3652 27.0073 49.46 30.5523 49.443C34.0972 49.46 36.9923 52.3652 36.9923 55.914V66.8843H24.1123ZM30.5523 34.3904C27.4657 34.4074 24.9687 36.9146 24.9687 40.0052C24.9687 43.0957 27.4657 45.6028 30.5523 45.6198C33.6389 45.6028 36.1359 43.0957 36.1359 40.0052C36.1359 36.9146 33.6389 34.4074 30.5523 34.3904Z" fill="#E73649"/>
<path fill-rule="evenodd" clip-rule="evenodd" d="M19.8311 26.4777V21.0344H41.2706V26.4777H19.8311Z" fill="#E73649"/>
<path fill-rule="evenodd" clip-rule="evenodd" d="M22.1367 13.5111V8.71167H38.9644V13.5111H22.1367Z" fill="#E73649"/>
<path fill-rule="evenodd" clip-rule="evenodd" d="M30.5508 0L25.5962 3.39726L19.8311 7.34975H41.2706L35.5055 3.39726L30.5508 0Z" fill="#E73649"/>
<path d="M4.05846 0.687012L16.3082 7.75942L14.9392 10.1418L2.68945 3.06943L4.05846 0.687012Z" fill="#E73649"/>
<path d="M0 13.0896H14.1446V15.8493H0V13.0896Z" fill="#E73649"/>
<path d="M2.68945 25.8691L14.9392 18.7969L16.3082 21.1791L4.05846 28.2515L2.68945 25.8691Z" fill="#E73649"/>
<path fill-rule="evenodd" clip-rule="evenodd" d="M22.1367 19.6724V14.8728H38.9644V19.6724H22.1367Z" fill="#E73649"/>
</svg>
