<svg width="76" height="73" viewBox="0 0 76 73" fill="none" xmlns="http://www.w3.org/2000/svg">
<path d="M75.7533 41.5947C75.5781 44.95 75.0171 53.4075 73.7265 55.3886C72.8106 56.7944 71.0186 57.6703 69.2858 58.5174C68.1496 59.0732 66.9726 59.6481 66.2563 60.2878C65.5977 60.877 65.1353 61.7297 64.6478 62.6323C63.9132 63.9891 63.0823 65.5265 61.3803 66.4985C59.8258 67.3866 57.8517 67.5717 55.9459 67.7517C54.597 67.8795 53.2007 68.0086 52.1135 68.3935C51.1172 68.744 50.1469 69.4202 49.1208 70.1366C47.6271 71.1775 46.0833 72.2543 44.1347 72.5979C42.1872 72.9413 40.3683 72.4581 38.6086 71.9902C37.3983 71.6689 36.2564 71.3651 35.199 71.3766C34.0448 71.3883 32.6883 71.7432 31.3781 72.0837C29.522 72.5664 27.6071 73.0663 25.8429 72.7647C23.9123 72.4332 22.6043 71.2729 21.45 70.2492C20.682 69.5681 19.957 68.924 19.1354 68.5958C18.2435 68.2398 16.941 68.1021 15.6831 67.9684C13.7651 67.765 11.7816 67.5548 10.4401 66.5471C8.73865 65.2695 5.631 58.7965 3.79001 54.7219C4.3824 55.2071 4.54002 55.2761 4.60646 55.3037C4.86826 55.4827 5.51368 56.417 5.94222 57.0353C6.98768 58.5476 8.06876 60.1121 9.38509 60.7135C10.6329 61.283 12.46 61.2987 14.3943 61.3155C15.6544 61.3261 16.9572 61.3373 17.853 61.5228C18.6549 61.6897 19.2964 62.0458 20.0373 62.4587C21.1182 63.0589 22.343 63.74 24.1767 63.8362C25.8172 63.9212 27.6985 63.4882 29.5133 63.07C30.8588 62.7592 32.251 62.442 33.4453 62.3579C34.5456 62.2828 35.6798 62.415 36.8807 62.5543C38.5543 62.7486 40.2832 62.9496 42.1392 62.6223C43.9939 62.2953 45.5498 61.5151 47.0548 60.7603C48.1357 60.2187 49.1576 59.7063 50.2183 59.4004C51.3665 59.0696 52.7848 58.8931 54.1555 58.725C56.005 58.497 57.9198 58.2606 59.4323 57.6197C61.1236 56.9012 62.0418 55.8429 62.8521 54.9087C63.4082 54.2671 63.8882 53.7139 64.5835 53.283C65.3618 52.8023 66.5823 52.3461 67.7615 51.9054C69.5746 51.2278 71.2861 50.5882 72.2639 49.6263C73.2962 48.6101 73.7769 46.7696 74.2431 44.9889C74.4334 44.2628 74.7204 43.1654 74.8619 42.9543C74.9514 42.8688 75.1332 42.6905 75.7533 41.5947ZM34.5848 59.8056C34.1571 59.7909 33.7212 59.8033 33.2751 59.8304C31.8742 59.9229 30.388 60.2622 28.9393 60.5949C27.3054 60.9732 25.5965 61.3648 24.3111 61.308C23.0609 61.2321 22.2326 60.7726 21.2765 60.2455C20.4629 59.7963 19.5487 59.2876 18.372 59.0441C17.235 58.8066 15.8018 58.7887 14.4208 58.7746C12.9104 58.7575 11.1957 58.7506 10.4394 58.4073C9.75225 58.0904 8.76243 56.6416 8.02245 55.5868C7.05174 54.1733 6.45579 53.3508 5.77303 53.0589C5.55476 52.917 4.80811 52.2628 3.92036 51.4659C4.35554 50.9383 4.96418 50.4445 5.78227 50.0425C9.82492 48.0541 14.5937 46.3115 20.5444 44.6954C20.5473 44.7851 20.5649 44.885 20.5804 44.9725C21.9045 52.482 27.5939 58.1524 34.5848 59.8056ZM74.3385 38.8818C73.74 40.018 73.2335 40.9448 73.0975 41.1234C72.5043 41.7046 72.2256 42.6814 71.7844 44.3439C71.4623 45.5859 71.0152 47.2881 70.4778 47.8209C69.8971 48.4 68.2904 49.0054 66.8747 49.5255C65.5819 50.0112 64.2412 50.5181 63.254 51.1302C62.219 51.7636 61.5339 52.5544 60.9334 53.24C60.2174 54.0749 59.5962 54.7899 58.4452 55.2763C57.2588 55.7818 55.5191 55.9984 53.8418 56.204C52.3792 56.3846 50.8541 56.5762 49.5186 56.9663C49.4936 56.9707 49.4811 56.9729 49.4583 56.9898C55.1925 52.9769 58.4215 45.8627 57.1282 38.5281C57.104 38.3907 57.0819 38.2657 57.0453 38.1305C61.908 37.724 67.197 37.6159 72.6232 38.3597C73.3229 38.4554 73.8837 38.6399 74.3385 38.8818ZM71.0749 19.6425L70.6648 19.2897C69.7962 18.5281 68.9864 17.8078 68.5727 17.0691C68.1399 16.2951 67.9754 15.2161 67.8124 14.0724C67.5583 12.3394 67.2624 10.3687 65.8124 9.01395C64.4257 7.72533 62.4053 7.37299 60.4518 7.03463C59.123 6.80513 57.8632 6.6021 56.9681 6.12865C56.1023 5.67578 55.3351 4.83191 54.5216 3.94468C53.3245 2.63551 51.9672 1.14845 49.9873 0.660148C48.141 0.199792 46.1896 0.750022 44.3109 1.27454C42.9607 1.65433 41.6854 2.02091 40.5587 1.98768C39.5217 1.95152 38.3663 1.53683 37.1544 1.09347C35.4067 0.461142 33.4371 -0.260883 31.4254 0.0938329C29.4012 0.450751 27.7973 1.80289 26.3837 2.99263C25.3965 3.82376 24.4527 4.60859 23.5032 4.99503C22.4433 5.41382 21.1196 5.50551 19.7209 5.61042C17.7636 5.76229 15.7542 5.91047 14.1767 6.97451C12.4832 8.11055 11.7163 9.97216 11.0392 11.6118C10.5657 12.726 10.1334 13.7813 9.48724 14.5008C8.79552 15.2541 7.6959 15.886 6.52351 16.5436C4.80352 17.5297 3.02545 18.5519 2.16309 20.237C1.25146 22.0082 1.65984 23.9589 2.01607 25.6869C2.25404 26.8173 2.4663 27.875 2.32433 28.7504C2.19265 29.611 1.64495 30.5965 1.05829 31.6534C0.881849 31.9679 0.717905 32.2802 0.541466 32.5948C-0.0834362 33.8001 -0.168881 35.1421 0.293251 36.3748C0.778893 37.6677 1.80846 38.6843 3.17986 39.2284C8.87491 41.4966 14.6531 43.0673 20.4307 43.9038C19.2906 34.2232 25.9185 25.1956 35.6396 23.4815C45.2107 21.7938 54.3869 27.8029 56.7912 37.0544C61.6365 34.3577 66.3894 31.1362 70.7902 27.5259C72.0509 26.4919 72.7838 25.0228 72.8112 23.4977C72.8328 22.0123 72.2191 20.6518 71.0749 19.6425ZM20.0986 30.1529C19.9055 30.4997 19.5733 30.7206 19.2097 30.7847C18.9327 30.8335 18.6372 30.7913 18.3732 30.6428L11.0544 26.561C10.4419 26.2199 10.2225 25.4471 10.5639 24.8352C10.9043 24.2253 11.679 24.0025 12.2892 24.3455L19.608 28.4272C20.2205 28.7684 20.4399 29.5411 20.0986 30.1529ZM26.3812 22.4574C26.212 22.5898 26.019 22.6723 25.8212 22.7072C25.3747 22.7859 24.8991 22.6219 24.6001 22.2393L19.4378 15.6383C19.0058 15.0867 19.1043 14.2892 19.656 13.8574C20.2063 13.4256 21.0062 13.523 21.4369 14.0756L26.5992 20.6765C27.0312 21.2281 26.9328 22.0256 26.3812 22.4574ZM35.5162 16.7181C35.6378 17.408 35.1776 18.0661 34.487 18.1879C33.7964 18.3096 33.1388 17.8487 33.0172 17.1587L31.5929 9.08093C31.4712 8.39096 31.9314 7.73288 32.622 7.61111C33.3126 7.48934 33.9702 7.95032 34.0919 8.64029L35.5162 16.7181ZM48.169 10.5722L45.5757 18.5407C45.4256 19.0025 45.0348 19.3193 44.5882 19.398C44.3905 19.4329 44.181 19.4214 43.9766 19.3549C43.3105 19.1376 42.9452 18.4221 43.1625 17.756L45.7558 9.78748C45.9717 9.12096 46.6899 8.75585 47.3547 8.97333C48.0208 9.19059 48.3863 9.90612 48.169 10.5722ZM59.7826 17.9688L54.3012 24.3076C54.1039 24.5375 53.8407 24.6782 53.5637 24.727C53.2001 24.7911 52.8123 24.6972 52.5123 24.4374C51.9824 23.9792 51.9241 23.1779 52.3829 22.6479L57.8643 16.3091C58.3217 15.778 59.1247 15.7226 59.6531 16.1792C60.183 16.6374 60.2414 17.4388 59.7826 17.9688ZM36.0729 25.9755C27.374 27.5093 21.5458 35.8337 23.0795 44.532C24.6132 53.2302 32.9371 59.0592 41.636 57.5253C50.3349 55.9915 56.1631 47.6671 54.6293 38.9689C53.0956 30.2706 44.7718 24.4416 36.0729 25.9755ZM35.0416 34.719C32.3755 35.1892 30.5607 37.6549 30.9095 40.3324C30.9198 40.4268 30.9335 40.4973 30.946 40.5682C31.0677 41.2582 30.6074 41.9162 29.9168 42.038C29.2262 42.1598 28.5687 41.6988 28.447 41.0088C28.4253 40.8856 28.4048 40.7621 28.3903 40.6376C27.8693 36.6335 30.5962 32.9262 34.601 32.22C35.2916 32.0983 35.9492 32.5592 36.0708 33.2492C36.1925 33.9392 35.7322 34.5973 35.0416 34.719Z" fill="#0CAADD"/>
</svg>
