<svg width="168" height="115" viewBox="0 0 168 115" fill="none" xmlns="http://www.w3.org/2000/svg">
<path d="M83.7245 66.79C110.058 66.79 131.416 87.7605 132.044 113.94C125.174 115.623 117.161 115.782 106.405 110.405C100.714 107.559 95.0354 106.144 89.7147 105.611C73.7525 104.01 61.0438 110.405 61.0438 110.405C51.2098 115.322 42.925 114.895 35.4414 113.117C36.492 87.3221 57.6681 66.79 83.7245 66.79Z" fill="#FEDB2F"/>
<path d="M83.5933 2.08581e-05C83.2394 -0.00137499 82.8887 0.0673013 82.5615 0.202089C82.2343 0.336877 81.937 0.53511 81.6867 0.785358C81.4365 1.03561 81.2382 1.33292 81.1035 1.66015C80.9687 1.98738 80.9 2.33806 80.9014 2.69196V44.5753C80.9026 44.9275 80.9732 45.2761 81.1092 45.601C81.2451 45.926 81.4438 46.2209 81.6937 46.4691C81.9437 46.7172 82.2402 46.9137 82.5661 47.0473C82.892 47.1808 83.2411 47.2488 83.5933 47.2474C84.3013 47.245 84.9795 46.9627 85.4801 46.4621C85.9807 45.9615 86.263 45.2832 86.2655 44.5753V2.69196C86.2669 2.33972 86.1988 1.99066 86.0653 1.66473C85.9317 1.33879 85.7353 1.04236 85.4871 0.792372C85.239 0.542385 84.944 0.34374 84.619 0.207786C84.2941 0.0718311 83.9456 0.00123173 83.5933 2.08581e-05Z" fill="#FEDB2F"/>
<path d="M124.792 30.658C124.107 30.8427 123.523 31.2911 123.169 31.905L111.886 51.4215C111.53 52.0359 111.432 52.7665 111.614 53.453C111.796 54.1395 112.242 54.7259 112.856 55.0834C113.161 55.2628 113.499 55.3802 113.849 55.4285C114.2 55.4769 114.557 55.4554 114.899 55.3652C115.241 55.2751 115.562 55.118 115.843 54.9032C116.125 54.6884 116.361 54.42 116.538 54.1135L127.8 34.5771C128.156 33.9628 128.254 33.2322 128.073 32.5457C127.891 31.8592 127.444 31.2728 126.83 30.9153C126.524 30.7405 126.186 30.6278 125.837 30.5836C125.487 30.5395 125.132 30.5647 124.792 30.658Z" fill="#FEDB2F"/>
<path d="M162.456 39.328L129.737 65.4754C129.46 65.6957 129.23 65.9685 129.06 66.2781C128.889 66.5877 128.781 66.9279 128.743 67.2793C128.704 67.6306 128.735 67.9862 128.834 68.3254C128.934 68.6647 129.099 68.9809 129.321 69.256C129.541 69.5324 129.814 69.7626 130.124 69.9332C130.433 70.1038 130.774 70.2115 131.125 70.2502C131.476 70.2888 131.832 70.2576 132.171 70.1583C132.51 70.059 132.827 69.8937 133.102 69.6717L165.821 43.5243C166.373 43.0798 166.727 42.4345 166.805 41.7297C166.883 41.0249 166.678 40.3179 166.236 39.7635C166.017 39.4856 165.746 39.2538 165.437 39.0813C165.128 38.9089 164.788 38.7993 164.437 38.7588C164.085 38.7183 163.729 38.7478 163.389 38.8455C163.049 38.9432 162.732 39.1072 162.456 39.328Z" fill="#FEDB2F"/>
<path d="M163.82 81.5114L142.027 87.3506C141.686 87.4412 141.367 87.5982 141.087 87.8125C140.807 88.0268 140.572 88.2942 140.395 88.5994C140.219 88.9046 140.104 89.2416 140.058 89.5911C140.012 89.9406 140.035 90.2958 140.127 90.6363C140.217 90.977 140.374 91.2965 140.589 91.5764C140.803 91.8564 141.07 92.0913 141.375 92.2678C141.681 92.4443 142.018 92.5589 142.367 92.605C142.717 92.6511 143.072 92.6278 143.412 92.5365L165.205 86.6974C165.89 86.51 166.472 86.0589 166.824 85.443C167.177 84.8272 167.271 84.0967 167.086 83.4116C166.902 82.728 166.456 82.1445 165.844 81.7885C165.232 81.4326 164.505 81.333 163.82 81.5114Z" fill="#FEDB2F"/>
<path d="M40.3726 30.9163C39.759 31.2738 39.3122 31.8602 39.1304 32.5467C38.9486 33.2332 39.0465 33.9638 39.4027 34.5781L50.6653 54.1145C51.0228 54.7281 51.6091 55.1749 52.2956 55.3567C52.9822 55.5385 53.7128 55.4406 54.3271 55.0844C54.6326 54.909 54.9006 54.6751 55.1157 54.3962C55.3308 54.1172 55.4888 53.7986 55.5807 53.4585C55.6726 53.1184 55.6966 52.7636 55.6513 52.4143C55.6061 52.0649 55.4924 51.7279 55.3168 51.4225L44.0344 31.906C43.8591 31.6005 43.6252 31.3325 43.3462 31.1175C43.0673 30.9024 42.7486 30.7444 42.4086 30.6524C42.0685 30.5605 41.7137 30.5365 41.3643 30.5818C41.015 30.6271 40.678 30.7408 40.3726 30.9163Z" fill="#FEDB2F"/>
<path d="M4.71773 39.3291C4.16084 38.8893 3.45229 38.6881 2.74735 38.7698C2.04242 38.8514 1.39858 39.2091 0.956939 39.7646C0.514865 40.319 0.310409 41.026 0.388309 41.7308C0.466209 42.4356 0.820122 43.0809 1.37261 43.5254L34.0915 69.6728C34.3666 69.8947 34.6829 70.0601 35.0221 70.1594C35.3614 70.2587 35.7169 70.2899 36.0682 70.2513C36.4196 70.2126 36.7599 70.1049 37.0694 69.9343C37.379 69.7637 37.6518 69.5336 37.8721 69.2571C38.0929 68.9808 38.2569 68.6635 38.3546 68.3235C38.4523 67.9836 38.4818 67.6276 38.4413 67.2762C38.4008 66.9248 38.2912 66.5848 38.1188 66.276C37.9464 65.9671 37.7145 65.6954 37.4366 65.4765L4.71773 39.3291Z" fill="#FEDB2F"/>
<path d="M3.37727 81.5105C3.03675 81.4191 2.68156 81.3959 2.33204 81.442C1.98252 81.4881 1.64552 81.6027 1.34033 81.7792C1.03513 81.9556 0.767745 82.1906 0.55346 82.4705C0.339175 82.7505 0.182201 83.07 0.0915223 83.4107C0.000198611 83.7512 -0.0230773 84.1064 0.0230267 84.4559C0.0691306 84.8054 0.183709 85.1424 0.360205 85.4476C0.536701 85.7528 0.77165 86.0202 1.0516 86.2345C1.33156 86.4487 1.65102 86.6057 1.99171 86.6964L23.7845 92.5355C24.125 92.6269 24.4802 92.6501 24.8297 92.604C25.1793 92.5579 25.5163 92.4433 25.8215 92.2668C26.1266 92.0903 26.394 91.8554 26.6083 91.5754C26.8226 91.2955 26.9796 90.976 27.0703 90.6353C27.1616 90.2948 27.1849 89.9396 27.1388 89.5901C27.0926 89.2406 26.9781 88.9036 26.8016 88.5984C26.6251 88.2932 26.3901 88.0258 26.1102 87.8115C25.8302 87.5972 25.5108 87.4403 25.1701 87.3496L3.37727 81.5105Z" fill="#FEDB2F"/>
</svg>
