<svg width="271" height="131" viewBox="0 0 271 131" fill="none" xmlns="http://www.w3.org/2000/svg">
<path d="M181.473 58.4476C179.148 58.4476 176.618 58.8038 173.918 59.4224C174.162 48.6251 166.833 38.6339 156.766 37.6404C153.111 30.8359 146.232 23.1316 133.747 23.1316C127.43 23.1316 120.232 25.1373 112.34 29.0738C121.244 18.1828 135.266 12.653 147.375 5.88597C148.181 5.43608 148.162 4.23638 147.375 3.7865C127.055 -7.98552 106.473 9.59753 105.33 30.3485C99.7247 28.3428 94.5323 27.293 89.846 27.293C65.5896 27.293 62.028 54.1362 61.9905 54.4174C61.9156 54.961 62.2155 55.4671 62.7216 55.6921C62.8716 55.7483 63.0403 55.7858 63.1902 55.7858C63.5464 55.7858 63.9026 55.6171 64.1463 55.3359C71.6818 45.9446 88.2901 40.7709 99.9872 38.1653C91.833 45.026 87.4653 52.4304 86.9967 60.2472C86.1344 74.5873 98.5813 84.8409 99.1061 85.2721C99.3311 85.4595 99.6123 85.5533 99.8747 85.5533C99.8934 85.5533 99.8934 85.5533 99.8934 85.5533C100.475 85.572 101.131 85.0096 101.131 84.3348C101.131 84.0724 101.056 83.8474 100.906 83.6412C97.4191 73.1626 101.037 58.0915 104.711 47.2567C105.723 47.8753 106.979 48.1003 108.254 47.8003C109.96 47.3692 111.216 46.0758 111.609 44.5387C126.212 65.8145 130.729 95.9381 122.725 121.132C116.839 124.393 113.315 128.311 113.071 128.592C112.753 128.948 112.678 129.455 112.884 129.905C113.09 130.336 113.521 130.617 113.99 130.617H165.146C165.164 130.617 165.183 130.617 165.183 130.617C165.858 130.617 166.402 130.073 166.402 129.398C166.402 128.93 166.158 128.536 165.783 128.33C162.821 125.649 159.822 123.456 156.785 121.713C156.841 121.507 156.841 121.3 156.785 121.094C152.136 103.53 157.085 82.8727 168.557 69.3011C168.838 70.1447 169.457 70.8757 170.394 71.2131C171.069 71.4568 171.744 71.4193 172.363 71.2131C174.031 78.5988 175.362 88.7587 172.269 95.3008C172.044 95.7882 172.156 96.3693 172.569 96.7442C172.794 96.9316 173.094 97.0441 173.375 97.0441C173.6 97.0441 173.825 96.9878 174.031 96.8566C174.425 96.5942 183.478 90.6145 183.928 80.9232C184.153 76.0307 182.091 71.1757 177.874 66.3769C185.166 68.9637 194.557 73.2939 198.531 79.4798C198.756 79.836 199.15 80.0422 199.562 80.0422C199.674 80.0422 199.806 80.0234 199.918 79.9859C200.443 79.836 200.799 79.3486 200.78 78.805C200.799 78.5613 200.255 58.4476 181.473 58.4476ZM112.828 32.9541C112.846 32.9541 112.846 32.9541 112.865 32.9541C112.865 32.9728 112.846 32.9728 112.846 32.9916C112.828 32.9728 112.828 32.9728 112.828 32.9541ZM139.483 116.67C143.026 91.2143 135.547 63.1902 119.67 41.3707C122.294 40.3022 123.831 37.5654 123.175 34.8661C123.119 34.6412 123.025 34.435 122.95 34.21C130.279 35.3722 139.502 37.453 147.244 41.052C147.319 41.1458 147.394 41.2582 147.488 41.3145C150.937 43.7514 154.648 46.0383 158.135 48.5501C158.229 48.6439 158.322 48.7376 158.397 48.8313C158.566 49.0188 158.772 49.1125 158.997 49.1687C162.165 51.5119 165.108 54.0987 167.489 57.173C162.446 54.2487 157.779 52.7491 153.542 52.7491C140.027 52.7491 135.659 67.7453 135.622 67.8952C135.472 68.4201 135.697 68.9825 136.165 69.2636C136.372 69.3949 136.578 69.4511 136.803 69.4511C137.103 69.4511 137.403 69.3386 137.628 69.1324C143.176 64.0337 153.973 62.3466 161.49 61.803C161.022 63.3589 161.659 65.0085 163.027 65.9457C150.337 80.0047 143.401 99.2748 144.882 117.176C143.082 116.877 141.283 116.67 139.483 116.67Z" fill="url(#paint0_linear_2725_1259)"/>
<path d="M32.8042 96.7827C32.8042 96.7827 7.47935 84.767 0 106.905C7.04821 87.8787 34.9036 103.306 34.9036 103.306C43.5452 75.9755 62.5529 90.8217 62.5529 90.8217C56.6481 84.4483 36.572 78.9935 32.8042 96.7827Z" fill="url(#paint1_linear_2725_1259)"/>
<path d="M214.933 20.5833C214.933 20.5833 198.193 3.89999 186.028 19.3836C196.994 6.26189 214.764 26.3568 214.764 26.3568C229.329 7.06794 240.239 24.2386 240.239 24.2386C237.334 17.509 222.937 7.51782 214.933 20.5833Z" fill="url(#paint2_linear_2725_1259)"/>
<path d="M252.948 117.964C252.948 117.964 244.382 101.562 231.635 110.241C242.92 103.024 251.467 122.238 251.467 122.238C266.895 111.272 271 126.662 271 126.662C270.419 120.963 262.021 110.091 252.948 117.964Z" fill="url(#paint3_linear_2725_1259)"/>
<defs>
<linearGradient id="paint0_linear_2725_1259" x1="131.38" y1="0" x2="131.38" y2="130.617" gradientUnits="userSpaceOnUse">
<stop stop-color="#9BE4FB"/>
<stop offset="1" stop-color="#F8F8F8"/>
</linearGradient>
<linearGradient id="paint1_linear_2725_1259" x1="31.2764" y1="84.7402" x2="31.2764" y2="106.905" gradientUnits="userSpaceOnUse">
<stop stop-color="#9BE4FB"/>
<stop offset="1" stop-color="#F8F8F8"/>
</linearGradient>
<linearGradient id="paint2_linear_2725_1259" x1="213.133" y1="12.7998" x2="213.133" y2="26.3568" gradientUnits="userSpaceOnUse">
<stop stop-color="#9BE4FB"/>
<stop offset="1" stop-color="#F8F8F8"/>
</linearGradient>
<linearGradient id="paint3_linear_2725_1259" x1="251.318" y1="107.707" x2="251.318" y2="126.662" gradientUnits="userSpaceOnUse">
<stop stop-color="#9BE4FB"/>
<stop offset="1" stop-color="#F8F8F8"/>
</linearGradient>
</defs>
</svg>
