<svg preserveAspectRatio="none" width="1440" height="768" viewBox="0 0 1440 768" fill="none" xmlns="http://www.w3.org/2000/svg">
<rect y="21" width="1441" height="724" fill="#E73649"/>
<path d="M365.715 35.0439C375.753 34.9278 387.124 36.6942 398.463 42.3557C419.374 52.7966 436.278 51.7348 449.503 47.9486C462.727 44.1624 472.609 38.4475 479.347 38.4475H488.116V64.7273H479.347C468.546 64.7273 458.961 71.1503 447.105 74.5448C435.249 77.9393 421.452 79.0667 402.376 69.542C365.208 50.9835 328.317 69.542 328.317 69.542C311.688 77.8452 297.767 76.8054 285.208 73.6468C272.649 70.4883 261.962 64.7273 251.355 64.7273H242.586V38.4475H251.355C258.287 38.4475 269.391 43.669 283.075 47.1105C296.759 50.552 313.534 51.6956 332.24 42.3557C332.24 42.3557 346.552 35.2655 365.715 35.0439Z" fill="#FFFFFF"/>
<path d="M365.707 0.00552648C368.444 -0.025999 371.276 0.0751945 374.185 0.364703C381.94 1.1367 390.216 3.19988 398.463 7.31732C419.374 17.7582 436.278 16.6964 449.503 12.9102C462.727 9.12406 472.609 3.40915 479.347 3.40915H488.116V29.6889H479.347C468.546 29.6889 458.961 36.1119 447.105 39.5064C435.249 42.9009 421.452 44.054 402.376 34.5293C393.084 29.8896 383.814 27.5486 375.127 26.6787C349.066 24.0689 328.317 34.5292 328.317 34.5293C311.688 42.8324 297.767 41.767 285.208 38.6085C272.649 35.4499 261.962 29.6889 251.355 29.6889H242.586V3.40915H251.355C258.287 3.40915 269.391 8.63068 283.075 12.0722C296.759 15.5136 313.534 16.6572 332.24 7.31734C332.24 7.31734 346.544 0.227383 365.707 0.00552648Z" fill="#E73649"/>
<path d="M123.129 35.0444C133.167 34.9283 144.538 36.6947 155.877 42.3562C176.788 52.7971 193.692 51.7353 206.917 47.9491C220.141 44.1629 230.023 38.448 236.761 38.448H245.53V64.7278H236.761C225.96 64.7278 216.375 71.1508 204.519 74.5453C192.663 77.9398 178.866 79.0672 159.79 69.5425C122.622 50.984 85.7314 69.5425 85.7314 69.5425C69.1019 77.8457 55.1807 76.8059 42.6216 73.6473C30.0625 70.4888 19.3762 64.7278 8.76925 64.7278H0V38.448H8.76925C15.7008 38.448 26.8053 43.6695 40.4893 47.111C54.1732 50.5525 70.9478 51.6961 89.6535 42.3562C89.6535 42.3562 103.966 35.266 123.129 35.0444Z" fill="#FFFFFF"/>
<path d="M123.121 0.00589269C125.858 -0.0256328 128.69 0.0755607 131.599 0.365069C139.354 1.13707 147.631 3.20025 155.877 7.31769C176.788 17.7586 193.692 16.6968 206.917 12.9106C220.141 9.12443 230.023 3.40952 236.761 3.40952H245.53V29.6893H236.761C225.96 29.6893 216.375 36.1123 204.519 39.5068C192.663 42.9013 178.867 44.054 159.79 34.5296C150.498 29.89 141.228 27.549 132.541 26.679C106.48 24.0693 85.7315 34.5296 85.7315 34.5296C69.102 42.8328 55.1809 41.7674 42.6217 38.6088C30.0626 35.4503 19.3763 29.6893 8.76935 29.6893H0.000106746V3.40952H8.76935C15.7009 3.40952 26.8054 8.63105 40.4894 12.0725C54.1734 15.514 70.9479 16.6576 89.6536 7.31771C89.6536 7.31771 103.958 0.227749 123.121 0.00589269Z" fill="#E73649"/>
<path d="M843.749 35.0444C853.787 34.9283 865.158 36.6947 876.497 42.3562C897.408 52.7971 914.313 51.7353 927.537 47.9491C940.761 44.1629 950.644 38.448 957.381 38.448H966.151V64.7278H957.381C946.581 64.7278 936.995 71.1508 925.139 74.5453C913.283 77.9398 899.487 79.0672 880.411 69.5425C843.242 50.984 806.352 69.5425 806.352 69.5425C789.722 77.8457 775.801 76.8059 763.242 73.6473C750.683 70.4888 739.996 64.7278 729.389 64.7278H720.62V38.448H729.389C736.321 38.448 747.425 43.6695 761.109 47.111C774.793 50.5525 791.568 51.6961 810.274 42.3562C810.274 42.3562 824.586 35.266 843.749 35.0444Z" fill="#FFFFFF"/>
<path d="M843.741 0.00552648C846.478 -0.025999 849.311 0.0751945 852.219 0.364703C859.974 1.1367 868.251 3.19988 876.497 7.31732C897.408 17.7582 914.313 16.6964 927.537 12.9102C940.761 9.12406 950.644 3.40915 957.381 3.40915H966.151V29.6889H957.381C946.581 29.6889 936.995 36.1119 925.139 39.5064C913.283 42.9009 899.487 44.054 880.411 34.5293C871.118 29.8896 861.848 27.5486 853.161 26.6787C827.1 24.0689 806.352 34.5292 806.352 34.5293C789.722 42.8324 775.801 41.767 763.242 38.6085C750.683 35.4499 739.996 29.6889 729.389 29.6889H720.62V3.40915H729.389C736.321 3.40915 747.425 8.63068 761.109 12.0722C774.793 15.5136 791.568 16.6572 810.274 7.31734C810.274 7.31734 824.578 0.227383 843.741 0.00552648Z" fill="#E73649"/>
<path d="M604.732 35.0446C614.77 34.9285 626.141 36.6949 637.479 42.3564C658.39 52.7973 675.295 51.7355 688.519 47.9493C701.743 44.1631 711.626 38.4482 718.364 38.4482H727.133V64.728H718.364C707.563 64.728 697.977 71.151 686.121 74.5455C674.265 77.94 660.469 79.0675 641.393 69.5427C604.224 50.9842 567.334 69.5427 567.334 69.5427C550.705 77.8459 536.783 76.8061 524.224 73.6476C511.665 70.489 500.979 64.728 490.372 64.728H481.603V38.4482H490.372C497.303 38.4482 508.408 43.6698 522.092 47.1113C535.776 50.5527 552.55 51.6963 571.256 42.3564C571.256 42.3564 585.568 35.2663 604.732 35.0446Z" fill="#FFFFFF"/>
<path d="M604.723 0.00650305C607.461 -0.0250224 610.293 0.076171 613.201 0.36568C620.957 1.13768 629.233 3.20086 637.479 7.3183C658.39 17.7592 675.295 16.6974 688.519 12.9112C701.743 9.12504 711.626 3.41013 718.364 3.41013H727.133V29.6899H718.364C707.563 29.6899 697.977 36.1129 686.121 39.5074C674.265 42.9019 660.469 44.055 641.393 34.5302C632.101 29.8906 622.83 27.5496 614.143 26.6797C588.083 24.0699 567.334 34.5302 567.334 34.5302C550.705 42.8334 536.783 41.768 524.224 38.6095C511.665 35.4509 500.979 29.6899 490.372 29.6899H481.603V3.41013H490.372C497.303 3.41013 508.408 8.63166 522.092 12.0731C535.776 15.5146 552.55 16.6582 571.256 7.31832C571.256 7.31832 585.561 0.228359 604.723 0.00650305Z" fill="#E73649"/>
<path d="M1082.77 35.0446C1092.81 34.9285 1104.18 36.6949 1115.52 42.3564C1136.43 52.7973 1153.33 51.7355 1166.56 47.9493C1179.78 44.1631 1189.66 38.4482 1196.4 38.4482H1205.17V64.728H1196.4C1185.6 64.728 1176.01 71.151 1164.16 74.5455C1152.3 77.94 1138.51 79.0675 1119.43 69.5427C1082.26 50.9842 1045.37 69.5427 1045.37 69.5427C1028.74 77.8459 1014.82 76.8061 1002.26 73.6476C989.701 70.489 979.015 64.728 968.408 64.728H959.639V38.4482H968.408C975.34 38.4482 986.444 43.6698 1000.13 47.1113C1013.81 50.5527 1030.59 51.6963 1049.29 42.3564C1049.29 42.3564 1063.6 35.2663 1082.77 35.0446Z" fill="#FFFFFF"/>
<path d="M1082.76 0.00674719C1085.5 -0.0247783 1088.33 0.0764152 1091.24 0.365924C1098.99 1.13792 1107.27 3.2011 1115.52 7.31854C1136.43 17.7594 1153.33 16.6976 1166.56 12.9115C1179.78 9.12528 1189.66 3.41037 1196.4 3.41037H1205.17V29.6901H1196.4C1185.6 29.6901 1176.01 36.1131 1164.16 39.5076C1152.3 42.9021 1138.51 44.0552 1119.43 34.5305C1110.14 29.8909 1100.87 27.5498 1092.18 26.6799C1066.12 24.0701 1045.37 34.5305 1045.37 34.5305C1028.74 42.8337 1014.82 41.7683 1002.26 38.6097C989.702 35.4511 979.016 29.6901 968.409 29.6901H959.64V3.41037H968.409C975.341 3.41037 986.445 8.6319 1000.13 12.0734C1013.81 15.5148 1030.59 16.6585 1049.29 7.31856C1049.29 7.31856 1063.6 0.228603 1082.76 0.00674719Z" fill="#E73649"/>
<path d="M1318.6 35.0444C1328.64 34.9283 1340.01 36.6947 1351.35 42.3562C1372.26 52.7971 1389.16 51.7353 1402.39 47.9491C1415.61 44.1629 1425.49 38.448 1432.23 38.448H1441V64.7278H1432.23C1421.43 64.7278 1411.85 71.1508 1399.99 74.5453C1388.13 77.9398 1374.34 79.0672 1355.26 69.5425C1318.09 50.984 1281.2 69.5425 1281.2 69.5425C1264.57 77.8457 1250.65 76.8059 1238.09 73.6473C1225.53 70.4888 1214.85 64.7278 1204.24 64.7278H1195.47V38.448H1204.24C1211.17 38.448 1222.28 43.6695 1235.96 47.111C1249.64 50.5525 1266.42 51.6961 1285.12 42.3562C1285.12 42.3562 1299.44 35.266 1318.6 35.0444Z" fill="#FFFFFF"/>
<path d="M1318.59 0.00552648C1321.33 -0.025999 1324.16 0.0751945 1327.07 0.364703C1334.82 1.1367 1343.1 3.19988 1351.35 7.31732C1372.26 17.7582 1389.16 16.6964 1402.39 12.9102C1415.61 9.12406 1425.49 3.40915 1432.23 3.40915H1441V29.6889H1432.23C1421.43 29.6889 1411.85 36.1119 1399.99 39.5064C1388.13 42.9009 1374.34 44.054 1355.26 34.5293C1345.97 29.8896 1336.7 27.5486 1328.01 26.6787C1301.95 24.0689 1281.2 34.5292 1281.2 34.5293C1264.57 42.8324 1250.65 41.767 1238.09 38.6085C1225.53 35.4499 1214.85 29.6889 1204.24 29.6889H1195.47V3.40915H1204.24C1211.17 3.40915 1222.28 8.63068 1235.96 12.0722C1249.64 15.5136 1266.42 16.6572 1285.12 7.31734C1285.12 7.31734 1299.43 0.227383 1318.59 0.00552648Z" fill="#E73649"/>
<path d="M365.715 726.044C375.753 725.928 387.124 727.694 398.463 733.356C419.374 743.797 436.278 742.735 449.503 738.949C462.727 735.162 472.609 729.448 479.347 729.448H488.116V755.727H479.347C468.546 755.727 458.961 762.15 447.105 765.545C435.249 768.939 421.452 770.067 402.376 760.542C365.208 741.983 328.317 760.542 328.317 760.542C311.688 768.845 297.767 767.805 285.208 764.647C272.649 761.488 261.962 755.727 251.355 755.727H242.586V729.448H251.355C258.287 729.448 269.391 734.669 283.075 738.111C296.759 741.552 313.534 742.696 332.24 733.356C332.24 733.356 346.552 726.266 365.715 726.044Z" fill="#E73649"/>
<path d="M365.707 691.006C368.444 690.974 371.276 691.075 374.185 691.365C381.94 692.137 390.216 694.2 398.463 698.317C419.374 708.758 436.278 707.696 449.503 703.91C462.727 700.124 472.609 694.409 479.347 694.409H488.116V720.689H479.347C468.546 720.689 458.961 727.112 447.105 730.506C435.249 733.901 421.452 735.054 402.376 725.529C393.084 720.89 383.814 718.549 375.127 717.679C349.066 715.069 328.317 725.529 328.317 725.529C311.688 733.832 297.767 732.767 285.208 729.608C272.649 726.45 261.962 720.689 251.355 720.689H242.586V694.409H251.355C258.287 694.409 269.391 699.631 283.075 703.072C296.759 706.514 313.534 707.657 332.24 698.317C332.24 698.317 346.544 691.227 365.707 691.006Z" fill="#FFFFFF"/>
<path d="M123.129 726.044C133.167 725.928 144.538 727.695 155.877 733.356C176.788 743.797 193.692 742.735 206.917 738.949C220.141 735.163 230.023 729.448 236.761 729.448H245.53V755.728H236.761C225.96 755.728 216.375 762.151 204.519 765.545C192.663 768.94 178.866 770.067 159.79 760.542C122.622 741.984 85.7314 760.542 85.7314 760.542C69.1019 768.846 55.1807 767.806 42.6216 764.647C30.0625 761.489 19.3762 755.728 8.76925 755.728H0V729.448H8.76925C15.7008 729.448 26.8053 734.67 40.4893 738.111C54.1732 741.552 70.9478 742.696 89.6535 733.356C89.6535 733.356 103.966 726.266 123.129 726.044Z" fill="#E73649"/>
<path d="M123.121 691.006C125.858 690.974 128.69 691.076 131.599 691.365C139.354 692.137 147.631 694.2 155.877 698.318C176.788 708.759 193.692 707.697 206.917 703.911C220.141 700.124 230.023 694.41 236.761 694.41H245.53V720.689H236.761C225.96 720.689 216.375 727.112 204.519 730.507C192.663 733.901 178.867 735.054 159.79 725.53C150.498 720.89 141.228 718.549 132.541 717.679C106.48 715.069 85.7315 725.53 85.7315 725.53C69.102 733.833 55.1809 732.767 42.6217 729.609C30.0626 726.45 19.3763 720.689 8.76935 720.689H0.000106746V694.41H8.76935C15.7009 694.41 26.8054 699.631 40.4894 703.073C54.1734 706.514 70.9479 707.658 89.6536 698.318C89.6536 698.318 103.958 691.228 123.121 691.006Z" fill="#FFFFFF"/>
<path d="M843.749 726.044C853.787 725.928 865.158 727.695 876.497 733.356C897.408 743.797 914.313 742.735 927.537 738.949C940.761 735.163 950.644 729.448 957.381 729.448H966.151V755.728H957.381C946.581 755.728 936.995 762.151 925.139 765.545C913.283 768.94 899.487 770.067 880.411 760.542C843.242 741.984 806.352 760.542 806.352 760.542C789.722 768.846 775.801 767.806 763.242 764.647C750.683 761.489 739.996 755.728 729.389 755.728H720.62V729.448H729.389C736.321 729.448 747.425 734.67 761.109 738.111C774.793 741.552 791.568 742.696 810.274 733.356C810.274 733.356 824.586 726.266 843.749 726.044Z" fill="#E73649"/>
<path d="M843.741 691.006C846.478 690.974 849.311 691.075 852.219 691.365C859.974 692.137 868.251 694.2 876.497 698.317C897.408 708.758 914.313 707.696 927.537 703.91C940.761 700.124 950.644 694.409 957.381 694.409H966.151V720.689H957.381C946.581 720.689 936.995 727.112 925.139 730.506C913.283 733.901 899.487 735.054 880.411 725.529C871.118 720.89 861.848 718.549 853.161 717.679C827.1 715.069 806.352 725.529 806.352 725.529C789.722 733.832 775.801 732.767 763.242 729.608C750.683 726.45 739.996 720.689 729.389 720.689H720.62V694.409H729.389C736.321 694.409 747.425 699.631 761.109 703.072C774.793 706.514 791.568 707.657 810.274 698.317C810.274 698.317 824.578 691.227 843.741 691.006Z" fill="#FFFFFF"/>
<path d="M604.732 726.045C614.77 725.929 626.141 727.695 637.479 733.356C658.39 743.797 675.295 742.736 688.519 738.949C701.743 735.163 711.626 729.448 718.364 729.448H727.133V755.728H718.364C707.563 755.728 697.977 762.151 686.121 765.546C674.265 768.94 660.469 770.067 641.393 760.543C604.224 741.984 567.334 760.543 567.334 760.543C550.705 768.846 536.783 767.806 524.224 764.648C511.665 761.489 500.979 755.728 490.372 755.728H481.603V729.448H490.372C497.303 729.448 508.408 734.67 522.092 738.111C535.776 741.553 552.55 742.696 571.256 733.356C571.256 733.356 585.568 726.266 604.732 726.045Z" fill="#E73649"/>
<path d="M604.723 691.007C607.461 690.975 610.293 691.076 613.201 691.366C620.957 692.138 629.233 694.201 637.479 698.318C658.39 708.759 675.295 707.697 688.519 703.911C701.743 700.125 711.626 694.41 718.364 694.41H727.133V720.69H718.364C707.563 720.69 697.977 727.113 686.121 730.507C674.265 733.902 660.469 735.055 641.393 725.53C632.101 720.891 622.83 718.55 614.143 717.68C588.083 715.07 567.334 725.53 567.334 725.53C550.705 733.833 536.783 732.768 524.224 729.609C511.665 726.451 500.979 720.69 490.372 720.69H481.603V694.41H490.372C497.303 694.41 508.408 699.632 522.092 703.073C535.776 706.515 552.55 707.658 571.256 698.318C571.256 698.318 585.561 691.228 604.723 691.007Z" fill="#FFFFFF"/>
<path d="M1082.77 726.045C1092.81 725.929 1104.18 727.695 1115.52 733.356C1136.43 743.797 1153.33 742.736 1166.56 738.949C1179.78 735.163 1189.66 729.448 1196.4 729.448H1205.17V755.728H1196.4C1185.6 755.728 1176.01 762.151 1164.16 765.546C1152.3 768.94 1138.51 770.067 1119.43 760.543C1082.26 741.984 1045.37 760.543 1045.37 760.543C1028.74 768.846 1014.82 767.806 1002.26 764.648C989.701 761.489 979.015 755.728 968.408 755.728H959.639V729.448H968.408C975.34 729.448 986.444 734.67 1000.13 738.111C1013.81 741.553 1030.59 742.696 1049.29 733.356C1049.29 733.356 1063.6 726.266 1082.77 726.045Z" fill="#E73649"/>
<path d="M1082.76 691.007C1085.5 690.975 1088.33 691.076 1091.24 691.366C1098.99 692.138 1107.27 694.201 1115.52 698.319C1136.43 708.759 1153.33 707.698 1166.56 703.911C1179.78 700.125 1189.66 694.41 1196.4 694.41H1205.17V720.69H1196.4C1185.6 720.69 1176.01 727.113 1164.16 730.508C1152.3 733.902 1138.51 735.055 1119.43 725.53C1110.14 720.891 1100.87 718.55 1092.18 717.68C1066.12 715.07 1045.37 725.53 1045.37 725.53C1028.74 733.834 1014.82 732.768 1002.26 729.61C989.702 726.451 979.016 720.69 968.409 720.69H959.64V694.41H968.409C975.341 694.41 986.445 699.632 1000.13 703.073C1013.81 706.515 1030.59 707.658 1049.29 698.319C1049.29 698.319 1063.6 691.229 1082.76 691.007Z" fill="#FFFFFF"/>
<path d="M1318.6 726.044C1328.64 725.928 1340.01 727.695 1351.35 733.356C1372.26 743.797 1389.16 742.735 1402.39 738.949C1415.61 735.163 1425.49 729.448 1432.23 729.448H1441V755.728H1432.23C1421.43 755.728 1411.85 762.151 1399.99 765.545C1388.13 768.94 1374.34 770.067 1355.26 760.542C1318.09 741.984 1281.2 760.542 1281.2 760.542C1264.57 768.846 1250.65 767.806 1238.09 764.647C1225.53 761.489 1214.85 755.728 1204.24 755.728H1195.47V729.448H1204.24C1211.17 729.448 1222.28 734.67 1235.96 738.111C1249.64 50.5525 1266.42 742.696 1285.12 733.356C1285.12 733.356 1299.44 726.266 1318.6 726.044Z" fill="#E73649"/>
<path d="M1318.59 691.006C1321.33 690.974 1324.16 691.075 1327.07 691.365C1334.82 692.137 1343.1 694.2 1351.35 698.317C1372.26 708.758 1389.16 707.696 1402.39 703.91C1415.61 700.124 1425.49 694.409 1432.23 694.409H1441V720.689H1432.23C1421.43 720.689 1411.85 727.112 1399.99 730.506C1388.13 733.901 1374.34 735.054 1355.26 725.529C1345.97 720.89 1336.7 718.549 1328.01 717.679C1301.95 715.069 1281.2 725.529 1281.2 725.529C1264.57 733.832 1250.65 732.767 1238.09 729.608C1225.53 726.45 1214.85 720.689 1204.24 720.689H1195.47V694.409H1204.24C1211.17 694.409 1222.28 699.631 1235.96 703.072C1249.64 706.514 1266.42 707.657 1285.12 698.317C1285.12 698.317 1299.43 691.227 1318.59 691.006Z" fill="#FFFFFF"/>
</svg>
