<svg width="585" height="422" viewBox="0 0 585 422" fill="none" xmlns="http://www.w3.org/2000/svg">
<circle opacity="0.08" cx="292.3" cy="211" r="211" fill="#0CAADD"/>
<g filter="url(#filter0_f_2160_243)">
<rect x="42.2998" y="123" width="500" height="177" fill="#D9D9D9"/>
</g>
<g filter="url(#filter1_d_2160_243)">
<path d="M57.9717 63C58.225 67.3655 61.8435 70.828 66.2725 70.8281C70.7015 70.8281 74.3209 67.3656 74.5742 63H78.5195C78.7729 67.3655 82.3914 70.828 86.8203 70.8281C91.2494 70.8281 94.8688 67.3656 95.1221 63H99.0674C99.3207 67.3655 102.939 70.8279 107.368 70.8281C111.797 70.8281 115.417 67.3656 115.67 63H119.615C119.869 67.3654 123.487 70.8279 127.916 70.8281C132.345 70.8281 135.964 67.3656 136.218 63H140.163C140.416 67.3656 144.036 70.8281 148.465 70.8281C152.894 70.8279 156.512 67.3654 156.766 63H160.711C160.964 67.3656 164.584 70.8281 169.013 70.8281C173.442 70.8279 177.06 67.3655 177.313 63H181.259C181.512 67.3656 185.131 70.8281 189.561 70.8281C193.99 70.828 197.608 67.3655 197.861 63H201.807C202.06 67.3656 205.679 70.8281 210.108 70.8281C214.537 70.828 218.156 67.3655 218.409 63H222.354C222.608 67.3656 226.227 70.8281 230.656 70.8281C235.085 70.8281 238.704 67.3655 238.957 63H242.902C243.156 67.3656 246.775 70.8281 251.204 70.8281C255.633 70.8281 259.253 67.3656 259.506 63H263.451C263.704 67.3655 267.323 70.8281 271.752 70.8281C276.181 70.8281 279.8 67.3656 280.054 63H283.999C284.252 67.3655 287.871 70.828 292.3 70.8281C296.729 70.8281 300.348 67.3656 300.602 63H304.547C304.8 67.3655 308.419 70.828 312.848 70.8281C317.277 70.8281 320.896 67.3656 321.149 63H325.095C325.348 67.3654 328.967 70.8279 333.396 70.8281C337.825 70.8281 341.444 67.3656 341.697 63H345.643C345.896 67.3656 349.515 70.8281 353.944 70.8281C358.373 70.8279 361.992 67.3654 362.245 63H366.19C366.444 67.3656 370.063 70.8281 374.492 70.8281C378.921 70.8279 382.54 67.3654 382.793 63H386.738C386.992 67.3656 390.611 70.8281 395.04 70.8281C399.469 70.828 403.087 67.3655 403.341 63H407.286C407.539 67.3656 411.159 70.8281 415.588 70.8281C420.017 70.828 423.635 67.3655 423.889 63H427.834C428.087 67.3656 431.707 70.8281 436.136 70.8281C440.565 70.8281 444.183 67.3655 444.437 63H448.382C448.635 67.3656 452.255 70.8281 456.684 70.8281C461.113 70.8281 464.732 67.3656 464.985 63H468.931C469.184 67.3655 472.802 70.8281 477.231 70.8281C481.661 70.8281 485.28 67.3656 485.533 63H489.479C489.732 67.3655 493.35 70.828 497.779 70.8281C502.208 70.8281 505.828 67.3656 506.081 63H510.026C510.28 67.3655 513.898 70.828 518.327 70.8281C522.756 70.8281 526.376 67.3656 526.629 63H530.574C530.828 67.3654 534.446 70.8279 538.875 70.8281C540.096 70.8281 541.255 70.5617 542.3 70.0889V352.388C541.255 351.915 540.096 351.649 538.875 351.649C534.446 351.65 530.828 355.112 530.574 359.478H526.629C526.376 355.112 522.756 351.649 518.327 351.649C513.898 351.65 510.28 355.112 510.026 359.478H506.081C505.828 355.112 502.208 351.649 497.779 351.649C493.35 351.65 489.732 355.112 489.479 359.478H485.533C485.28 355.112 481.661 351.649 477.231 351.649C472.802 351.649 469.184 355.112 468.931 359.478H464.985C464.732 355.112 461.113 351.649 456.684 351.649C452.254 351.649 448.635 355.112 448.382 359.478H444.437C444.183 355.112 440.565 351.649 436.136 351.649C431.707 351.649 428.087 355.112 427.834 359.478H423.889C423.635 355.112 420.017 351.65 415.588 351.649C411.159 351.649 407.539 355.112 407.286 359.478H403.341C403.088 355.112 399.469 351.65 395.04 351.649C390.611 351.649 386.992 355.112 386.738 359.478H382.793C382.54 355.112 378.921 351.65 374.492 351.649C370.063 351.649 366.444 355.112 366.19 359.478H362.245C361.992 355.112 358.373 351.65 353.944 351.649C349.515 351.649 345.896 355.112 345.643 359.478H341.697C341.444 355.112 337.825 351.649 333.396 351.649C328.967 351.65 325.348 355.112 325.095 359.478H321.149C320.896 355.112 317.277 351.649 312.848 351.649C308.419 351.65 304.8 355.112 304.547 359.478H300.602C300.348 355.112 296.729 351.649 292.3 351.649C287.871 351.65 284.252 355.112 283.999 359.478H280.054C279.8 355.112 276.181 351.649 271.752 351.649C267.323 351.649 263.704 355.112 263.451 359.478H259.506C259.253 355.112 255.633 351.649 251.204 351.649C246.775 351.649 243.156 355.112 242.902 359.478H238.957C238.704 355.112 235.085 351.649 230.656 351.649C226.227 351.649 222.608 355.112 222.354 359.478H218.409C218.156 355.112 214.537 351.65 210.108 351.649C205.679 351.649 202.06 355.112 201.807 359.478H197.861C197.608 355.112 193.99 351.65 189.561 351.649C185.131 351.649 181.512 355.112 181.259 359.478H177.313C177.06 355.112 173.442 351.65 169.013 351.649C164.584 351.649 160.964 355.112 160.711 359.478H156.766C156.512 355.112 152.894 351.65 148.465 351.649C144.036 351.649 140.416 355.112 140.163 359.478H136.218C135.964 355.112 132.345 351.649 127.916 351.649C123.487 351.65 119.869 355.112 119.615 359.478H115.67C115.417 355.112 111.797 351.649 107.368 351.649C102.939 351.65 99.3207 355.112 99.0674 359.478H95.1221C94.8688 355.112 91.2494 351.649 86.8203 351.649C82.3913 351.65 78.7728 355.112 78.5195 359.478H74.5742C74.3209 355.112 70.7016 351.649 66.2725 351.649C61.8435 351.65 58.225 355.112 57.9717 359.478H54.0254C53.7721 355.112 50.1536 351.65 45.7246 351.649C44.5034 351.649 43.3444 351.915 42.2998 352.388V70.0889C43.3445 70.5617 44.5033 70.8281 45.7246 70.8281C50.1536 70.828 53.7721 67.3656 54.0254 63H57.9717Z" fill="white"/>
<path d="M94.1798 146V123.6H98.3718L105.188 134.192L112.004 123.6H116.196V146H112.26V129.936L105.188 140.496H105.06L98.0518 130V146H94.1798ZM125.097 146.352C121.929 146.352 119.113 144.528 119.113 141.136V141.072C119.113 137.424 121.961 135.632 126.089 135.632C127.977 135.632 129.321 135.92 130.633 136.336V135.92C130.633 133.52 129.161 132.24 126.441 132.24C124.553 132.24 123.145 132.656 121.609 133.296L120.585 130.256C122.441 129.424 124.265 128.88 126.953 128.88C129.481 128.88 131.369 129.552 132.553 130.768C133.801 131.984 134.377 133.776 134.377 135.984V146H130.601V143.888C129.449 145.264 127.689 146.352 125.097 146.352ZM126.185 143.536C128.745 143.536 130.697 142.064 130.697 139.92V138.768C129.705 138.384 128.393 138.096 126.857 138.096C124.361 138.096 122.889 139.152 122.889 140.912V140.976C122.889 142.608 124.329 143.536 126.185 143.536ZM144.437 141.648L148.821 129.104H152.853L146.133 146.48C144.789 149.936 143.285 151.216 140.565 151.216C138.965 151.216 137.749 150.832 136.565 150.192L137.877 147.312C138.581 147.696 139.349 147.952 140.149 147.952C141.237 147.952 141.909 147.472 142.549 146.032L135.509 129.104H139.669L144.437 141.648ZM153.783 138.096V134.288H163.255V138.096H153.783ZM171.614 146.32C168.158 146.32 165.918 144.72 164.446 142.704L167.038 140.016C168.35 141.712 169.662 142.672 171.55 142.672C173.662 142.672 175.102 141.264 175.102 138.256V123.6H179.166V138.384C179.166 141.04 178.366 143.024 177.054 144.336C175.742 145.648 173.854 146.32 171.614 146.32ZM188.656 146.352C184.848 146.352 182.64 143.792 182.64 139.856V129.104H186.512V138.704C186.512 141.328 187.824 142.8 190.128 142.8C192.368 142.8 193.936 141.264 193.936 138.64V129.104H197.84V146H193.936V143.376C192.848 144.976 191.28 146.352 188.656 146.352ZM201.62 146V122.64H205.492V146H201.62ZM216.6 141.648L220.984 129.104H225.016L218.296 146.48C216.952 149.936 215.448 151.216 212.728 151.216C211.128 151.216 209.912 150.832 208.728 150.192L210.04 147.312C210.744 147.696 211.512 147.952 212.312 147.952C213.4 147.952 214.072 147.472 214.712 146.032L207.672 129.104H211.832L216.6 141.648ZM234.504 146V142.896L242.216 136.336C245.288 133.712 246.408 132.304 246.408 130.288C246.408 128.08 244.84 126.8 242.792 126.8C240.744 126.8 239.336 127.92 237.64 130.16L234.824 127.952C236.968 124.976 239.08 123.28 243.08 123.28C247.464 123.28 250.472 125.968 250.472 129.968V130.032C250.472 133.552 248.616 135.472 244.648 138.704L240.04 142.544H250.696V146H234.504ZM262.833 146.384C256.945 146.384 253.105 141.264 253.105 134.864V134.8C253.105 128.4 257.009 123.216 262.897 123.216C268.753 123.216 272.625 128.336 272.625 134.736V134.8C272.625 141.2 268.721 146.384 262.833 146.384ZM262.897 142.832C266.385 142.832 268.561 139.248 268.561 134.864V134.8C268.561 130.384 266.289 126.768 262.833 126.768C259.377 126.768 257.169 130.288 257.169 134.736V134.8C257.169 139.216 259.409 142.832 262.897 142.832ZM274.413 146V142.896L282.125 136.336C285.197 133.712 286.317 132.304 286.317 130.288C286.317 128.08 284.749 126.8 282.701 126.8C280.653 126.8 279.245 127.92 277.549 130.16L274.733 127.952C276.877 124.976 278.989 123.28 282.989 123.28C287.373 123.28 290.381 125.968 290.381 129.968V130.032C290.381 133.552 288.525 135.472 284.557 138.704L279.949 142.544H290.605V146H274.413ZM301.974 146.384C299.222 146.384 297.238 145.52 295.734 144.016C294.038 142.32 293.014 139.984 293.014 135.472V135.408C293.014 128.56 296.278 123.216 302.614 123.216C305.526 123.216 307.51 124.144 309.462 125.712L307.35 128.752C305.782 127.536 304.47 126.8 302.486 126.8C298.582 126.8 297.174 130.864 297.11 133.936C298.422 132.56 300.086 131.664 302.486 131.664C306.806 131.664 310.294 134.224 310.294 138.704V138.768C310.294 143.216 306.678 146.384 301.974 146.384ZM301.878 142.96C304.662 142.96 306.358 141.232 306.358 138.928V138.864C306.358 136.624 304.566 134.96 301.782 134.96C298.998 134.96 297.238 136.752 297.238 138.896V138.96C297.238 141.232 299.094 142.96 301.878 142.96Z" fill="#353535"/>
<path d="M96.4478 168L94.5998 164.736H93.8078V168H92.1278V159.624H95.2718C95.9198 159.624 96.4718 159.74 96.9278 159.972C97.3838 160.196 97.7238 160.504 97.9478 160.896C98.1798 161.28 98.2958 161.712 98.2958 162.192C98.2958 162.744 98.1358 163.244 97.8158 163.692C97.4958 164.132 97.0198 164.436 96.3878 164.604L98.3918 168H96.4478ZM93.8078 163.476H95.2118C95.6678 163.476 96.0078 163.368 96.2318 163.152C96.4558 162.928 96.5678 162.62 96.5678 162.228C96.5678 161.844 96.4558 161.548 96.2318 161.34C96.0078 161.124 95.6678 161.016 95.2118 161.016H93.8078V163.476ZM105.515 164.532C105.515 164.772 105.499 164.988 105.467 165.18H100.607C100.647 165.66 100.815 166.036 101.111 166.308C101.407 166.58 101.771 166.716 102.203 166.716C102.827 166.716 103.271 166.448 103.535 165.912H105.347C105.155 166.552 104.787 167.08 104.243 167.496C103.699 167.904 103.031 168.108 102.239 168.108C101.599 168.108 101.023 167.968 100.511 167.688C100.007 167.4 99.6113 166.996 99.3233 166.476C99.0433 165.956 98.9033 165.356 98.9033 164.676C98.9033 163.988 99.0433 163.384 99.3233 162.864C99.6033 162.344 99.9953 161.944 100.499 161.664C101.003 161.384 101.583 161.244 102.239 161.244C102.871 161.244 103.435 161.38 103.931 161.652C104.435 161.924 104.823 162.312 105.095 162.816C105.375 163.312 105.515 163.884 105.515 164.532ZM103.775 164.052C103.767 163.62 103.611 163.276 103.307 163.02C103.003 162.756 102.631 162.624 102.191 162.624C101.775 162.624 101.423 162.752 101.135 163.008C100.855 163.256 100.683 163.604 100.619 164.052H103.775ZM108.866 161.244C109.362 161.244 109.798 161.344 110.174 161.544C110.55 161.736 110.846 161.988 111.062 162.3V161.352H112.754V168.048C112.754 168.664 112.63 169.212 112.382 169.692C112.134 170.18 111.762 170.564 111.266 170.844C110.77 171.132 110.17 171.276 109.466 171.276C108.522 171.276 107.746 171.056 107.138 170.616C106.538 170.176 106.198 169.576 106.118 168.816H107.786C107.874 169.12 108.062 169.36 108.35 169.536C108.646 169.72 109.002 169.812 109.418 169.812C109.906 169.812 110.302 169.664 110.606 169.368C110.91 169.08 111.062 168.64 111.062 168.048V167.016C110.846 167.328 110.546 167.588 110.162 167.796C109.786 168.004 109.354 168.108 108.866 168.108C108.306 168.108 107.794 167.964 107.33 167.676C106.866 167.388 106.498 166.984 106.226 166.464C105.962 165.936 105.83 165.332 105.83 164.652C105.83 163.98 105.962 163.384 106.226 162.864C106.498 162.344 106.862 161.944 107.318 161.664C107.782 161.384 108.298 161.244 108.866 161.244ZM111.062 164.676C111.062 164.268 110.982 163.92 110.822 163.632C110.662 163.336 110.446 163.112 110.174 162.96C109.902 162.8 109.61 162.72 109.298 162.72C108.986 162.72 108.698 162.796 108.434 162.948C108.17 163.1 107.954 163.324 107.786 163.62C107.626 163.908 107.546 164.252 107.546 164.652C107.546 165.052 107.626 165.404 107.786 165.708C107.954 166.004 108.17 166.232 108.434 166.392C108.706 166.552 108.994 166.632 109.298 166.632C109.61 166.632 109.902 166.556 110.174 166.404C110.446 166.244 110.662 166.02 110.822 165.732C110.982 165.436 111.062 165.084 111.062 164.676ZM114.766 160.56C114.47 160.56 114.222 160.468 114.022 160.284C113.83 160.092 113.734 159.856 113.734 159.576C113.734 159.296 113.83 159.064 114.022 158.88C114.222 158.688 114.47 158.592 114.766 158.592C115.062 158.592 115.306 158.688 115.498 158.88C115.698 159.064 115.798 159.296 115.798 159.576C115.798 159.856 115.698 160.092 115.498 160.284C115.306 160.468 115.062 160.56 114.766 160.56ZM115.594 161.352V168H113.914V161.352H115.594ZM119.318 168.108C118.774 168.108 118.286 168.012 117.854 167.82C117.422 167.62 117.078 167.352 116.822 167.016C116.574 166.68 116.438 166.308 116.414 165.9H118.106C118.138 166.156 118.262 166.368 118.478 166.536C118.702 166.704 118.978 166.788 119.306 166.788C119.626 166.788 119.874 166.724 120.05 166.596C120.234 166.468 120.326 166.304 120.326 166.104C120.326 165.888 120.214 165.728 119.99 165.624C119.774 165.512 119.426 165.392 118.946 165.264C118.45 165.144 118.042 165.02 117.722 164.892C117.41 164.764 117.138 164.568 116.906 164.304C116.682 164.04 116.57 163.684 116.57 163.236C116.57 162.868 116.674 162.532 116.882 162.228C117.098 161.924 117.402 161.684 117.794 161.508C118.194 161.332 118.662 161.244 119.198 161.244C119.99 161.244 120.622 161.444 121.094 161.844C121.566 162.236 121.826 162.768 121.874 163.44H120.266C120.242 163.176 120.13 162.968 119.93 162.816C119.738 162.656 119.478 162.576 119.15 162.576C118.846 162.576 118.61 162.632 118.442 162.744C118.282 162.856 118.202 163.012 118.202 163.212C118.202 163.436 118.314 163.608 118.538 163.728C118.762 163.84 119.11 163.956 119.582 164.076C120.062 164.196 120.458 164.32 120.77 164.448C121.082 164.576 121.35 164.776 121.574 165.048C121.806 165.312 121.926 165.664 121.934 166.104C121.934 166.488 121.826 166.832 121.61 167.136C121.402 167.44 121.098 167.68 120.698 167.856C120.306 168.024 119.846 168.108 119.318 168.108ZM124.789 162.732V165.948C124.789 166.172 124.841 166.336 124.945 166.44C125.057 166.536 125.241 166.584 125.497 166.584H126.277V168H125.221C123.805 168 123.097 167.312 123.097 165.936V162.732H122.305V161.352H123.097V159.708H124.789V161.352H126.277V162.732H124.789ZM128.686 162.384C128.902 162.032 129.182 161.756 129.526 161.556C129.878 161.356 130.278 161.256 130.726 161.256V163.02H130.282C129.754 163.02 129.354 163.144 129.082 163.392C128.818 163.64 128.686 164.072 128.686 164.688V168H127.006V161.352H128.686V162.384ZM130.945 164.652C130.945 163.98 131.077 163.384 131.341 162.864C131.613 162.344 131.977 161.944 132.433 161.664C132.897 161.384 133.413 161.244 133.981 161.244C134.477 161.244 134.909 161.344 135.277 161.544C135.653 161.744 135.953 161.996 136.177 162.3V161.352H137.869V168H136.177V167.028C135.961 167.34 135.661 167.6 135.277 167.808C134.901 168.008 134.465 168.108 133.969 168.108C133.409 168.108 132.897 167.964 132.433 167.676C131.977 167.388 131.613 166.984 131.341 166.464C131.077 165.936 130.945 165.332 130.945 164.652ZM136.177 164.676C136.177 164.268 136.097 163.92 135.937 163.632C135.777 163.336 135.561 163.112 135.289 162.96C135.017 162.8 134.725 162.72 134.413 162.72C134.101 162.72 133.813 162.796 133.549 162.948C133.285 163.1 133.069 163.324 132.901 163.62C132.741 163.908 132.661 164.252 132.661 164.652C132.661 165.052 132.741 165.404 132.901 165.708C133.069 166.004 133.285 166.232 133.549 166.392C133.821 166.552 134.109 166.632 134.413 166.632C134.725 166.632 135.017 166.556 135.289 166.404C135.561 166.244 135.777 166.02 135.937 165.732C136.097 165.436 136.177 165.084 136.177 164.676ZM140.986 162.732V165.948C140.986 166.172 141.038 166.336 141.142 166.44C141.254 166.536 141.438 166.584 141.694 166.584H142.474V168H141.418C140.002 168 139.294 167.312 139.294 165.936V162.732H138.502V161.352H139.294V159.708H140.986V161.352H142.474V162.732H140.986ZM144.054 160.56C143.758 160.56 143.51 160.468 143.31 160.284C143.118 160.092 143.022 159.856 143.022 159.576C143.022 159.296 143.118 159.064 143.31 158.88C143.51 158.688 143.758 158.592 144.054 158.592C144.35 158.592 144.594 158.688 144.786 158.88C144.986 159.064 145.086 159.296 145.086 159.576C145.086 159.856 144.986 160.092 144.786 160.284C144.594 160.468 144.35 160.56 144.054 160.56ZM144.882 161.352V168H143.202V161.352H144.882ZM149.014 168.108C148.374 168.108 147.798 167.968 147.286 167.688C146.774 167.4 146.37 166.996 146.074 166.476C145.786 165.956 145.642 165.356 145.642 164.676C145.642 163.996 145.79 163.396 146.086 162.876C146.39 162.356 146.802 161.956 147.322 161.676C147.842 161.388 148.422 161.244 149.062 161.244C149.702 161.244 150.282 161.388 150.802 161.676C151.322 161.956 151.73 162.356 152.026 162.876C152.33 163.396 152.482 163.996 152.482 164.676C152.482 165.356 152.326 165.956 152.014 166.476C151.71 166.996 151.294 167.4 150.766 167.688C150.246 167.968 149.662 168.108 149.014 168.108ZM149.014 166.644C149.318 166.644 149.602 166.572 149.866 166.428C150.138 166.276 150.354 166.052 150.514 165.756C150.674 165.46 150.754 165.1 150.754 164.676C150.754 164.044 150.586 163.56 150.25 163.224C149.922 162.88 149.518 162.708 149.038 162.708C148.558 162.708 148.154 162.88 147.826 163.224C147.506 163.56 147.346 164.044 147.346 164.676C147.346 165.308 147.502 165.796 147.814 166.14C148.134 166.476 148.534 166.644 149.014 166.644ZM156.919 161.256C157.711 161.256 158.351 161.508 158.839 162.012C159.327 162.508 159.571 163.204 159.571 164.1V168H157.891V164.328C157.891 163.8 157.759 163.396 157.495 163.116C157.231 162.828 156.871 162.684 156.415 162.684C155.951 162.684 155.583 162.828 155.311 163.116C155.047 163.396 154.915 163.8 154.915 164.328V168H153.235V161.352H154.915V162.18C155.139 161.892 155.423 161.668 155.767 161.508C156.119 161.34 156.503 161.256 156.919 161.256ZM162.635 164.652C162.635 163.98 162.767 163.384 163.031 162.864C163.303 162.344 163.671 161.944 164.135 161.664C164.599 161.384 165.115 161.244 165.683 161.244C166.115 161.244 166.527 161.34 166.919 161.532C167.311 161.716 167.623 161.964 167.855 162.276V159.12H169.559V168H167.855V167.016C167.647 167.344 167.355 167.608 166.979 167.808C166.603 168.008 166.167 168.108 165.671 168.108C165.111 168.108 164.599 167.964 164.135 167.676C163.671 167.388 163.303 166.984 163.031 166.464C162.767 165.936 162.635 165.332 162.635 164.652ZM167.867 164.676C167.867 164.268 167.787 163.92 167.627 163.632C167.467 163.336 167.251 163.112 166.979 162.96C166.707 162.8 166.415 162.72 166.103 162.72C165.791 162.72 165.503 162.796 165.239 162.948C164.975 163.1 164.759 163.324 164.591 163.62C164.431 163.908 164.351 164.252 164.351 164.652C164.351 165.052 164.431 165.404 164.591 165.708C164.759 166.004 164.975 166.232 165.239 166.392C165.511 166.552 165.799 166.632 166.103 166.632C166.415 166.632 166.707 166.556 166.979 166.404C167.251 166.244 167.467 166.02 167.627 165.732C167.787 165.436 167.867 165.084 167.867 164.676ZM176.9 164.532C176.9 164.772 176.884 164.988 176.852 165.18H171.992C172.032 165.66 172.2 166.036 172.496 166.308C172.792 166.58 173.156 166.716 173.588 166.716C174.212 166.716 174.656 166.448 174.92 165.912H176.732C176.54 166.552 176.172 167.08 175.628 167.496C175.084 167.904 174.416 168.108 173.624 168.108C172.984 168.108 172.408 167.968 171.896 167.688C171.392 167.4 170.996 166.996 170.708 166.476C170.428 165.956 170.288 165.356 170.288 164.676C170.288 163.988 170.428 163.384 170.708 162.864C170.988 162.344 171.38 161.944 171.884 161.664C172.388 161.384 172.968 161.244 173.624 161.244C174.256 161.244 174.82 161.38 175.316 161.652C175.82 161.924 176.208 162.312 176.48 162.816C176.76 163.312 176.9 163.884 176.9 164.532ZM175.16 164.052C175.152 163.62 174.996 163.276 174.692 163.02C174.388 162.756 174.016 162.624 173.576 162.624C173.16 162.624 172.808 162.752 172.52 163.008C172.24 163.256 172.068 163.604 172.004 164.052H175.16ZM177.215 164.652C177.215 163.98 177.347 163.384 177.611 162.864C177.883 162.344 178.247 161.944 178.703 161.664C179.167 161.384 179.683 161.244 180.251 161.244C180.747 161.244 181.179 161.344 181.547 161.544C181.923 161.744 182.223 161.996 182.447 162.3V161.352H184.139V168H182.447V167.028C182.231 167.34 181.931 167.6 181.547 167.808C181.171 168.008 180.735 168.108 180.239 168.108C179.679 168.108 179.167 167.964 178.703 167.676C178.247 167.388 177.883 166.984 177.611 166.464C177.347 165.936 177.215 165.332 177.215 164.652ZM182.447 164.676C182.447 164.268 182.367 163.92 182.207 163.632C182.047 163.336 181.831 163.112 181.559 162.96C181.287 162.8 180.995 162.72 180.683 162.72C180.371 162.72 180.083 162.796 179.819 162.948C179.555 163.1 179.339 163.324 179.171 163.62C179.011 163.908 178.931 164.252 178.931 164.652C178.931 165.052 179.011 165.404 179.171 165.708C179.339 166.004 179.555 166.232 179.819 166.392C180.091 166.552 180.379 166.632 180.683 166.632C180.995 166.632 181.287 166.556 181.559 166.404C181.831 166.244 182.047 166.02 182.207 165.732C182.367 165.436 182.447 165.084 182.447 164.676ZM184.867 164.652C184.867 163.98 184.999 163.384 185.263 162.864C185.535 162.344 185.903 161.944 186.367 161.664C186.831 161.384 187.347 161.244 187.915 161.244C188.347 161.244 188.759 161.34 189.151 161.532C189.543 161.716 189.855 161.964 190.087 162.276V159.12H191.791V168H190.087V167.016C189.879 167.344 189.587 167.608 189.211 167.808C188.835 168.008 188.399 168.108 187.903 168.108C187.343 168.108 186.831 167.964 186.367 167.676C185.903 167.388 185.535 166.984 185.263 166.464C184.999 165.936 184.867 165.332 184.867 164.652ZM190.099 164.676C190.099 164.268 190.019 163.92 189.859 163.632C189.699 163.336 189.483 163.112 189.211 162.96C188.939 162.8 188.647 162.72 188.335 162.72C188.023 162.72 187.735 162.796 187.471 162.948C187.207 163.1 186.991 163.324 186.823 163.62C186.663 163.908 186.583 164.252 186.583 164.652C186.583 165.052 186.663 165.404 186.823 165.708C186.991 166.004 187.207 166.232 187.471 166.392C187.743 166.552 188.031 166.632 188.335 166.632C188.647 166.632 188.939 166.556 189.211 166.404C189.483 166.244 189.699 166.02 189.859 165.732C190.019 165.436 190.099 165.084 190.099 164.676ZM194.632 159.12V168H192.952V159.12H194.632ZM196.664 160.56C196.368 160.56 196.12 160.468 195.92 160.284C195.728 160.092 195.632 159.856 195.632 159.576C195.632 159.296 195.728 159.064 195.92 158.88C196.12 158.688 196.368 158.592 196.664 158.592C196.96 158.592 197.204 158.688 197.396 158.88C197.596 159.064 197.696 159.296 197.696 159.576C197.696 159.856 197.596 160.092 197.396 160.284C197.204 160.468 196.96 160.56 196.664 160.56ZM197.492 161.352V168H195.812V161.352H197.492ZM202.356 161.256C203.148 161.256 203.788 161.508 204.276 162.012C204.764 162.508 205.008 163.204 205.008 164.1V168H203.328V164.328C203.328 163.8 203.196 163.396 202.932 163.116C202.668 162.828 202.308 162.684 201.852 162.684C201.388 162.684 201.02 162.828 200.748 163.116C200.484 163.396 200.352 163.8 200.352 164.328V168H198.672V161.352H200.352V162.18C200.576 161.892 200.86 161.668 201.204 161.508C201.556 161.34 201.94 161.256 202.356 161.256ZM212.305 164.532C212.305 164.772 212.289 164.988 212.257 165.18H207.397C207.437 165.66 207.605 166.036 207.901 166.308C208.197 166.58 208.561 166.716 208.993 166.716C209.617 166.716 210.061 166.448 210.325 165.912H212.137C211.945 166.552 211.577 167.08 211.033 167.496C210.489 167.904 209.821 168.108 209.029 168.108C208.389 168.108 207.813 167.968 207.301 167.688C206.797 167.4 206.401 166.996 206.113 166.476C205.833 165.956 205.693 165.356 205.693 164.676C205.693 163.988 205.833 163.384 206.113 162.864C206.393 162.344 206.785 161.944 207.289 161.664C207.793 161.384 208.373 161.244 209.029 161.244C209.661 161.244 210.225 161.38 210.721 161.652C211.225 161.924 211.613 162.312 211.885 162.816C212.165 163.312 212.305 163.884 212.305 164.532ZM210.565 164.052C210.557 163.62 210.401 163.276 210.097 163.02C209.793 162.756 209.421 162.624 208.981 162.624C208.565 162.624 208.213 162.752 207.925 163.008C207.645 163.256 207.473 163.604 207.409 164.052H210.565ZM213.796 168.084C213.492 168.084 213.24 167.992 213.04 167.808C212.848 167.616 212.752 167.38 212.752 167.1C212.752 166.82 212.848 166.588 213.04 166.404C213.24 166.212 213.492 166.116 213.796 166.116C214.092 166.116 214.336 166.212 214.528 166.404C214.72 166.588 214.816 166.82 214.816 167.1C214.816 167.38 214.72 167.616 214.528 167.808C214.336 167.992 214.092 168.084 213.796 168.084ZM213.796 163.116C213.492 163.116 213.24 163.024 213.04 162.84C212.848 162.648 212.752 162.412 212.752 162.132C212.752 161.852 212.848 161.62 213.04 161.436C213.24 161.244 213.492 161.148 213.796 161.148C214.092 161.148 214.336 161.244 214.528 161.436C214.72 161.62 214.816 161.852 214.816 162.132C214.816 162.412 214.72 162.648 214.528 162.84C214.336 163.024 214.092 163.116 213.796 163.116ZM220.819 166.104C221.587 165.464 222.199 164.932 222.655 164.508C223.111 164.076 223.491 163.628 223.795 163.164C224.099 162.7 224.251 162.244 224.251 161.796C224.251 161.388 224.155 161.068 223.963 160.836C223.771 160.604 223.475 160.488 223.075 160.488C222.675 160.488 222.367 160.624 222.151 160.896C221.935 161.16 221.823 161.524 221.815 161.988H220.183C220.215 161.028 220.499 160.3 221.035 159.804C221.579 159.308 222.267 159.06 223.099 159.06C224.011 159.06 224.711 159.304 225.199 159.792C225.687 160.272 225.931 160.908 225.931 161.7C225.931 162.324 225.763 162.92 225.427 163.488C225.091 164.056 224.707 164.552 224.275 164.976C223.843 165.392 223.279 165.896 222.583 166.488H226.123V167.88H220.195V166.632L220.819 166.104ZM227.229 166.104C227.997 165.464 228.609 164.932 229.065 164.508C229.521 164.076 229.901 163.628 230.205 163.164C230.509 162.7 230.661 162.244 230.661 161.796C230.661 161.388 230.565 161.068 230.373 160.836C230.181 160.604 229.885 160.488 229.485 160.488C229.085 160.488 228.777 160.624 228.561 160.896C228.345 161.16 228.233 161.524 228.225 161.988H226.593C226.625 161.028 226.909 160.3 227.445 159.804C227.989 159.308 228.677 159.06 229.509 159.06C230.421 159.06 231.121 159.304 231.609 159.792C232.097 160.272 232.341 160.908 232.341 161.7C232.341 162.324 232.173 162.92 231.837 163.488C231.501 164.056 231.117 164.552 230.685 164.976C230.253 165.392 229.689 165.896 228.993 166.488H232.533V167.88H226.605V166.632L227.229 166.104ZM236.988 161.256C237.78 161.256 238.42 161.508 238.908 162.012C239.396 162.508 239.64 163.204 239.64 164.1V168H237.96V164.328C237.96 163.8 237.828 163.396 237.564 163.116C237.3 162.828 236.94 162.684 236.484 162.684C236.02 162.684 235.652 162.828 235.38 163.116C235.116 163.396 234.984 163.8 234.984 164.328V168H233.304V161.352H234.984V162.18C235.208 161.892 235.492 161.668 235.836 161.508C236.188 161.34 236.572 161.256 236.988 161.256ZM240.326 164.652C240.326 163.98 240.458 163.384 240.722 162.864C240.994 162.344 241.362 161.944 241.826 161.664C242.29 161.384 242.806 161.244 243.374 161.244C243.806 161.244 244.218 161.34 244.61 161.532C245.002 161.716 245.314 161.964 245.546 162.276V159.12H247.25V168H245.546V167.016C245.338 167.344 245.046 167.608 244.67 167.808C244.294 168.008 243.858 168.108 243.362 168.108C242.802 168.108 242.29 167.964 241.826 167.676C241.362 167.388 240.994 166.984 240.722 166.464C240.458 165.936 240.326 165.332 240.326 164.652ZM245.558 164.676C245.558 164.268 245.478 163.92 245.318 163.632C245.158 163.336 244.942 163.112 244.67 162.96C244.398 162.8 244.106 162.72 243.794 162.72C243.482 162.72 243.194 162.796 242.93 162.948C242.666 163.1 242.45 163.324 242.282 163.62C242.122 163.908 242.042 164.252 242.042 164.652C242.042 165.052 242.122 165.404 242.282 165.708C242.45 166.004 242.666 166.232 242.93 166.392C243.202 166.552 243.49 166.632 243.794 166.632C244.106 166.632 244.398 166.556 244.67 166.404C244.942 166.244 245.158 166.02 245.318 165.732C245.478 165.436 245.558 165.084 245.558 164.676ZM255.926 166.404H252.59L252.038 168H250.274L253.286 159.612H255.242L258.254 168H256.478L255.926 166.404ZM255.47 165.06L254.258 161.556L253.046 165.06H255.47ZM260.58 162.312C260.796 162.008 261.092 161.756 261.468 161.556C261.852 161.348 262.288 161.244 262.776 161.244C263.344 161.244 263.856 161.384 264.312 161.664C264.776 161.944 265.14 162.344 265.404 162.864C265.676 163.376 265.812 163.972 265.812 164.652C265.812 165.332 265.676 165.936 265.404 166.464C265.14 166.984 264.776 167.388 264.312 167.676C263.856 167.964 263.344 168.108 262.776 168.108C262.288 168.108 261.856 168.008 261.48 167.808C261.112 167.608 260.812 167.356 260.58 167.052V171.168H258.9V161.352H260.58V162.312ZM264.096 164.652C264.096 164.252 264.012 163.908 263.844 163.62C263.684 163.324 263.468 163.1 263.196 162.948C262.932 162.796 262.644 162.72 262.332 162.72C262.028 162.72 261.74 162.8 261.468 162.96C261.204 163.112 260.988 163.336 260.82 163.632C260.66 163.928 260.58 164.276 260.58 164.676C260.58 165.076 260.66 165.424 260.82 165.72C260.988 166.016 261.204 166.244 261.468 166.404C261.74 166.556 262.028 166.632 262.332 166.632C262.644 166.632 262.932 166.552 263.196 166.392C263.468 166.232 263.684 166.004 263.844 165.708C264.012 165.412 264.096 165.06 264.096 164.652ZM268.232 162.384C268.448 162.032 268.728 161.756 269.072 161.556C269.424 161.356 269.824 161.256 270.272 161.256V163.02H269.828C269.3 163.02 268.9 163.144 268.628 163.392C268.364 163.64 268.232 164.072 268.232 164.688V168H266.552V161.352H268.232V162.384ZM271.776 160.56C271.48 160.56 271.232 160.468 271.032 160.284C270.84 160.092 270.744 159.856 270.744 159.576C270.744 159.296 270.84 159.064 271.032 158.88C271.232 158.688 271.48 158.592 271.776 158.592C272.072 158.592 272.316 158.688 272.508 158.88C272.708 159.064 272.808 159.296 272.808 159.576C272.808 159.856 272.708 160.092 272.508 160.284C272.316 160.468 272.072 160.56 271.776 160.56ZM272.604 161.352V168H270.924V161.352H272.604ZM275.464 159.12V168H273.784V159.12H275.464Z" fill="#E73649"/>
<line opacity="0.2" x1="91.2998" y1="199.5" x2="493.3" y2="199.5" stroke="#1F1F1F"/>
<rect x="91.2998" y="227" width="106.855" height="20.8546" rx="10.4273" fill="white"/>
<path d="M99.7744 241.427V240.109H102.235C102.747 240.109 103.136 240.003 103.401 239.792C103.671 239.582 103.806 239.275 103.806 238.873V238.861C103.806 238.599 103.743 238.378 103.618 238.199C103.497 238.019 103.315 237.884 103.073 237.794C102.835 237.701 102.542 237.654 102.194 237.654H99.7744V236.488H101.989C102.466 236.488 102.831 236.392 103.085 236.201C103.339 236.009 103.466 235.74 103.466 235.392V235.38C103.466 235.037 103.349 234.769 103.114 234.578C102.884 234.382 102.558 234.285 102.136 234.285H99.7744V232.972H102.587C103.138 232.972 103.606 233.058 103.993 233.23C104.384 233.398 104.683 233.64 104.89 233.957C105.101 234.269 105.206 234.642 105.206 235.076V235.087C105.206 235.384 105.138 235.662 105.001 235.919C104.868 236.177 104.687 236.392 104.456 236.564C104.226 236.736 103.966 236.843 103.677 236.886V236.992C104.052 237.019 104.384 237.125 104.673 237.308C104.966 237.492 105.194 237.73 105.358 238.023C105.526 238.316 105.61 238.642 105.61 239.001V239.013C105.61 239.505 105.491 239.933 105.253 240.296C105.019 240.656 104.683 240.935 104.245 241.134C103.812 241.33 103.292 241.427 102.687 241.427H99.7744ZM98.8896 241.427V232.972H100.659V241.427H98.8896ZM108.271 241.574C107.974 241.574 107.728 241.476 107.532 241.281C107.337 241.085 107.239 240.843 107.239 240.554C107.239 240.265 107.337 240.025 107.532 239.833C107.728 239.638 107.974 239.541 108.271 239.541C108.575 239.541 108.823 239.638 109.015 239.833C109.206 240.025 109.302 240.265 109.302 240.554C109.302 240.843 109.206 241.085 109.015 241.281C108.823 241.476 108.575 241.574 108.271 241.574ZM114.405 241.644C113.733 241.644 113.149 241.542 112.653 241.339C112.157 241.136 111.767 240.851 111.481 240.484C111.2 240.113 111.042 239.677 111.007 239.177L111.001 239.083H112.706L112.712 239.142C112.735 239.353 112.821 239.539 112.97 239.699C113.122 239.855 113.325 239.978 113.579 240.068C113.833 240.158 114.124 240.203 114.452 240.203C114.769 240.203 115.046 240.156 115.284 240.062C115.522 239.968 115.708 239.839 115.841 239.675C115.978 239.507 116.046 239.316 116.046 239.101V239.095C116.046 238.818 115.933 238.595 115.706 238.427C115.483 238.259 115.108 238.121 114.581 238.011L113.69 237.83C112.812 237.65 112.173 237.355 111.774 236.945C111.376 236.535 111.177 236.009 111.177 235.369V235.363C111.177 234.839 111.315 234.382 111.593 233.992C111.87 233.601 112.251 233.298 112.735 233.083C113.22 232.865 113.774 232.755 114.399 232.755C115.056 232.755 115.618 232.863 116.087 233.078C116.56 233.289 116.929 233.58 117.194 233.951C117.46 234.318 117.61 234.738 117.646 235.21L117.651 235.287H115.987L115.976 235.216C115.94 235.013 115.854 234.835 115.718 234.683C115.585 234.531 115.405 234.412 115.179 234.326C114.956 234.236 114.696 234.191 114.399 234.191C114.11 234.191 113.856 234.234 113.638 234.32C113.419 234.406 113.249 234.527 113.128 234.683C113.007 234.835 112.946 235.017 112.946 235.228V235.234C112.946 235.507 113.056 235.732 113.274 235.908C113.497 236.08 113.856 236.216 114.353 236.318L115.249 236.5C115.847 236.621 116.333 236.785 116.708 236.992C117.087 237.199 117.366 237.458 117.546 237.771C117.726 238.083 117.815 238.46 117.815 238.902V238.908C117.815 239.466 117.677 239.951 117.399 240.361C117.126 240.767 116.733 241.083 116.222 241.31C115.714 241.533 115.108 241.644 114.405 241.644ZM123.083 241.644C122.267 241.644 121.562 241.464 120.968 241.105C120.374 240.746 119.917 240.234 119.597 239.57C119.276 238.906 119.116 238.117 119.116 237.203V237.191C119.116 236.277 119.276 235.488 119.597 234.824C119.917 234.16 120.372 233.65 120.962 233.294C121.556 232.935 122.263 232.755 123.083 232.755C123.751 232.755 124.351 232.886 124.882 233.148C125.417 233.41 125.849 233.771 126.177 234.232C126.505 234.693 126.696 235.22 126.751 235.814V235.89H125.034L125.028 235.849C124.97 235.533 124.851 235.255 124.671 235.017C124.491 234.775 124.265 234.587 123.991 234.455C123.722 234.322 123.419 234.255 123.083 234.255C122.642 234.255 122.259 234.375 121.935 234.613C121.61 234.847 121.36 235.185 121.185 235.626C121.013 236.064 120.927 236.585 120.927 237.191V237.203C120.927 237.804 121.013 238.326 121.185 238.767C121.36 239.208 121.61 239.548 121.935 239.787C122.259 240.025 122.644 240.144 123.089 240.144C123.429 240.144 123.731 240.083 123.997 239.962C124.267 239.837 124.489 239.664 124.665 239.441C124.845 239.214 124.964 238.951 125.022 238.65L125.034 238.597H126.757V238.667C126.694 239.257 126.501 239.775 126.177 240.22C125.853 240.666 125.427 241.015 124.899 241.269C124.372 241.519 123.767 241.644 123.083 241.644ZM129.446 241.574C129.149 241.574 128.903 241.476 128.708 241.281C128.513 241.085 128.415 240.843 128.415 240.554C128.415 240.265 128.513 240.025 128.708 239.833C128.903 239.638 129.149 239.541 129.446 239.541C129.751 239.541 129.999 239.638 130.19 239.833C130.382 240.025 130.478 240.265 130.478 240.554C130.478 240.843 130.382 241.085 130.19 241.281C129.999 241.476 129.751 241.574 129.446 241.574ZM135.651 241.427V232.972H137.128L141.481 238.984L140.245 238.357H141.124V232.972H142.817V241.427H141.353L136.987 235.392L138.229 236.019H137.345V241.427H135.651ZM148.413 241.644C147.69 241.644 147.063 241.513 146.532 241.251C146.005 240.99 145.595 240.625 145.302 240.156C145.013 239.687 144.868 239.138 144.868 238.509V232.972H146.638V238.351C146.638 238.714 146.706 239.031 146.843 239.3C146.983 239.566 147.185 239.773 147.446 239.921C147.712 240.07 148.034 240.144 148.413 240.144C148.792 240.144 149.112 240.07 149.374 239.921C149.64 239.773 149.841 239.566 149.978 239.3C150.114 239.031 150.183 238.714 150.183 238.351V232.972H151.952V238.509C151.952 239.134 151.808 239.683 151.519 240.156C151.233 240.625 150.825 240.99 150.294 241.251C149.767 241.513 149.14 241.644 148.413 241.644ZM154.003 241.427V232.972H157.524C158.165 232.972 158.71 233.082 159.159 233.3C159.612 233.515 159.956 233.824 160.19 234.226C160.429 234.628 160.548 235.107 160.548 235.662V235.673C160.548 236.216 160.413 236.705 160.144 237.138C159.878 237.568 159.503 237.878 159.019 238.07L160.8 241.427H158.796L157.22 238.333C157.208 238.333 157.194 238.333 157.179 238.333C157.163 238.333 157.149 238.333 157.138 238.333H155.772V241.427H154.003ZM155.772 237.044H157.331C157.772 237.044 158.116 236.927 158.362 236.693C158.612 236.455 158.737 236.126 158.737 235.708V235.697C158.737 235.287 158.61 234.96 158.356 234.718C158.103 234.476 157.753 234.355 157.308 234.355H155.772V237.044ZM165.358 241.644C164.687 241.644 164.103 241.542 163.606 241.339C163.11 241.136 162.72 240.851 162.435 240.484C162.153 240.113 161.995 239.677 161.96 239.177L161.954 239.083H163.659L163.665 239.142C163.688 239.353 163.774 239.539 163.923 239.699C164.075 239.855 164.278 239.978 164.532 240.068C164.786 240.158 165.077 240.203 165.405 240.203C165.722 240.203 165.999 240.156 166.237 240.062C166.476 239.968 166.661 239.839 166.794 239.675C166.931 239.507 166.999 239.316 166.999 239.101V239.095C166.999 238.818 166.886 238.595 166.659 238.427C166.437 238.259 166.062 238.121 165.534 238.011L164.644 237.83C163.765 237.65 163.126 237.355 162.728 236.945C162.329 236.535 162.13 236.009 162.13 235.369V235.363C162.13 234.839 162.269 234.382 162.546 233.992C162.823 233.601 163.204 233.298 163.688 233.083C164.173 232.865 164.728 232.755 165.353 232.755C166.009 232.755 166.571 232.863 167.04 233.078C167.513 233.289 167.882 233.58 168.147 233.951C168.413 234.318 168.563 234.738 168.599 235.21L168.604 235.287H166.94L166.929 235.216C166.894 235.013 166.808 234.835 166.671 234.683C166.538 234.531 166.358 234.412 166.132 234.326C165.909 234.236 165.649 234.191 165.353 234.191C165.063 234.191 164.81 234.234 164.591 234.32C164.372 234.406 164.202 234.527 164.081 234.683C163.96 234.835 163.899 235.017 163.899 235.228V235.234C163.899 235.507 164.009 235.732 164.228 235.908C164.45 236.08 164.81 236.216 165.306 236.318L166.202 236.5C166.8 236.621 167.286 236.785 167.661 236.992C168.04 237.199 168.319 237.458 168.499 237.771C168.679 238.083 168.769 238.46 168.769 238.902V238.908C168.769 239.466 168.63 239.951 168.353 240.361C168.079 240.767 167.687 241.083 167.175 241.31C166.667 241.533 166.062 241.644 165.358 241.644ZM170.444 241.427V232.972H172.214V241.427H170.444ZM174.265 241.427V232.972H175.741L180.095 238.984L178.858 238.357H179.737V232.972H181.431V241.427H179.966L175.601 235.392L176.843 236.019H175.958V241.427H174.265ZM187.167 241.644C186.538 241.644 185.974 241.542 185.474 241.339C184.974 241.132 184.548 240.837 184.196 240.455C183.849 240.068 183.581 239.601 183.394 239.054C183.206 238.503 183.112 237.884 183.112 237.197V237.185C183.112 236.279 183.276 235.496 183.604 234.835C183.933 234.171 184.397 233.66 184.999 233.3C185.601 232.937 186.31 232.755 187.126 232.755C187.794 232.755 188.392 232.875 188.919 233.113C189.446 233.351 189.876 233.683 190.208 234.109C190.544 234.535 190.753 235.029 190.835 235.591L190.847 235.65H189.089L189.077 235.591C188.96 235.169 188.729 234.841 188.386 234.607C188.042 234.373 187.622 234.255 187.126 234.255C186.673 234.255 186.28 234.375 185.948 234.613C185.62 234.847 185.366 235.183 185.187 235.621C185.007 236.054 184.917 236.57 184.917 237.167V237.179C184.917 237.636 184.97 238.048 185.075 238.416C185.181 238.779 185.333 239.089 185.532 239.347C185.731 239.605 185.972 239.802 186.253 239.939C186.534 240.076 186.849 240.144 187.196 240.144C187.583 240.144 187.925 240.07 188.222 239.921C188.519 239.773 188.751 239.566 188.919 239.3C189.087 239.035 189.177 238.724 189.188 238.369L189.194 238.21H187.366V236.921H190.917V237.994C190.917 238.552 190.831 239.056 190.659 239.505C190.487 239.955 190.237 240.339 189.909 240.66C189.581 240.976 189.185 241.22 188.72 241.392C188.259 241.56 187.741 241.644 187.167 241.644Z" fill="black"/>
<rect x="202.154" y="227" width="37.8546" height="20.8546" rx="10.4273" fill="white"/>
<path d="M210.828 241.427V240.109H213.289C213.801 240.109 214.189 240.003 214.455 239.792C214.725 239.582 214.859 239.275 214.859 238.873V238.861C214.859 238.599 214.797 238.378 214.672 238.199C214.551 238.019 214.369 237.884 214.127 237.794C213.889 237.701 213.596 237.654 213.248 237.654H210.828V236.488H213.043C213.52 236.488 213.885 236.392 214.139 236.201C214.393 236.009 214.52 235.74 214.52 235.392V235.38C214.52 235.037 214.402 234.769 214.168 234.578C213.938 234.382 213.611 234.285 213.189 234.285H210.828V232.972H213.641C214.191 232.972 214.66 233.058 215.047 233.23C215.438 233.398 215.736 233.64 215.943 233.957C216.154 234.269 216.26 234.642 216.26 235.076V235.087C216.26 235.384 216.191 235.662 216.055 235.919C215.922 236.177 215.74 236.392 215.51 236.564C215.279 236.736 215.02 236.843 214.73 236.886V236.992C215.105 237.019 215.438 237.125 215.727 237.308C216.02 237.492 216.248 237.73 216.412 238.023C216.58 238.316 216.664 238.642 216.664 239.001V239.013C216.664 239.505 216.545 239.933 216.307 240.296C216.072 240.656 215.736 240.935 215.299 241.134C214.865 241.33 214.346 241.427 213.74 241.427H210.828ZM209.943 241.427V232.972H211.713V241.427H209.943ZM219.148 238.761V237.378H221.316C221.824 237.378 222.219 237.25 222.5 236.992C222.785 236.73 222.928 236.359 222.928 235.878V235.867C222.928 235.386 222.785 235.017 222.5 234.759C222.219 234.501 221.824 234.373 221.316 234.373H219.148V232.972H221.75C222.344 232.972 222.863 233.093 223.309 233.335C223.754 233.574 224.1 233.91 224.346 234.343C224.596 234.777 224.721 235.283 224.721 235.861V235.873C224.721 236.455 224.596 236.962 224.346 237.396C224.1 237.83 223.754 238.166 223.309 238.404C222.863 238.642 222.344 238.761 221.75 238.761H219.148ZM218.264 241.427V232.972H220.033V241.427H218.264ZM228.4 241.427V234.431H225.863V232.972H232.707V234.431H230.17V241.427H228.4Z" fill="black"/>
<rect x="244.009" y="227" width="39.8546" height="20.8546" rx="10.4273" fill="white"/>
<path d="M252.616 238.761V237.378H254.784C255.292 237.378 255.687 237.25 255.968 236.992C256.253 236.73 256.396 236.359 256.396 235.878V235.867C256.396 235.386 256.253 235.017 255.968 234.759C255.687 234.501 255.292 234.373 254.784 234.373H252.616V232.972H255.218C255.812 232.972 256.331 233.093 256.776 233.335C257.222 233.574 257.567 233.91 257.813 234.343C258.063 234.777 258.188 235.283 258.188 235.861V235.873C258.188 236.455 258.063 236.962 257.813 237.396C257.567 237.83 257.222 238.166 256.776 238.404C256.331 238.642 255.812 238.761 255.218 238.761H252.616ZM251.731 241.427V232.972H253.501V241.427H251.731ZM259.817 241.427V232.972H261.587V236.406H265.396V232.972H267.165V241.427H265.396V237.865H261.587V241.427H259.817ZM269.216 241.427V232.972H272.544C273.384 232.972 274.099 233.136 274.688 233.464C275.278 233.789 275.729 234.261 276.042 234.882C276.354 235.503 276.511 236.255 276.511 237.138V237.15C276.511 238.06 276.354 238.833 276.042 239.47C275.733 240.107 275.284 240.593 274.694 240.929C274.104 241.261 273.388 241.427 272.544 241.427H269.216ZM270.985 239.968H272.263C272.786 239.968 273.229 239.861 273.593 239.646C273.956 239.431 274.231 239.117 274.419 238.703C274.61 238.285 274.706 237.777 274.706 237.179V237.167C274.706 236.585 274.608 236.091 274.413 235.685C274.222 235.275 273.942 234.964 273.575 234.753C273.212 234.539 272.774 234.431 272.263 234.431H270.985V239.968Z" fill="black"/>
<rect x="91.2998" y="251.854" width="126.855" height="20.8546" rx="10.4273" fill="white"/>
<path d="M101.835 266.499C101.163 266.499 100.579 266.397 100.083 266.194C99.5869 265.991 99.1963 265.706 98.9111 265.338C98.6299 264.967 98.4717 264.532 98.4365 264.032L98.4307 263.938H100.136L100.142 263.997C100.165 264.208 100.251 264.393 100.399 264.553C100.552 264.709 100.755 264.833 101.009 264.922C101.263 265.012 101.554 265.057 101.882 265.057C102.198 265.057 102.476 265.01 102.714 264.917C102.952 264.823 103.138 264.694 103.271 264.53C103.407 264.362 103.476 264.17 103.476 263.956V263.95C103.476 263.672 103.362 263.45 103.136 263.282C102.913 263.114 102.538 262.975 102.011 262.866L101.12 262.684C100.241 262.504 99.6025 262.209 99.2041 261.799C98.8057 261.389 98.6064 260.864 98.6064 260.223V260.217C98.6064 259.694 98.7451 259.237 99.0225 258.846C99.2998 258.456 99.6807 258.153 100.165 257.938C100.649 257.719 101.204 257.61 101.829 257.61C102.485 257.61 103.048 257.717 103.517 257.932C103.989 258.143 104.358 258.434 104.624 258.805C104.89 259.172 105.04 259.592 105.075 260.065L105.081 260.141H103.417L103.405 260.071C103.37 259.868 103.284 259.69 103.147 259.538C103.015 259.385 102.835 259.266 102.608 259.18C102.386 259.09 102.126 259.045 101.829 259.045C101.54 259.045 101.286 259.088 101.067 259.174C100.849 259.26 100.679 259.381 100.558 259.538C100.437 259.69 100.376 259.872 100.376 260.083V260.088C100.376 260.362 100.485 260.586 100.704 260.762C100.927 260.934 101.286 261.071 101.782 261.172L102.679 261.354C103.276 261.475 103.763 261.639 104.138 261.846C104.517 262.053 104.796 262.313 104.976 262.625C105.155 262.938 105.245 263.315 105.245 263.756V263.762C105.245 264.321 105.106 264.805 104.829 265.215C104.556 265.622 104.163 265.938 103.651 266.165C103.144 266.387 102.538 266.499 101.835 266.499ZM106.921 266.282V257.827H112.522V259.286H108.69V261.325H112.306V262.684H108.69V264.823H112.522V266.282H106.921ZM114.386 266.282V257.827H116.155V264.823H119.917V266.282H114.386ZM121.522 266.282V257.827H127.124V259.286H123.292V261.325H126.907V262.684H123.292V264.823H127.124V266.282H121.522ZM132.579 266.499C131.763 266.499 131.058 266.319 130.464 265.959C129.87 265.6 129.413 265.088 129.093 264.424C128.772 263.76 128.612 262.971 128.612 262.057V262.045C128.612 261.131 128.772 260.342 129.093 259.678C129.413 259.014 129.868 258.504 130.458 258.149C131.052 257.79 131.759 257.61 132.579 257.61C133.247 257.61 133.847 257.741 134.378 258.002C134.913 258.264 135.345 258.625 135.673 259.086C136.001 259.547 136.192 260.075 136.247 260.668V260.745H134.53L134.524 260.704C134.466 260.387 134.347 260.11 134.167 259.872C133.987 259.629 133.761 259.442 133.487 259.309C133.218 259.176 132.915 259.11 132.579 259.11C132.138 259.11 131.755 259.229 131.431 259.467C131.106 259.702 130.856 260.04 130.681 260.481C130.509 260.918 130.423 261.44 130.423 262.045V262.057C130.423 262.659 130.509 263.18 130.681 263.622C130.856 264.063 131.106 264.403 131.431 264.641C131.755 264.879 132.14 264.999 132.585 264.999C132.925 264.999 133.228 264.938 133.493 264.817C133.763 264.692 133.985 264.518 134.161 264.295C134.341 264.069 134.46 263.805 134.519 263.504L134.53 263.452H136.253V263.522C136.19 264.112 135.997 264.629 135.673 265.075C135.349 265.52 134.923 265.87 134.396 266.124C133.868 266.374 133.263 266.499 132.579 266.499ZM139.757 266.282V259.286H137.22V257.827H144.063V259.286H141.526V266.282H139.757ZM149.606 263.616V262.233H151.774C152.282 262.233 152.677 262.104 152.958 261.846C153.243 261.584 153.386 261.213 153.386 260.733V260.721C153.386 260.241 153.243 259.872 152.958 259.614C152.677 259.356 152.282 259.227 151.774 259.227H149.606V257.827H152.208C152.802 257.827 153.321 257.948 153.767 258.19C154.212 258.428 154.558 258.764 154.804 259.198C155.054 259.631 155.179 260.137 155.179 260.715V260.727C155.179 261.309 155.054 261.817 154.804 262.25C154.558 262.684 154.212 263.02 153.767 263.258C153.321 263.497 152.802 263.616 152.208 263.616H149.606ZM148.722 266.282V257.827H150.491V266.282H148.722ZM160.487 266.499C159.858 266.499 159.294 266.397 158.794 266.194C158.294 265.987 157.868 265.692 157.517 265.309C157.169 264.922 156.901 264.456 156.714 263.909C156.526 263.358 156.433 262.739 156.433 262.051V262.04C156.433 261.133 156.597 260.35 156.925 259.69C157.253 259.026 157.718 258.514 158.319 258.155C158.921 257.792 159.63 257.61 160.446 257.61C161.114 257.61 161.712 257.729 162.239 257.967C162.767 258.206 163.196 258.538 163.528 258.963C163.864 259.389 164.073 259.883 164.155 260.446L164.167 260.504H162.409L162.397 260.446C162.28 260.024 162.05 259.696 161.706 259.461C161.362 259.227 160.942 259.11 160.446 259.11C159.993 259.11 159.601 259.229 159.269 259.467C158.94 259.702 158.687 260.038 158.507 260.475C158.327 260.909 158.237 261.424 158.237 262.022V262.034C158.237 262.491 158.29 262.903 158.396 263.27C158.501 263.633 158.653 263.944 158.853 264.202C159.052 264.459 159.292 264.657 159.573 264.793C159.854 264.93 160.169 264.999 160.517 264.999C160.903 264.999 161.245 264.924 161.542 264.776C161.839 264.627 162.071 264.42 162.239 264.155C162.407 263.889 162.497 263.579 162.509 263.223L162.515 263.065H160.687V261.776H164.237V262.848C164.237 263.407 164.151 263.911 163.979 264.36C163.808 264.809 163.558 265.194 163.229 265.514C162.901 265.831 162.505 266.075 162.04 266.247C161.579 266.415 161.062 266.499 160.487 266.499ZM172.054 266.499C171.382 266.499 170.798 266.397 170.302 266.194C169.806 265.991 169.415 265.706 169.13 265.338C168.849 264.967 168.69 264.532 168.655 264.032L168.649 263.938H170.354L170.36 263.997C170.384 264.208 170.47 264.393 170.618 264.553C170.771 264.709 170.974 264.833 171.228 264.922C171.481 265.012 171.772 265.057 172.101 265.057C172.417 265.057 172.694 265.01 172.933 264.917C173.171 264.823 173.356 264.694 173.489 264.53C173.626 264.362 173.694 264.17 173.694 263.956V263.95C173.694 263.672 173.581 263.45 173.354 263.282C173.132 263.114 172.757 262.975 172.229 262.866L171.339 262.684C170.46 262.504 169.821 262.209 169.423 261.799C169.024 261.389 168.825 260.864 168.825 260.223V260.217C168.825 259.694 168.964 259.237 169.241 258.846C169.519 258.456 169.899 258.153 170.384 257.938C170.868 257.719 171.423 257.61 172.048 257.61C172.704 257.61 173.267 257.717 173.735 257.932C174.208 258.143 174.577 258.434 174.843 258.805C175.108 259.172 175.259 259.592 175.294 260.065L175.3 260.141H173.636L173.624 260.071C173.589 259.868 173.503 259.69 173.366 259.538C173.233 259.385 173.054 259.266 172.827 259.18C172.604 259.09 172.345 259.045 172.048 259.045C171.759 259.045 171.505 259.088 171.286 259.174C171.067 259.26 170.897 259.381 170.776 259.538C170.655 259.69 170.595 259.872 170.595 260.083V260.088C170.595 260.362 170.704 260.586 170.923 260.762C171.146 260.934 171.505 261.071 172.001 261.172L172.897 261.354C173.495 261.475 173.981 261.639 174.356 261.846C174.735 262.053 175.015 262.313 175.194 262.625C175.374 262.938 175.464 263.315 175.464 263.756V263.762C175.464 264.321 175.325 264.805 175.048 265.215C174.774 265.622 174.382 265.938 173.87 266.165C173.362 266.387 172.757 266.499 172.054 266.499ZM177.14 266.282V257.827H182.741V259.286H178.909V261.325H182.524V262.684H178.909V264.823H182.741V266.282H177.14ZM184.001 266.282L186.937 257.827H188.442V259.514H187.927L185.858 266.282H184.001ZM185.571 264.231L186.005 262.907H189.913L190.347 264.231H185.571ZM190.095 266.282L188.032 259.514V257.827H189.017L191.958 266.282H190.095ZM194.542 266.282V259.286H192.005V257.827H198.849V259.286H196.312V266.282H194.542ZM203.437 266.499C202.765 266.499 202.181 266.397 201.685 266.194C201.188 265.991 200.798 265.706 200.513 265.338C200.231 264.967 200.073 264.532 200.038 264.032L200.032 263.938H201.737L201.743 263.997C201.767 264.208 201.853 264.393 202.001 264.553C202.153 264.709 202.356 264.833 202.61 264.922C202.864 265.012 203.155 265.057 203.483 265.057C203.8 265.057 204.077 265.01 204.315 264.917C204.554 264.823 204.739 264.694 204.872 264.53C205.009 264.362 205.077 264.17 205.077 263.956V263.95C205.077 263.672 204.964 263.45 204.737 263.282C204.515 263.114 204.14 262.975 203.612 262.866L202.722 262.684C201.843 262.504 201.204 262.209 200.806 261.799C200.407 261.389 200.208 260.864 200.208 260.223V260.217C200.208 259.694 200.347 259.237 200.624 258.846C200.901 258.456 201.282 258.153 201.767 257.938C202.251 257.719 202.806 257.61 203.431 257.61C204.087 257.61 204.649 257.717 205.118 257.932C205.591 258.143 205.96 258.434 206.226 258.805C206.491 259.172 206.642 259.592 206.677 260.065L206.683 260.141H205.019L205.007 260.071C204.972 259.868 204.886 259.69 204.749 259.538C204.616 259.385 204.437 259.266 204.21 259.18C203.987 259.09 203.728 259.045 203.431 259.045C203.142 259.045 202.888 259.088 202.669 259.174C202.45 259.26 202.28 259.381 202.159 259.538C202.038 259.69 201.978 259.872 201.978 260.083V260.088C201.978 260.362 202.087 260.586 202.306 260.762C202.528 260.934 202.888 261.071 203.384 261.172L204.28 261.354C204.878 261.475 205.364 261.639 205.739 261.846C206.118 262.053 206.397 262.313 206.577 262.625C206.757 262.938 206.847 263.315 206.847 263.756V263.762C206.847 264.321 206.708 264.805 206.431 265.215C206.157 265.622 205.765 265.938 205.253 266.165C204.745 266.387 204.14 266.499 203.437 266.499ZM209.583 266.428C209.286 266.428 209.04 266.331 208.845 266.135C208.649 265.94 208.552 265.698 208.552 265.409C208.552 265.12 208.649 264.879 208.845 264.688C209.04 264.493 209.286 264.395 209.583 264.395C209.888 264.395 210.136 264.493 210.327 264.688C210.519 264.879 210.614 265.12 210.614 265.409C210.614 265.698 210.519 265.94 210.327 266.135C210.136 266.331 209.888 266.428 209.583 266.428Z" fill="black"/>
<rect x="389.3" y="232.354" width="104" height="35" rx="17.5" fill="black"/>
<path d="M411.563 254.354H409.585L412.598 245.627H414.976L417.984 254.354H416.007L413.821 247.622H413.753L411.563 254.354ZM411.439 250.924H416.109V252.364H411.439V250.924ZM419.001 256.809V247.809H420.791V248.908H420.872C420.951 248.732 421.066 248.553 421.217 248.372C421.37 248.187 421.569 248.033 421.813 247.911C422.06 247.786 422.367 247.724 422.734 247.724C423.211 247.724 423.651 247.849 424.055 248.099C424.458 248.346 424.781 248.72 425.022 249.22C425.264 249.717 425.384 250.34 425.384 251.09C425.384 251.82 425.266 252.437 425.031 252.94C424.798 253.44 424.479 253.819 424.076 254.078C423.676 254.333 423.227 254.461 422.729 254.461C422.377 254.461 422.078 254.403 421.83 254.286C421.586 254.17 421.386 254.024 421.229 253.847C421.073 253.668 420.954 253.488 420.872 253.306H420.816V256.809H419.001ZM420.778 251.082C420.778 251.471 420.832 251.81 420.94 252.1C421.048 252.39 421.204 252.616 421.408 252.778C421.613 252.937 421.862 253.016 422.154 253.016C422.45 253.016 422.7 252.935 422.904 252.774C423.109 252.609 423.264 252.381 423.369 252.092C423.477 251.799 423.531 251.462 423.531 251.082C423.531 250.704 423.478 250.372 423.373 250.085C423.268 249.798 423.113 249.573 422.908 249.411C422.704 249.249 422.453 249.168 422.154 249.168C421.859 249.168 421.609 249.247 421.404 249.403C421.203 249.559 421.048 249.781 420.94 250.068C420.832 250.354 420.778 250.693 420.778 251.082ZM426.595 256.809V247.809H428.384V248.908H428.465C428.545 248.732 428.66 248.553 428.81 248.372C428.964 248.187 429.163 248.033 429.407 247.911C429.654 247.786 429.961 247.724 430.328 247.724C430.805 247.724 431.245 247.849 431.649 248.099C432.052 248.346 432.374 248.72 432.616 249.22C432.857 249.717 432.978 250.34 432.978 251.09C432.978 251.82 432.86 252.437 432.624 252.94C432.391 253.44 432.073 253.819 431.67 254.078C431.269 254.333 430.82 254.461 430.323 254.461C429.971 254.461 429.671 254.403 429.424 254.286C429.18 254.17 428.979 254.024 428.823 253.847C428.667 253.668 428.548 253.488 428.465 253.306H428.41V256.809H426.595ZM428.372 251.082C428.372 251.471 428.426 251.81 428.533 252.1C428.641 252.39 428.798 252.616 429.002 252.778C429.207 252.937 429.455 253.016 429.748 253.016C430.043 253.016 430.293 252.935 430.498 252.774C430.703 252.609 430.857 252.381 430.962 252.092C431.07 251.799 431.124 251.462 431.124 251.082C431.124 250.704 431.072 250.372 430.967 250.085C430.862 249.798 430.707 249.573 430.502 249.411C430.298 249.249 430.046 249.168 429.748 249.168C429.453 249.168 429.203 249.247 428.998 249.403C428.796 249.559 428.641 249.781 428.533 250.068C428.426 250.354 428.372 250.693 428.372 251.082ZM436.004 245.627V254.354H434.188V245.627H436.004ZM438.579 256.809C438.348 256.809 438.133 256.791 437.931 256.754C437.732 256.72 437.567 256.676 437.437 256.622L437.846 255.266C438.059 255.332 438.25 255.367 438.421 255.373C438.594 255.379 438.743 255.339 438.868 255.254C438.996 255.168 439.1 255.024 439.179 254.819L439.286 254.542L436.938 247.809H438.847L440.202 252.616H440.27L441.638 247.809H443.56L441.016 255.062C440.894 255.414 440.728 255.721 440.517 255.982C440.31 256.247 440.047 256.45 439.729 256.592C439.411 256.737 439.027 256.809 438.579 256.809ZM454.6 245.627V254.354H453.006L449.21 248.862H449.146V254.354H447.301V245.627H448.92L452.687 251.116H452.764V245.627H454.6ZM459.048 254.482C458.386 254.482 457.814 254.342 457.331 254.06C456.851 253.776 456.48 253.381 456.218 252.876C455.957 252.367 455.826 251.778 455.826 251.107C455.826 250.431 455.957 249.84 456.218 249.335C456.48 248.826 456.851 248.431 457.331 248.15C457.814 247.866 458.386 247.724 459.048 247.724C459.71 247.724 460.281 247.866 460.761 248.15C461.244 248.431 461.616 248.826 461.878 249.335C462.139 249.84 462.27 250.431 462.27 251.107C462.27 251.778 462.139 252.367 461.878 252.876C461.616 253.381 461.244 253.776 460.761 254.06C460.281 254.342 459.71 254.482 459.048 254.482ZM459.057 253.076C459.358 253.076 459.609 252.991 459.811 252.82C460.013 252.647 460.165 252.411 460.267 252.113C460.372 251.815 460.424 251.475 460.424 251.095C460.424 250.714 460.372 250.374 460.267 250.076C460.165 249.778 460.013 249.542 459.811 249.369C459.609 249.195 459.358 249.109 459.057 249.109C458.753 249.109 458.497 249.195 458.29 249.369C458.085 249.542 457.93 249.778 457.825 250.076C457.723 250.374 457.672 250.714 457.672 251.095C457.672 251.475 457.723 251.815 457.825 252.113C457.93 252.411 458.085 252.647 458.29 252.82C458.497 252.991 458.753 253.076 459.057 253.076ZM464.577 254.354L462.796 247.809H464.633L465.647 252.207H465.706L466.763 247.809H468.566L469.64 252.181H469.695L470.692 247.809H472.525L470.748 254.354H468.826L467.701 250.238H467.62L466.495 254.354H464.577Z" fill="#F8F8F8"/>
</g>
<defs>
<filter id="filter0_f_2160_243" x="-0.00019455" y="80.7" width="584.6" height="261.6" filterUnits="userSpaceOnUse" color-interpolation-filters="sRGB">
<feFlood flood-opacity="0" result="BackgroundImageFix"/>
<feBlend mode="normal" in="SourceGraphic" in2="BackgroundImageFix" result="shape"/>
<feGaussianBlur stdDeviation="21.15" result="effect1_foregroundBlur_2160_243"/>
</filter>
<filter id="filter1_d_2160_243" x="35.9998" y="56.7" width="512.6" height="309.078" filterUnits="userSpaceOnUse" color-interpolation-filters="sRGB">
<feFlood flood-opacity="0" result="BackgroundImageFix"/>
<feColorMatrix in="SourceAlpha" type="matrix" values="0 0 0 0 0 0 0 0 0 0 0 0 0 0 0 0 0 0 127 0" result="hardAlpha"/>
<feOffset/>
<feGaussianBlur stdDeviation="3.15"/>
<feComposite in2="hardAlpha" operator="out"/>
<feColorMatrix type="matrix" values="0 0 0 0 0 0 0 0 0 0 0 0 0 0 0 0 0 0 0.05 0"/>
<feBlend mode="normal" in2="BackgroundImageFix" result="effect1_dropShadow_2160_243"/>
<feBlend mode="normal" in="SourceGraphic" in2="effect1_dropShadow_2160_243" result="shape"/>
</filter>
</defs>
</svg>
