<svg width="233" height="26" viewBox="0 0 233 26" fill="none" xmlns="http://www.w3.org/2000/svg">
<path d="M0 3.14346H9.3369C11.3706 3.14346 12.8929 3.62565 13.9079 4.59394C14.9185 5.56223 15.426 6.94083 15.426 8.72967C15.426 10.565 14.8722 12.0027 13.7683 13.0344C12.6647 14.0704 10.9777 14.5863 8.71099 14.5863H5.63249V21.3098H0V3.14346ZM5.63249 10.9074H7.01516C8.10642 10.9074 8.87175 10.7171 9.31138 10.3407C9.75118 9.9644 9.97095 9.48236 9.97095 8.89446C9.97095 8.32361 9.78082 7.84146 9.39594 7.44384C9.01538 7.0464 8.2966 6.84787 7.23927 6.84787H5.63249V10.9074Z" fill="#F8F8F8"/>
<path d="M20.729 12.4041L15.908 11.897C16.09 11.0511 16.3519 10.3875 16.6946 9.90512C17.0373 9.41882 17.5274 9.00021 18.1746 8.64495C18.6354 8.38717 19.2698 8.18826 20.0774 8.04878C20.885 7.90929 21.7606 7.8375 22.7034 7.8375C24.2131 7.8375 25.4226 7.92185 26.3403 8.09113C27.2537 8.26023 28.019 8.61551 28.6277 9.15243C29.0592 9.52492 29.3973 10.0533 29.6429 10.734C29.8923 11.4149 30.015 12.0661 30.015 12.6876V18.5063C30.015 19.1283 30.053 19.6142 30.1332 19.9652C30.2093 20.3161 30.3829 20.7646 30.6448 21.3099H25.9217C25.7314 20.9717 25.6086 20.7179 25.5493 20.5402C25.4944 20.3627 25.4354 20.088 25.376 19.7116C24.7165 20.3456 24.061 20.7983 23.4054 21.0688C22.5131 21.4325 21.4771 21.6145 20.2973 21.6145C18.7286 21.6145 17.5358 21.2507 16.7242 20.5194C15.9079 19.7918 15.5021 18.8913 15.5021 17.8252C15.5021 16.8233 15.7939 15.9987 16.3814 15.3517C16.9691 14.7048 18.0518 14.2228 19.6292 13.9097C21.5195 13.5293 22.7458 13.2628 23.3082 13.1064C23.8705 12.9542 24.4667 12.7554 25.0927 12.5061C25.0927 11.8844 24.9658 11.4531 24.708 11.2034C24.4542 10.9538 24.0058 10.8314 23.3635 10.8314C22.5384 10.8314 21.9213 10.9625 21.5068 11.2287C21.1855 11.4403 20.9275 11.8292 20.729 12.4041ZM25.0927 15.0432C24.3992 15.2923 23.6761 15.5125 22.9195 15.707C21.8957 15.9816 21.2448 16.2527 20.9737 16.5189C20.6904 16.7936 20.5512 17.1067 20.5512 17.4576C20.5512 17.8594 20.6905 18.1893 20.9659 18.4429C21.2448 18.6966 21.6506 18.8235 22.1875 18.8235C22.7501 18.8235 23.2744 18.6841 23.7607 18.409C24.2426 18.1344 24.5852 17.7999 24.7881 17.4026C24.9915 17.0052 25.0927 16.4893 25.0927 15.8551V15.0432Z" fill="#F8F8F8"/>
<path d="M31.6122 8.14197H36.3398V10.2898C36.7963 9.35545 37.2658 8.71279 37.7478 8.36166C38.2341 8.01089 38.8303 7.8375 39.5408 7.8375C40.2893 7.8375 41.1053 8.06981 41.989 8.53528L40.4246 12.1167C39.8283 11.8674 39.3548 11.7448 39.008 11.7448C38.3485 11.7448 37.8325 12.0194 37.4688 12.5651C36.9486 13.3347 36.6865 14.7768 36.6865 16.8868V21.3099H31.6122V8.14197Z" fill="#F8F8F8"/>
<path d="M56.0444 21.3098H51.3294V19.1871C50.6275 20.062 49.9212 20.6837 49.2109 21.056C48.4962 21.4281 47.6209 21.6142 46.5806 21.6142C45.1935 21.6142 44.111 21.2001 43.3202 20.3668C42.5338 19.538 42.1405 18.2565 42.1405 16.5272V8.14166H47.2147V15.3979C47.2147 16.2228 47.3669 16.8105 47.6716 17.1615C47.976 17.5083 48.403 17.6815 48.953 17.6815C49.5493 17.6815 50.0399 17.4492 50.4246 16.9882C50.8049 16.5227 50.9952 15.6898 50.9952 14.4888V8.14166H56.0444V21.3098Z" fill="#F8F8F8"/>
<path d="M57.8212 3.14346H62.8704V21.3098H57.8212V3.14346Z" fill="#F8F8F8"/>
<path d="M69.3872 0.916702C70.1713 0.916702 70.9368 1.11782 71.6854 1.52137C72.4318 1.92329 73.0155 2.5004 73.4318 3.24896C73.8485 3.99951 74.0576 4.78181 74.0576 5.59357C74.0576 6.39922 73.8528 7.1751 73.4402 7.9172C73.0301 8.66164 72.455 9.23879 71.7129 9.6488C70.9708 10.0611 70.1948 10.2663 69.3872 10.2663C68.5772 10.2663 67.8014 10.0611 67.0591 9.6488C66.317 9.23879 65.7399 8.66164 65.3274 7.9172C64.9152 7.1751 64.7082 6.39922 64.7082 5.59357C64.7082 4.78181 64.9173 3.99951 65.336 3.24896C65.7567 2.5004 66.3404 1.92329 67.0866 1.52137C67.835 1.11782 68.6006 0.916702 69.3872 0.916702ZM69.3872 1.69064C68.7295 1.69064 68.089 1.8595 67.4674 2.19573C66.8457 2.53178 66.3594 3.01414 66.0084 3.64011C65.6573 4.26589 65.4818 4.91716 65.4818 5.59357C65.4818 6.26818 65.6552 6.913 66 7.53034C66.3445 8.14769 66.8265 8.63002 67.4462 8.97451C68.0655 9.31935 68.7128 9.49243 69.3872 9.49243C70.0595 9.49243 70.7064 9.31935 71.3259 8.97451C71.9456 8.63002 72.4275 8.14769 72.7702 7.53034C73.1125 6.913 73.2837 6.26818 73.2837 5.59357C73.2837 4.91716 73.1085 4.26589 72.7594 3.64011C72.4109 3.01414 71.9245 2.53178 71.3007 2.19573C70.6769 1.8595 70.0385 1.69064 69.3872 1.69064ZM67.3342 8.17336V3.14953H69.0638C69.6555 3.14953 70.0826 3.1958 70.3469 3.28914C70.6135 3.38177 70.8227 3.54244 70.9813 3.77509C71.1377 4.00558 71.216 4.25098 71.216 4.51109C71.216 4.87694 71.0851 5.19833 70.8205 5.46903C70.5586 5.74171 70.2096 5.89388 69.7741 5.92763C69.9515 6.00195 70.0955 6.09027 70.201 6.19402C70.4041 6.39059 70.6516 6.7227 70.9454 7.18997L71.5585 8.17336H70.5735L70.125 7.38245C69.7741 6.75865 69.4885 6.36743 69.2729 6.21071C69.125 6.09672 68.9093 6.03967 68.6238 6.042H68.1462V8.17336H67.3342ZM68.1462 5.34407H69.1311C69.6029 5.34407 69.9242 5.27424 70.0954 5.13476C70.2665 4.99528 70.3533 4.80892 70.3533 4.58093C70.3533 4.43266 70.3111 4.29985 70.2287 4.18334C70.1461 4.06504 70.0318 3.97813 69.8859 3.92123C69.7382 3.86396 69.4677 3.83455 69.0701 3.83455H68.1462V5.34407Z" fill="#F8F8F8"/>
<path d="M89.6102 3.14307H91.8582V12.9493C91.8582 14.652 91.6639 16.0071 91.277 17.0108C90.8902 18.0142 90.1949 18.828 89.1883 19.4561C88.1809 20.0885 86.8623 20.4007 85.2273 20.4007C83.6397 20.4007 82.337 20.1277 81.3298 19.5787C80.3184 19.0337 79.5958 18.2392 79.1655 17.2002C78.7316 16.161 78.5176 14.7469 78.5176 12.9493V3.14307H80.7608V12.9371C80.7608 14.4109 80.8994 15.4976 81.1711 16.1925C81.4445 16.8921 81.9182 17.4292 82.5813 17.8087C83.2485 18.1878 84.0663 18.3777 85.0302 18.3777C86.6803 18.3777 87.8575 18.0022 88.5603 17.2515C89.2592 16.5047 89.6102 15.0668 89.6102 12.9371V3.14307ZM95.4017 20.112V7.82077H97.2734V9.56724C98.1778 8.21568 99.4808 7.54022 101.183 7.54022C101.926 7.54022 102.605 7.67465 103.225 7.93907C103.848 8.20834 104.311 8.55553 104.618 8.99013C104.93 9.42096 105.144 9.93457 105.27 10.5271C105.345 10.9142 105.385 11.59 105.385 12.5542V20.112H103.299V12.633C103.299 11.7873 103.221 11.1515 103.059 10.7285C102.897 10.3099 102.609 9.97424 102.198 9.72543C101.783 9.47232 101.301 9.34572 100.745 9.34572C99.8562 9.34572 99.0939 9.6306 98.4459 10.1914C97.8027 10.7565 97.4828 11.823 97.4828 13.3995V20.112H95.4017ZM108.661 5.54131V3.14307H110.745V5.54131H108.661ZM108.661 20.112V7.82077H110.745V20.112H108.661ZM117.402 20.112L112.726 7.82077H114.926L117.563 15.1814C117.847 15.9752 118.109 16.8012 118.349 17.6584C118.535 17.0107 118.792 16.2322 119.124 15.3194L121.856 7.82077H123.997L119.344 20.112H117.402ZM134.317 16.1534L136.469 16.4178C136.13 17.6782 135.502 18.6542 134.586 19.3496C133.666 20.0407 132.493 20.3886 131.068 20.3886C129.271 20.3886 127.845 19.8356 126.794 18.7294C125.741 17.6231 125.215 16.0701 125.215 14.0713C125.215 12.0006 125.748 10.3969 126.81 9.25505C127.876 8.11335 129.255 7.54022 130.953 7.54022C132.596 7.54022 133.938 8.10136 134.977 9.21936C136.019 10.3375 136.541 11.9139 136.541 13.9408C136.541 14.0671 136.537 14.2529 136.529 14.4979H127.368C127.442 15.849 127.825 16.8842 128.512 17.5992C129.2 18.3185 130.053 18.6777 131.079 18.6777C131.841 18.6777 132.493 18.4765 133.034 18.0735C133.575 17.6744 134.001 17.0343 134.317 16.1534ZM127.482 12.7832H134.341C134.25 11.7518 133.985 10.9739 133.555 10.46C132.891 9.6579 132.031 9.25505 130.976 9.25505C130.021 9.25505 129.215 9.57513 128.564 10.2151C127.912 10.8549 127.553 11.7126 127.482 12.7832ZM139.137 20.112V7.82077H141.009V9.6816C141.487 8.8124 141.929 8.23561 142.335 7.95934C142.738 7.68271 143.185 7.54022 143.671 7.54022C144.374 7.54022 145.085 7.76546 145.81 8.21227L145.092 10.1478C144.587 9.84368 144.077 9.69367 143.567 9.69367C143.11 9.69367 142.703 9.8315 142.34 10.1047C141.977 10.3814 141.719 10.76 141.566 11.2465C141.333 11.985 141.218 12.7951 141.218 13.6758V20.112H139.137ZM146.291 16.4417L148.348 16.1178C148.463 16.9432 148.787 17.5757 149.316 18.0178C149.842 18.4565 150.579 18.6777 151.531 18.6777C152.487 18.6777 153.198 18.4804 153.659 18.093C154.122 17.7022 154.355 17.2436 154.355 16.7219C154.355 16.2484 154.149 15.8803 153.739 15.6078C153.454 15.4224 152.743 15.1894 151.611 14.9047C150.086 14.5175 149.024 14.1858 148.435 13.9011C147.847 13.6208 147.397 13.2295 147.093 12.7317C146.788 12.2341 146.634 11.685 146.634 11.0843C146.634 10.5352 146.761 10.0295 147.014 9.5631C147.263 9.09296 147.606 8.7061 148.036 8.39788C148.361 8.16038 148.802 7.95541 149.36 7.78936C149.92 7.62349 150.52 7.54022 151.16 7.54022C152.124 7.54022 152.969 7.68271 153.7 7.95934C154.43 8.23561 154.967 8.6112 155.314 9.08494C155.662 9.56316 155.899 10.1954 156.029 10.9895L153.995 11.2701C153.901 10.6377 153.632 10.1438 153.19 9.7884C152.747 9.43261 152.12 9.25505 151.31 9.25505C150.354 9.25505 149.671 9.41321 149.265 9.72915C148.854 10.0451 148.648 10.4163 148.648 10.8393C148.648 11.1118 148.735 11.3527 148.905 11.5701C149.075 11.7954 149.34 11.9772 149.703 12.1269C149.912 12.2025 150.525 12.3802 151.543 12.6565C153.016 13.0519 154.042 13.3717 154.624 13.6244C155.207 13.8736 155.666 14.2407 155.997 14.7191C156.33 15.1972 156.495 15.7895 156.495 16.5008C156.495 17.1962 156.289 17.8484 155.887 18.4645C155.48 19.0768 154.896 19.551 154.134 19.8869C153.372 20.2224 152.507 20.3886 151.543 20.3886C149.944 20.3886 148.728 20.0567 147.89 19.3929C147.053 18.7292 146.52 17.7454 146.291 16.4417ZM159.052 5.54131V3.14307H161.137V5.54131H159.052ZM159.052 20.112V7.82077H161.137V20.112H159.052ZM168.927 18.2472L169.226 20.0885C168.642 20.2109 168.117 20.2743 167.655 20.2743C166.896 20.2743 166.312 20.1557 165.894 19.9144C165.479 19.6774 165.188 19.3613 165.017 18.9703C164.847 18.5829 164.761 17.7613 164.761 16.5128V9.44074H163.232V7.82077H164.761V4.7746L166.834 3.52649V7.82077H168.927V9.44074H166.834V16.6271C166.834 17.224 166.869 17.6033 166.941 17.7731C167.016 17.943 167.134 18.0774 167.3 18.1799C167.465 18.2788 167.703 18.33 168.011 18.33C168.243 18.33 168.548 18.3025 168.927 18.2472ZM170.943 24.8449L170.71 22.8895C171.168 23.0121 171.563 23.0749 171.903 23.0749C172.365 23.0749 172.736 22.9961 173.012 22.8421C173.292 22.688 173.518 22.4748 173.695 22.1942C173.83 21.989 174.039 21.4713 174.331 20.6453C174.371 20.527 174.434 20.361 174.517 20.1357L169.857 7.82077H172.1L174.659 14.9366C174.987 15.8412 175.287 16.7894 175.548 17.785C175.788 16.8289 176.072 15.8965 176.404 14.9837L179.03 7.82077H181.112L176.439 20.3213C175.938 21.6729 175.548 22.6013 175.271 23.1108C174.9 23.7981 174.477 24.2999 174 24.6201C173.518 24.9399 172.949 25.1017 172.286 25.1017C171.883 25.1017 171.437 25.0151 170.943 24.8449Z" fill="#F8F8F8"/>
<path d="M229.127 0H191.284C189.145 0 187.411 1.73405 187.411 3.87313V21.3252C187.411 23.4643 189.145 25.1982 191.284 25.1982H229.127C231.266 25.1982 233 23.4643 233 21.3252V3.87313C233 1.73405 231.266 0 229.127 0Z" fill="#E73649"/>
<path d="M200.218 14.7509V12.5583H205.881V17.7425C205.33 18.2751 204.532 18.7456 203.485 19.154C202.443 19.5564 201.386 19.7576 200.315 19.7576C198.954 19.7576 197.768 19.4736 196.755 18.9053C195.743 18.3314 194.983 17.5147 194.474 16.4554C193.965 15.39 193.711 14.2331 193.711 12.9843C193.711 11.6291 193.995 10.4248 194.563 9.37143C195.131 8.31787 195.962 7.51004 197.057 6.9478C197.892 6.5159 198.931 6.2998 200.173 6.2998C201.789 6.2998 203.049 6.64011 203.955 7.32064C204.866 7.99543 205.452 8.93032 205.713 10.1259L203.102 10.6142C202.919 9.97496 202.573 9.47196 202.064 9.10504C201.561 8.73219 200.931 8.54582 200.173 8.54582C199.025 8.54582 198.11 8.90969 197.43 9.63762C196.755 10.3655 196.418 11.4457 196.418 12.8778C196.418 14.4225 196.761 15.5824 197.448 16.3577C198.134 17.1271 199.034 17.5116 200.147 17.5116C200.697 17.5116 201.248 17.4052 201.797 17.1921C202.354 16.9733 202.831 16.7099 203.227 16.402V14.7509H200.218ZM219.82 12.9845L217.556 12.5761C217.811 11.6647 218.248 10.9901 218.87 10.5521C219.492 10.1142 220.415 9.89525 221.64 9.89525C222.752 9.89525 223.581 10.0284 224.125 10.2947C224.67 10.5551 225.052 10.8894 225.271 11.2978C225.496 11.7002 225.608 12.4429 225.608 13.526L225.581 16.4376C225.581 17.2662 225.62 17.8787 225.697 18.2753C225.78 18.6659 225.931 19.0861 226.149 19.5358H223.681C223.617 19.3701 223.537 19.1245 223.442 18.7991C223.4 18.6512 223.371 18.5535 223.353 18.5061C222.927 18.9204 222.471 19.2311 221.986 19.4381C221.501 19.6453 220.983 19.7489 220.432 19.7489C219.462 19.7489 218.695 19.4855 218.133 18.9588C217.577 18.4321 217.299 17.7663 217.299 16.9614C217.299 16.4288 217.426 15.9554 217.68 15.5411C217.935 15.1208 218.29 14.8013 218.746 14.5823C219.207 14.3574 219.87 14.1622 220.735 13.9966C221.9 13.7774 222.708 13.5733 223.157 13.3839V13.1355C223.157 12.656 223.039 12.3156 222.803 12.1145C222.566 11.9074 222.119 11.8038 221.462 11.8038C221.019 11.8038 220.672 11.8927 220.424 12.07C220.175 12.2416 219.974 12.5466 219.82 12.9845ZM223.157 15.0085C222.838 15.1149 222.332 15.2422 221.64 15.3901C220.948 15.5382 220.495 15.6831 220.281 15.8251C219.956 16.0559 219.793 16.3489 219.793 16.704C219.793 17.0531 219.924 17.3549 220.184 17.6095C220.444 17.864 220.776 17.9913 221.178 17.9913C221.628 17.9913 222.057 17.8433 222.465 17.5473C222.767 17.3224 222.966 17.0474 223.06 16.7218C223.126 16.5087 223.157 16.1034 223.157 15.5056V15.0085ZM206.992 14.6889C206.992 13.8603 207.196 13.0585 207.604 12.2833C208.012 11.5078 208.589 10.9162 209.335 10.5078C210.087 10.0994 210.924 9.89525 211.848 9.89525C213.274 9.89525 214.443 10.3597 215.354 11.289C216.266 12.2122 216.721 13.381 216.721 14.7954C216.721 16.2216 216.26 17.4054 215.336 18.3464C214.419 19.2813 213.262 19.7489 211.865 19.7489C211.001 19.7489 210.176 19.5536 209.388 19.1629C208.607 18.7723 208.012 18.2013 207.604 17.4496C207.196 16.6921 206.992 15.7719 206.992 14.6889ZM209.548 14.822C209.548 15.757 209.77 16.4733 210.215 16.9702C210.658 17.4675 211.205 17.716 211.856 17.716C212.507 17.716 213.052 17.4675 213.489 16.9702C213.933 16.4733 214.156 15.7513 214.156 14.8042C214.156 13.881 213.933 13.1708 213.489 12.6739C213.052 12.1767 212.507 11.928 211.856 11.928C211.205 11.928 210.658 12.1767 210.215 12.6739C209.77 13.1708 209.548 13.8871 209.548 14.822Z" fill="white"/>
</svg>
