<svg width="644" height="64" viewBox="0 0 644 64" fill="none" xmlns="http://www.w3.org/2000/svg">
<rect width="644" height="64" rx="32" fill="white" fill-opacity="0.01"/>
<rect x="0.5" y="0.5" width="643" height="63" rx="31.5" stroke="url(#paint0_linear_2683_2210)" stroke-opacity="0.16"/>
<rect x="8" y="8" width="200" height="48" rx="24" fill="#E73649"/>
<path d="M46.082 35.944H40.844L39.944 38.5H37.802L42.284 25.972H44.66L49.142 38.5H46.982L46.082 35.944ZM45.506 34.27L43.472 28.456L41.42 34.27H45.506ZM52.4228 30.04C52.7708 29.584 53.2448 29.2 53.8448 28.888C54.4448 28.576 55.1228 28.42 55.8788 28.42C56.7428 28.42 57.5288 28.636 58.2368 29.068C58.9568 29.488 59.5208 30.082 59.9288 30.85C60.3368 31.618 60.5408 32.5 60.5408 33.496C60.5408 34.492 60.3368 35.386 59.9288 36.178C59.5208 36.958 58.9568 37.57 58.2368 38.014C57.5288 38.446 56.7428 38.662 55.8788 38.662C55.1228 38.662 54.4508 38.512 53.8628 38.212C53.2748 37.9 52.7948 37.516 52.4228 37.06V43.216H50.3708V28.582H52.4228V30.04ZM58.4528 33.496C58.4528 32.812 58.3088 32.224 58.0208 31.732C57.7448 31.228 57.3728 30.85 56.9048 30.598C56.4488 30.334 55.9568 30.202 55.4288 30.202C54.9128 30.202 54.4208 30.334 53.9528 30.598C53.4968 30.862 53.1248 31.246 52.8368 31.75C52.5608 32.254 52.4228 32.848 52.4228 33.532C52.4228 34.216 52.5608 34.816 52.8368 35.332C53.1248 35.836 53.4968 36.22 53.9528 36.484C54.4208 36.748 54.9128 36.88 55.4288 36.88C55.9568 36.88 56.4488 36.748 56.9048 36.484C57.3728 36.208 57.7448 35.812 58.0208 35.296C58.3088 34.78 58.4528 34.18 58.4528 33.496ZM63.902 30.04C64.25 29.584 64.724 29.2 65.324 28.888C65.924 28.576 66.602 28.42 67.358 28.42C68.222 28.42 69.008 28.636 69.716 29.068C70.436 29.488 71 30.082 71.408 30.85C71.816 31.618 72.02 32.5 72.02 33.496C72.02 34.492 71.816 35.386 71.408 36.178C71 36.958 70.436 37.57 69.716 38.014C69.008 38.446 68.222 38.662 67.358 38.662C66.602 38.662 65.93 38.512 65.342 38.212C64.754 37.9 64.274 37.516 63.902 37.06V43.216H61.85V28.582H63.902V30.04ZM69.932 33.496C69.932 32.812 69.788 32.224 69.5 31.732C69.224 31.228 68.852 30.85 68.384 30.598C67.928 30.334 67.436 30.202 66.908 30.202C66.392 30.202 65.9 30.334 65.432 30.598C64.976 30.862 64.604 31.246 64.316 31.75C64.04 32.254 63.902 32.848 63.902 33.532C63.902 34.216 64.04 34.816 64.316 35.332C64.604 35.836 64.976 36.22 65.432 36.484C65.9 36.748 66.392 36.88 66.908 36.88C67.436 36.88 67.928 36.748 68.384 36.484C68.852 36.208 69.224 35.812 69.5 35.296C69.788 34.78 69.932 34.18 69.932 33.496ZM75.3813 25.18V38.5H73.3293V25.18H75.3813ZM86.2834 28.582L80.1994 43.162H78.0754L80.0914 38.338L76.1854 28.582H78.4714L81.2614 36.142L84.1594 28.582H86.2834ZM95.2257 30.256H93.3897V38.5H91.3197V30.256H90.1497V28.582H91.3197V27.88C91.3197 26.74 91.6197 25.912 92.2197 25.396C92.8317 24.868 93.7857 24.604 95.0817 24.604V26.314C94.4577 26.314 94.0197 26.434 93.7677 26.674C93.5157 26.902 93.3897 27.304 93.3897 27.88V28.582H95.2257V30.256ZM100.626 38.662C99.6903 38.662 98.8443 38.452 98.0883 38.032C97.3323 37.6 96.7383 37 96.3063 36.232C95.8743 35.452 95.6583 34.552 95.6583 33.532C95.6583 32.524 95.8803 31.63 96.3243 30.85C96.7683 30.07 97.3743 29.47 98.1423 29.05C98.9103 28.63 99.7683 28.42 100.716 28.42C101.664 28.42 102.522 28.63 103.29 29.05C104.058 29.47 104.664 30.07 105.108 30.85C105.552 31.63 105.774 32.524 105.774 33.532C105.774 34.54 105.546 35.434 105.09 36.214C104.634 36.994 104.01 37.6 103.218 38.032C102.438 38.452 101.574 38.662 100.626 38.662ZM100.626 36.88C101.154 36.88 101.646 36.754 102.102 36.502C102.57 36.25 102.948 35.872 103.236 35.368C103.524 34.864 103.668 34.252 103.668 33.532C103.668 32.812 103.53 32.206 103.254 31.714C102.978 31.21 102.612 30.832 102.156 30.58C101.7 30.328 101.208 30.202 100.68 30.202C100.152 30.202 99.6603 30.328 99.2043 30.58C98.7603 30.832 98.4063 31.21 98.1423 31.714C97.8783 32.206 97.7463 32.812 97.7463 33.532C97.7463 34.6 98.0163 35.428 98.5563 36.016C99.1083 36.592 99.7983 36.88 100.626 36.88ZM109.135 30.022C109.435 29.518 109.831 29.128 110.323 28.852C110.827 28.564 111.421 28.42 112.105 28.42V30.544H111.583C110.779 30.544 110.167 30.748 109.747 31.156C109.339 31.564 109.135 32.272 109.135 33.28V38.5H107.083V28.582H109.135V30.022ZM118.091 35.71C119.243 34.714 120.149 33.898 120.809 33.262C121.481 32.614 122.039 31.942 122.483 31.246C122.927 30.55 123.149 29.854 123.149 29.158C123.149 28.438 122.975 27.874 122.627 27.466C122.291 27.058 121.757 26.854 121.025 26.854C120.317 26.854 119.765 27.082 119.369 27.538C118.985 27.982 118.781 28.582 118.757 29.338H116.777C116.813 27.97 117.221 26.926 118.001 26.206C118.793 25.474 119.795 25.108 121.007 25.108C122.315 25.108 123.335 25.468 124.067 26.188C124.811 26.908 125.183 27.868 125.183 29.068C125.183 29.932 124.961 30.766 124.517 31.57C124.085 32.362 123.563 33.076 122.951 33.712C122.351 34.336 121.583 35.062 120.647 35.89L119.837 36.61H125.543V38.32H116.795V36.826L118.091 35.71ZM126.625 31.768C126.625 29.692 126.973 28.072 127.669 26.908C128.377 25.732 129.589 25.144 131.305 25.144C133.021 25.144 134.227 25.732 134.923 26.908C135.631 28.072 135.985 29.692 135.985 31.768C135.985 33.868 135.631 35.512 134.923 36.7C134.227 37.876 133.021 38.464 131.305 38.464C129.589 38.464 128.377 37.876 127.669 36.7C126.973 35.512 126.625 33.868 126.625 31.768ZM133.969 31.768C133.969 30.796 133.903 29.974 133.771 29.302C133.651 28.63 133.399 28.084 133.015 27.664C132.631 27.232 132.061 27.016 131.305 27.016C130.549 27.016 129.979 27.232 129.595 27.664C129.211 28.084 128.953 28.63 128.821 29.302C128.701 29.974 128.641 30.796 128.641 31.768C128.641 32.776 128.701 33.622 128.821 34.306C128.941 34.99 129.193 35.542 129.577 35.962C129.973 36.382 130.549 36.592 131.305 36.592C132.061 36.592 132.631 36.382 133.015 35.962C133.411 35.542 133.669 34.99 133.789 34.306C133.909 33.622 133.969 32.776 133.969 31.768ZM138.571 35.71C139.723 34.714 140.629 33.898 141.289 33.262C141.961 32.614 142.519 31.942 142.963 31.246C143.407 30.55 143.629 29.854 143.629 29.158C143.629 28.438 143.455 27.874 143.107 27.466C142.771 27.058 142.237 26.854 141.505 26.854C140.797 26.854 140.245 27.082 139.849 27.538C139.465 27.982 139.261 28.582 139.237 29.338H137.257C137.293 27.97 137.701 26.926 138.481 26.206C139.273 25.474 140.275 25.108 141.487 25.108C142.795 25.108 143.815 25.468 144.547 26.188C145.291 26.908 145.663 27.868 145.663 29.068C145.663 29.932 145.441 30.766 144.997 31.57C144.565 32.362 144.043 33.076 143.431 33.712C142.831 34.336 142.063 35.062 141.127 35.89L140.317 36.61H146.023V38.32H137.275V36.826L138.571 35.71ZM154.161 28.42C154.029 27.868 153.789 27.454 153.441 27.178C153.093 26.902 152.607 26.764 151.983 26.764C151.035 26.764 150.327 27.13 149.859 27.862C149.391 28.582 149.145 29.782 149.121 31.462C149.433 30.934 149.889 30.526 150.489 30.238C151.089 29.95 151.737 29.806 152.433 29.806C153.225 29.806 153.921 29.98 154.521 30.328C155.133 30.664 155.607 31.156 155.943 31.804C156.291 32.452 156.465 33.226 156.465 34.126C156.465 34.966 156.297 35.716 155.961 36.376C155.637 37.036 155.151 37.558 154.503 37.942C153.855 38.314 153.075 38.5 152.163 38.5C150.927 38.5 149.955 38.23 149.247 37.69C148.551 37.138 148.059 36.364 147.771 35.368C147.495 34.372 147.357 33.13 147.357 31.642C147.357 27.25 148.905 25.054 152.001 25.054C153.201 25.054 154.143 25.378 154.827 26.026C155.523 26.674 155.931 27.472 156.051 28.42H154.161ZM151.983 31.534C151.251 31.534 150.627 31.756 150.111 32.2C149.607 32.632 149.355 33.262 149.355 34.09C149.355 34.918 149.589 35.578 150.057 36.07C150.537 36.55 151.203 36.79 152.055 36.79C152.811 36.79 153.405 36.556 153.837 36.088C154.281 35.62 154.503 34.996 154.503 34.216C154.503 33.4 154.287 32.752 153.855 32.272C153.435 31.78 152.811 31.534 151.983 31.534ZM172.816 34.522C172.972 34.162 173.134 33.844 173.302 33.568C173.47 33.28 173.638 33.034 173.806 32.83H163.564V31.858H173.806C173.638 31.642 173.47 31.396 173.302 31.12C173.134 30.832 172.972 30.514 172.816 30.166H173.662C174.418 31.042 175.216 31.69 176.056 32.11V32.578C175.216 32.986 174.418 33.634 173.662 34.522H172.816Z" fill="#F8F8F8"/>
<rect x="222" y="8" width="200" height="48" rx="24" fill="white" fill-opacity="0.7"/>
<path d="M262.046 25.99V27.664H258.716V38.5H256.664V27.664H253.316V25.99H262.046ZM262.72 33.496C262.72 32.5 262.924 31.618 263.332 30.85C263.752 30.082 264.316 29.488 265.024 29.068C265.744 28.636 266.536 28.42 267.4 28.42C268.18 28.42 268.858 28.576 269.434 28.888C270.022 29.188 270.49 29.566 270.838 30.022V28.582H272.908V38.5H270.838V37.024C270.49 37.492 270.016 37.882 269.416 38.194C268.816 38.506 268.132 38.662 267.364 38.662C266.512 38.662 265.732 38.446 265.024 38.014C264.316 37.57 263.752 36.958 263.332 36.178C262.924 35.386 262.72 34.492 262.72 33.496ZM270.838 33.532C270.838 32.848 270.694 32.254 270.406 31.75C270.13 31.246 269.764 30.862 269.308 30.598C268.852 30.334 268.36 30.202 267.832 30.202C267.304 30.202 266.812 30.334 266.356 30.598C265.9 30.85 265.528 31.228 265.24 31.732C264.964 32.224 264.826 32.812 264.826 33.496C264.826 34.18 264.964 34.78 265.24 35.296C265.528 35.812 265.9 36.208 266.356 36.484C266.824 36.748 267.316 36.88 267.832 36.88C268.36 36.88 268.852 36.748 269.308 36.484C269.764 36.22 270.13 35.836 270.406 35.332C270.694 34.816 270.838 34.216 270.838 33.532ZM276.935 25.18V38.5H274.883V25.18H276.935ZM282.833 33.55L287.405 38.5H284.633L280.961 34.234V38.5H278.909V25.18H280.961V32.92L284.561 28.582H287.405L282.833 33.55ZM294.506 30.256V35.746C294.506 36.118 294.59 36.388 294.758 36.556C294.938 36.712 295.238 36.79 295.658 36.79H296.918V38.5H295.298C294.374 38.5 293.666 38.284 293.174 37.852C292.682 37.42 292.436 36.718 292.436 35.746V30.256H291.266V28.582H292.436V26.116H294.506V28.582H296.918V30.256H294.506ZM302.391 38.662C301.455 38.662 300.609 38.452 299.853 38.032C299.097 37.6 298.503 37 298.071 36.232C297.639 35.452 297.423 34.552 297.423 33.532C297.423 32.524 297.645 31.63 298.089 30.85C298.533 30.07 299.139 29.47 299.907 29.05C300.675 28.63 301.533 28.42 302.481 28.42C303.429 28.42 304.287 28.63 305.055 29.05C305.823 29.47 306.429 30.07 306.873 30.85C307.317 31.63 307.539 32.524 307.539 33.532C307.539 34.54 307.311 35.434 306.855 36.214C306.399 36.994 305.775 37.6 304.983 38.032C304.203 38.452 303.339 38.662 302.391 38.662ZM302.391 36.88C302.919 36.88 303.411 36.754 303.867 36.502C304.335 36.25 304.713 35.872 305.001 35.368C305.289 34.864 305.433 34.252 305.433 33.532C305.433 32.812 305.295 32.206 305.019 31.714C304.743 31.21 304.377 30.832 303.921 30.58C303.465 30.328 302.973 30.202 302.445 30.202C301.917 30.202 301.425 30.328 300.969 30.58C300.525 30.832 300.171 31.21 299.907 31.714C299.643 32.206 299.511 32.812 299.511 33.532C299.511 34.6 299.781 35.428 300.321 36.016C300.873 36.592 301.563 36.88 302.391 36.88ZM312.119 32.218C312.119 30.994 312.401 29.896 312.965 28.924C313.541 27.952 314.315 27.196 315.287 26.656C316.271 26.104 317.345 25.828 318.509 25.828C319.841 25.828 321.023 26.158 322.055 26.818C323.099 27.466 323.855 28.39 324.323 29.59H321.857C321.533 28.93 321.083 28.438 320.507 28.114C319.931 27.79 319.265 27.628 318.509 27.628C317.681 27.628 316.943 27.814 316.295 28.186C315.647 28.558 315.137 29.092 314.765 29.788C314.405 30.484 314.225 31.294 314.225 32.218C314.225 33.142 314.405 33.952 314.765 34.648C315.137 35.344 315.647 35.884 316.295 36.268C316.943 36.64 317.681 36.826 318.509 36.826C319.265 36.826 319.931 36.664 320.507 36.34C321.083 36.016 321.533 35.524 321.857 34.864H324.323C323.855 36.064 323.099 36.988 322.055 37.636C321.023 38.284 319.841 38.608 318.509 38.608C317.333 38.608 316.259 38.338 315.287 37.798C314.315 37.246 313.541 36.484 312.965 35.512C312.401 34.54 312.119 33.442 312.119 32.218ZM330.307 38.662C329.371 38.662 328.525 38.452 327.769 38.032C327.013 37.6 326.419 37 325.987 36.232C325.555 35.452 325.339 34.552 325.339 33.532C325.339 32.524 325.561 31.63 326.005 30.85C326.449 30.07 327.055 29.47 327.823 29.05C328.591 28.63 329.449 28.42 330.397 28.42C331.345 28.42 332.203 28.63 332.971 29.05C333.739 29.47 334.345 30.07 334.789 30.85C335.233 31.63 335.455 32.524 335.455 33.532C335.455 34.54 335.227 35.434 334.771 36.214C334.315 36.994 333.691 37.6 332.899 38.032C332.119 38.452 331.255 38.662 330.307 38.662ZM330.307 36.88C330.835 36.88 331.327 36.754 331.783 36.502C332.251 36.25 332.629 35.872 332.917 35.368C333.205 34.864 333.349 34.252 333.349 33.532C333.349 32.812 333.211 32.206 332.935 31.714C332.659 31.21 332.293 30.832 331.837 30.58C331.381 30.328 330.889 30.202 330.361 30.202C329.833 30.202 329.341 30.328 328.885 30.58C328.441 30.832 328.087 31.21 327.823 31.714C327.559 32.206 327.427 32.812 327.427 33.532C327.427 34.6 327.697 35.428 328.237 36.016C328.789 36.592 329.479 36.88 330.307 36.88ZM345.746 28.582V38.5H343.694V37.33C343.37 37.738 342.944 38.062 342.416 38.302C341.9 38.53 341.348 38.644 340.76 38.644C339.98 38.644 339.278 38.482 338.654 38.158C338.042 37.834 337.556 37.354 337.196 36.718C336.848 36.082 336.674 35.314 336.674 34.414V28.582H338.708V34.108C338.708 34.996 338.93 35.68 339.374 36.16C339.818 36.628 340.424 36.862 341.192 36.862C341.96 36.862 342.566 36.628 343.01 36.16C343.466 35.68 343.694 34.996 343.694 34.108V28.582H345.746ZM351.333 38.662C350.553 38.662 349.851 38.524 349.227 38.248C348.615 37.96 348.129 37.576 347.769 37.096C347.409 36.604 347.217 36.058 347.193 35.458H349.317C349.353 35.878 349.551 36.232 349.911 36.52C350.283 36.796 350.745 36.934 351.297 36.934C351.873 36.934 352.317 36.826 352.629 36.61C352.953 36.382 353.115 36.094 353.115 35.746C353.115 35.374 352.935 35.098 352.575 34.918C352.227 34.738 351.669 34.54 350.901 34.324C350.157 34.12 349.551 33.922 349.083 33.73C348.615 33.538 348.207 33.244 347.859 32.848C347.523 32.452 347.355 31.93 347.355 31.282C347.355 30.754 347.511 30.274 347.823 29.842C348.135 29.398 348.579 29.05 349.155 28.798C349.743 28.546 350.415 28.42 351.171 28.42C352.299 28.42 353.205 28.708 353.889 29.284C354.585 29.848 354.957 30.622 355.005 31.606H352.953C352.917 31.162 352.737 30.808 352.413 30.544C352.089 30.28 351.651 30.148 351.099 30.148C350.559 30.148 350.145 30.25 349.857 30.454C349.569 30.658 349.425 30.928 349.425 31.264C349.425 31.528 349.521 31.75 349.713 31.93C349.905 32.11 350.139 32.254 350.415 32.362C350.691 32.458 351.099 32.584 351.639 32.74C352.359 32.932 352.947 33.13 353.403 33.334C353.871 33.526 354.273 33.814 354.609 34.198C354.945 34.582 355.119 35.092 355.131 35.728C355.131 36.292 354.975 36.796 354.663 37.24C354.351 37.684 353.907 38.032 353.331 38.284C352.767 38.536 352.101 38.662 351.333 38.662ZM365.718 33.298C365.718 33.67 365.694 34.006 365.646 34.306H358.068C358.128 35.098 358.422 35.734 358.95 36.214C359.478 36.694 360.126 36.934 360.894 36.934C361.998 36.934 362.778 36.472 363.234 35.548H365.448C365.148 36.46 364.602 37.21 363.81 37.798C363.03 38.374 362.058 38.662 360.894 38.662C359.946 38.662 359.094 38.452 358.338 38.032C357.594 37.6 357.006 37 356.574 36.232C356.154 35.452 355.944 34.552 355.944 33.532C355.944 32.512 356.148 31.618 356.556 30.85C356.976 30.07 357.558 29.47 358.302 29.05C359.058 28.63 359.922 28.42 360.894 28.42C361.83 28.42 362.664 28.624 363.396 29.032C364.128 29.44 364.698 30.016 365.106 30.76C365.514 31.492 365.718 32.338 365.718 33.298ZM363.576 32.65C363.564 31.894 363.294 31.288 362.766 30.832C362.238 30.376 361.584 30.148 360.804 30.148C360.096 30.148 359.49 30.376 358.986 30.832C358.482 31.276 358.182 31.882 358.086 32.65H363.576ZM369.07 25.18V38.5H367.018V25.18H369.07ZM373.096 25.18V38.5H371.044V25.18H373.096ZM379.372 38.662C378.436 38.662 377.59 38.452 376.834 38.032C376.078 37.6 375.484 37 375.052 36.232C374.62 35.452 374.404 34.552 374.404 33.532C374.404 32.524 374.626 31.63 375.07 30.85C375.514 30.07 376.12 29.47 376.888 29.05C377.656 28.63 378.514 28.42 379.462 28.42C380.41 28.42 381.268 28.63 382.036 29.05C382.804 29.47 383.41 30.07 383.854 30.85C384.298 31.63 384.52 32.524 384.52 33.532C384.52 34.54 384.292 35.434 383.836 36.214C383.38 36.994 382.756 37.6 381.964 38.032C381.184 38.452 380.32 38.662 379.372 38.662ZM379.372 36.88C379.9 36.88 380.392 36.754 380.848 36.502C381.316 36.25 381.694 35.872 381.982 35.368C382.27 34.864 382.414 34.252 382.414 33.532C382.414 32.812 382.276 32.206 382 31.714C381.724 31.21 381.358 30.832 380.902 30.58C380.446 30.328 379.954 30.202 379.426 30.202C378.898 30.202 378.406 30.328 377.95 30.58C377.506 30.832 377.152 31.21 376.888 31.714C376.624 32.206 376.492 32.812 376.492 33.532C376.492 34.6 376.762 35.428 377.302 36.016C377.854 36.592 378.544 36.88 379.372 36.88ZM387.88 30.022C388.18 29.518 388.576 29.128 389.068 28.852C389.572 28.564 390.166 28.42 390.85 28.42V30.544H390.328C389.524 30.544 388.912 30.748 388.492 31.156C388.084 31.564 387.88 32.272 387.88 33.28V38.5H385.828V28.582H387.88V30.022Z" fill="#1F1F1F"/>
<rect x="436" y="8" width="200" height="48" rx="24" fill="white" fill-opacity="0.7"/>
<path d="M505.609 32.074C506.281 32.194 506.851 32.548 507.319 33.136C507.787 33.724 508.021 34.39 508.021 35.134C508.021 35.77 507.853 36.346 507.517 36.862C507.193 37.366 506.719 37.768 506.095 38.068C505.471 38.356 504.745 38.5 503.917 38.5H498.913V25.99H503.683C504.535 25.99 505.267 26.134 505.879 26.422C506.491 26.71 506.953 27.1 507.265 27.592C507.577 28.072 507.733 28.612 507.733 29.212C507.733 29.932 507.541 30.532 507.157 31.012C506.773 31.492 506.257 31.846 505.609 32.074ZM500.965 31.246H503.503C504.175 31.246 504.697 31.096 505.069 30.796C505.453 30.484 505.645 30.04 505.645 29.464C505.645 28.9 505.453 28.462 505.069 28.15C504.697 27.826 504.175 27.664 503.503 27.664H500.965V31.246ZM503.737 36.826C504.433 36.826 504.979 36.658 505.375 36.322C505.771 35.986 505.969 35.518 505.969 34.918C505.969 34.306 505.759 33.82 505.339 33.46C504.919 33.1 504.361 32.92 503.665 32.92H500.965V36.826H503.737ZM511.583 30.022C511.883 29.518 512.279 29.128 512.771 28.852C513.275 28.564 513.869 28.42 514.553 28.42V30.544H514.031C513.227 30.544 512.615 30.748 512.195 31.156C511.787 31.564 511.583 32.272 511.583 33.28V38.5H509.531V28.582H511.583V30.022ZM520.021 38.662C519.085 38.662 518.239 38.452 517.483 38.032C516.727 37.6 516.133 37 515.701 36.232C515.269 35.452 515.053 34.552 515.053 33.532C515.053 32.524 515.275 31.63 515.719 30.85C516.163 30.07 516.769 29.47 517.537 29.05C518.305 28.63 519.163 28.42 520.111 28.42C521.059 28.42 521.917 28.63 522.685 29.05C523.453 29.47 524.059 30.07 524.503 30.85C524.947 31.63 525.169 32.524 525.169 33.532C525.169 34.54 524.941 35.434 524.485 36.214C524.029 36.994 523.405 37.6 522.613 38.032C521.833 38.452 520.969 38.662 520.021 38.662ZM520.021 36.88C520.549 36.88 521.041 36.754 521.497 36.502C521.965 36.25 522.343 35.872 522.631 35.368C522.919 34.864 523.063 34.252 523.063 33.532C523.063 32.812 522.925 32.206 522.649 31.714C522.373 31.21 522.007 30.832 521.551 30.58C521.095 30.328 520.603 30.202 520.075 30.202C519.547 30.202 519.055 30.328 518.599 30.58C518.155 30.832 517.801 31.21 517.537 31.714C517.273 32.206 517.141 32.812 517.141 33.532C517.141 34.6 517.411 35.428 517.951 36.016C518.503 36.592 519.193 36.88 520.021 36.88ZM525.794 33.532C525.794 32.512 525.998 31.618 526.406 30.85C526.826 30.07 527.402 29.47 528.134 29.05C528.866 28.63 529.706 28.42 530.654 28.42C531.854 28.42 532.844 28.708 533.624 29.284C534.416 29.848 534.95 30.658 535.226 31.714H533.012C532.832 31.222 532.544 30.838 532.148 30.562C531.752 30.286 531.254 30.148 530.654 30.148C529.814 30.148 529.142 30.448 528.638 31.048C528.146 31.636 527.9 32.464 527.9 33.532C527.9 34.6 528.146 35.434 528.638 36.034C529.142 36.634 529.814 36.934 530.654 36.934C531.842 36.934 532.628 36.412 533.012 35.368H535.226C534.938 36.376 534.398 37.18 533.606 37.78C532.814 38.368 531.83 38.662 530.654 38.662C529.706 38.662 528.866 38.452 528.134 38.032C527.402 37.6 526.826 37 526.406 36.232C525.998 35.452 525.794 34.552 525.794 33.532ZM541.681 28.42C542.437 28.42 543.109 28.582 543.697 28.906C544.297 29.23 544.765 29.71 545.101 30.346C545.449 30.982 545.623 31.75 545.623 32.65V38.5H543.589V32.956C543.589 32.068 543.367 31.39 542.923 30.922C542.479 30.442 541.873 30.202 541.105 30.202C540.337 30.202 539.725 30.442 539.269 30.922C538.825 31.39 538.603 32.068 538.603 32.956V38.5H536.551V25.18H538.603V29.734C538.951 29.314 539.389 28.99 539.917 28.762C540.457 28.534 541.045 28.42 541.681 28.42ZM556.502 28.582V38.5H554.45V37.33C554.126 37.738 553.7 38.062 553.172 38.302C552.656 38.53 552.104 38.644 551.516 38.644C550.736 38.644 550.034 38.482 549.41 38.158C548.798 37.834 548.312 37.354 547.952 36.718C547.604 36.082 547.43 35.314 547.43 34.414V28.582H549.464V34.108C549.464 34.996 549.686 35.68 550.13 36.16C550.574 36.628 551.18 36.862 551.948 36.862C552.716 36.862 553.322 36.628 553.766 36.16C554.222 35.68 554.45 34.996 554.45 34.108V28.582H556.502ZM560.541 30.022C560.841 29.518 561.237 29.128 561.729 28.852C562.233 28.564 562.827 28.42 563.511 28.42V30.544H562.989C562.185 30.544 561.573 30.748 561.153 31.156C560.745 31.564 560.541 32.272 560.541 33.28V38.5H558.489V28.582H560.541V30.022ZM573.768 33.298C573.768 33.67 573.744 34.006 573.696 34.306H566.118C566.178 35.098 566.472 35.734 567 36.214C567.528 36.694 568.176 36.934 568.944 36.934C570.048 36.934 570.828 36.472 571.284 35.548H573.498C573.198 36.46 572.652 37.21 571.86 37.798C571.08 38.374 570.108 38.662 568.944 38.662C567.996 38.662 567.144 38.452 566.388 38.032C565.644 37.6 565.056 37 564.624 36.232C564.204 35.452 563.994 34.552 563.994 33.532C563.994 32.512 564.198 31.618 564.606 30.85C565.026 30.07 565.608 29.47 566.352 29.05C567.108 28.63 567.972 28.42 568.944 28.42C569.88 28.42 570.714 28.624 571.446 29.032C572.178 29.44 572.748 30.016 573.156 30.76C573.564 31.492 573.768 32.338 573.768 33.298ZM571.626 32.65C571.614 31.894 571.344 31.288 570.816 30.832C570.288 30.376 569.634 30.148 568.854 30.148C568.146 30.148 567.54 30.376 567.036 30.832C566.532 31.276 566.232 31.882 566.136 32.65H571.626Z" fill="#1F1F1F"/>
<defs>
<linearGradient id="paint0_linear_2683_2210" x1="0" y1="0" x2="643.393" y2="69.6084" gradientUnits="userSpaceOnUse">
<stop stop-color="white"/>
<stop offset="0.75" stop-color="white" stop-opacity="0"/>
<stop offset="1" stop-color="white"/>
</linearGradient>
</defs>
</svg>
