<svg width="121" height="42" viewBox="0 0 121 42" fill="none" xmlns="http://www.w3.org/2000/svg">
<rect width="121" height="42" rx="21" fill="#E73649"/>
<path d="M28.7339 24.7635H24.1506L23.3631 27H21.4889L25.4106 16.038H27.4896L31.4114 27H29.5214L28.7339 24.7635ZM28.2299 23.2987L26.4501 18.2115L24.6546 23.2987H28.2299ZM34.282 19.5975C34.5865 19.1985 35.0013 18.8625 35.5263 18.5895C36.0513 18.3165 36.6445 18.18 37.306 18.18C38.062 18.18 38.7498 18.369 39.3693 18.747C39.9993 19.1145 40.4928 19.6342 40.8498 20.3062C41.2068 20.9782 41.3853 21.75 41.3853 22.6215C41.3853 23.493 41.2068 24.2752 40.8498 24.9682C40.4928 25.6507 39.9993 26.1862 39.3693 26.5747C38.7498 26.9528 38.062 27.1418 37.306 27.1418C36.6445 27.1418 36.0565 27.0105 35.542 26.748C35.0275 26.475 34.6075 26.139 34.282 25.74V31.1265H32.4865V18.3218H34.282V19.5975ZM39.5583 22.6215C39.5583 22.023 39.4323 21.5085 39.1803 21.078C38.9388 20.637 38.6133 20.3062 38.2038 20.0857C37.8048 19.8547 37.3743 19.7392 36.9123 19.7392C36.4608 19.7392 36.0303 19.8547 35.6208 20.0857C35.2218 20.3167 34.8963 20.6527 34.6443 21.0937C34.4028 21.5347 34.282 22.0545 34.282 22.653C34.282 23.2515 34.4028 23.7765 34.6443 24.228C34.8963 24.669 35.2218 25.005 35.6208 25.236C36.0303 25.467 36.4608 25.5825 36.9123 25.5825C37.3743 25.5825 37.8048 25.467 38.2038 25.236C38.6133 24.9945 38.9388 24.648 39.1803 24.1965C39.4323 23.745 39.5583 23.22 39.5583 22.6215ZM44.3264 19.5975C44.6308 19.1985 45.0456 18.8625 45.5706 18.5895C46.0956 18.3165 46.6889 18.18 47.3504 18.18C48.1063 18.18 48.7941 18.369 49.4136 18.747C50.0436 19.1145 50.5371 19.6342 50.8941 20.3062C51.2511 20.9782 51.4296 21.75 51.4296 22.6215C51.4296 23.493 51.2511 24.2752 50.8941 24.9682C50.5371 25.6507 50.0436 26.1862 49.4136 26.5747C48.7941 26.9528 48.1063 27.1418 47.3504 27.1418C46.6889 27.1418 46.1009 27.0105 45.5864 26.748C45.0719 26.475 44.6519 26.139 44.3264 25.74V31.1265H42.5308V18.3218H44.3264V19.5975ZM49.6026 22.6215C49.6026 22.023 49.4766 21.5085 49.2246 21.078C48.9831 20.637 48.6576 20.3062 48.2481 20.0857C47.8491 19.8547 47.4186 19.7392 46.9566 19.7392C46.5051 19.7392 46.0746 19.8547 45.6651 20.0857C45.2661 20.3167 44.9406 20.6527 44.6886 21.0937C44.4471 21.5347 44.3264 22.0545 44.3264 22.653C44.3264 23.2515 44.4471 23.7765 44.6886 24.228C44.9406 24.669 45.2661 25.005 45.6651 25.236C46.0746 25.467 46.5051 25.5825 46.9566 25.5825C47.4186 25.5825 47.8491 25.467 48.2481 25.236C48.6576 24.9945 48.9831 24.648 49.2246 24.1965C49.4766 23.745 49.6026 23.22 49.6026 22.6215ZM54.3707 15.345V27H52.5752V15.345H54.3707ZM63.91 18.3218L58.5865 31.0793H56.728L58.492 26.8582L55.0742 18.3218H57.0745L59.5157 24.9367L62.0515 18.3218H63.91ZM77.0896 27H75.2941L69.8918 18.8257V27H68.0963V16.038H69.8918L75.2941 24.1965V16.038H77.0896V27ZM82.5816 27.1418C81.7626 27.1418 81.0224 26.958 80.3609 26.5905C79.6994 26.2125 79.1796 25.6875 78.8016 25.0155C78.4236 24.333 78.2346 23.5455 78.2346 22.653C78.2346 21.771 78.4289 20.9887 78.8174 20.3062C79.2059 19.6237 79.7361 19.0987 80.4081 18.7312C81.0801 18.3637 81.8309 18.18 82.6604 18.18C83.4899 18.18 84.2406 18.3637 84.9126 18.7312C85.5846 19.0987 86.1149 19.6237 86.5034 20.3062C86.8919 20.9887 87.0861 21.771 87.0861 22.653C87.0861 23.535 86.8866 24.3172 86.4876 24.9997C86.0886 25.6822 85.5426 26.2125 84.8496 26.5905C84.1671 26.958 83.4111 27.1418 82.5816 27.1418ZM82.5816 25.5825C83.0436 25.5825 83.4741 25.4722 83.8731 25.2517C84.2826 25.0312 84.6134 24.7005 84.8654 24.2595C85.1174 23.8185 85.2434 23.283 85.2434 22.653C85.2434 22.023 85.1226 21.4927 84.8811 21.0622C84.6396 20.6212 84.3194 20.2905 83.9204 20.07C83.5214 19.8495 83.0909 19.7392 82.6289 19.7392C82.1669 19.7392 81.7364 19.8495 81.3374 20.07C80.9489 20.2905 80.6391 20.6212 80.4081 21.0622C80.1771 21.4927 80.0616 22.023 80.0616 22.653C80.0616 23.5875 80.2979 24.312 80.7704 24.8265C81.2534 25.3305 81.8571 25.5825 82.5816 25.5825ZM99.8861 18.3218L97.1928 27H95.3028L93.5546 20.5897L91.8063 27H89.9163L87.2073 18.3218H89.0343L90.8456 25.299L92.6883 18.3218H94.5626L96.3266 25.2675L98.1221 18.3218H99.8861Z" fill="#F8F8F8"/>
</svg>
