<svg width="217" height="204" viewBox="0 0 217 204" fill="none" xmlns="http://www.w3.org/2000/svg">
<g clip-path="url(#clip0_2159_475)">
<path d="M129.795 102.886C133.469 104.462 139.593 109.941 141.033 113.502C141.091 113.645 141.145 113.788 141.197 113.933C142.635 114.267 145.003 115.387 146.538 115.946C151.115 117.614 155.389 119.542 159.799 121.567C162.301 122.716 166.28 125.074 168.561 125.968C177.383 123.555 180.502 130.084 184.457 136.512C187.801 141.948 192.979 147.902 195.457 153.936C196.751 159.162 197.7 167.049 198.626 172.532C200.169 181.679 201.723 190.878 203.096 200.051C203.221 200.895 203.378 202.535 203.183 203.339H73.9655H73.3031H25.7291C25.5407 201.578 26.5957 200.321 27.4698 198.822C25.7403 197.46 24.0959 195.993 22.5462 194.43C19.9006 191.709 15.0062 186.28 19.2803 182.864C23.0073 179.996 29.23 177.818 33.8484 176.691C40.4422 175.082 40.0341 174.361 44.3005 169.277C46.3569 166.837 48.4286 164.411 50.5156 161.998C53.3566 158.709 56.5298 155.329 59.2612 151.985C60.2951 150.718 60.5424 147.581 62.5887 145.918C65.1181 143.862 68.5016 143.187 71.0826 141.638C78.4543 137.212 89.2082 130.623 95.3669 124.901C96.1412 122.2 96.8737 119.265 99.4857 117.681C100.447 118.204 103.683 121.323 104.554 122.185C112.926 115.954 121.438 108.95 129.795 102.886Z" fill="#222222"/>
<path d="M129.795 102.886C133.469 104.462 139.593 109.941 141.034 113.502C141.091 113.645 141.146 113.788 141.197 113.933C129.412 120.726 115.192 132.559 105.885 142.483C105.82 140.824 105.617 138.405 105.663 136.835C107.235 135.171 109.19 133.183 110.62 131.445C108.596 128.796 106.544 126.168 104.464 123.562C102.44 126.312 98.7172 129.805 97.0969 132.294C97.9686 133.163 98.9394 134.079 99.7051 135.034C99.6328 139.492 98.3494 148.942 96.2964 152.676C95.6292 145.039 95.0559 132.571 95.3675 124.901C96.1417 122.2 96.8742 119.265 99.4863 117.681C100.448 118.204 103.684 121.323 104.554 122.185C112.926 115.954 121.439 108.95 129.795 102.886Z" fill="#FEFEFE"/>
<path d="M95.5787 180.702C95.8904 181.184 96.5362 182.013 96.4915 182.517C95.2155 183.963 85.9449 188.96 83.6311 190.241C75.8363 194.556 79.0185 194.829 79.1039 202.995C77.8352 202.993 74.9964 202.862 73.9666 203.339H73.3041C72.9026 202.099 73.9721 195.066 74.7484 193.824C76.8137 190.519 81.4323 188.499 84.8021 186.62C88.3043 184.668 92.0155 182.506 95.5787 180.702Z" fill="#FEFEFE"/>
<path d="M80.9576 24.3638C95.9527 27.2617 111.146 29.7634 126.167 32.5765C133.582 33.9826 141.006 35.3417 148.438 36.6537C152.154 37.3272 156.478 38.2861 160.139 38.7385C156.552 42.0646 135.613 60.9222 134.639 62.8605C133.595 64.9368 133.602 69.257 133.264 71.7034C140.891 75.4284 133.89 85.172 130.26 89.2882C129.639 89.9923 129.007 90.6564 128.475 91.4346L128.371 91.5889C128.646 95.3715 129.264 99.1273 129.795 102.885C121.439 108.95 112.926 115.953 104.555 122.184C103.684 121.322 100.448 118.204 99.4865 117.68C99.7595 116.227 99.6419 113.033 99.6173 111.437C98.8991 111.265 98.1886 111.062 97.4872 110.831C88.2109 107.727 84.8179 96.2248 83.0154 87.6019C82.3274 84.3108 82.0946 80.4301 81.2497 77.1363C80.815 75.4415 78.8577 73.5094 78.0688 71.8319C76.146 67.7434 78.7608 63.4016 80.0758 59.588C74.8009 58.7127 69.5218 57.8642 64.2384 57.0425C61.3829 56.6128 58.1201 56.2206 55.3236 55.6605L55.1135 58.7675C59.3298 61.3216 59.0536 63.9858 55.3391 66.8314C58.9865 74.4429 57.7778 81.8469 59.6801 89.983C60.0616 91.6661 60.5779 93.3157 61.224 94.916C61.5124 95.6487 62.5406 97.6735 62.4752 98.2893C61.6682 97.9192 60.2333 94.432 59.7175 93.3907C59.6791 95.0385 60.8507 103.36 60.5993 103.842C60.1307 103.343 59.7063 101.782 59.4621 101.05L59.1605 100.916C58.3354 101.647 58.6859 105.543 58.7639 106.597C58.0246 105.487 55.5697 100.564 55.3649 100.37C54.7136 100.879 54.9362 104.147 54.7519 105.441L54.5867 105.375C53.6385 103.723 54.1407 99.0864 53.3907 96.7825L53.1232 96.6555C52.3649 97.9859 52.1915 104.147 52.2227 105.868C50.1149 101.702 50.9576 101.895 50.3057 97.9392L50.098 97.8491C49.3936 98.6817 48.9735 99.886 48.5439 100.908C48.9274 95.5619 49.5457 92.0756 50.2616 86.8988C51.3134 79.2922 50.963 74.2364 54.1165 66.8189C49.7711 64.2472 50.0066 61.4091 54.1133 58.7872C54.2078 57.7008 54.3562 56.6126 54.4932 55.5304C52.911 55.2524 51.2394 55.0264 49.6444 54.7861C55.3189 48.7877 61.8743 42.5662 67.8302 36.824C70.7255 34.0325 78.1605 26.1684 80.9576 24.3638Z" fill="#222222"/>
</g>
<defs>
<clipPath id="clip0_2159_475">
<rect width="216.047" height="203.339" fill="white"/>
</clipPath>
</defs>
</svg>
