<svg width="79" height="74" viewBox="0 0 79 74" fill="none" xmlns="http://www.w3.org/2000/svg">
<path d="M39.2242 61.7623C42.0964 61.729 45.35 62.2351 48.5943 63.8573C54.5775 66.8489 59.4145 66.5447 63.1984 65.4598C66.9822 64.375 69.8099 62.7375 71.7378 62.7375H74.247V70.2674H71.7378C68.6474 70.2674 65.9047 72.1078 62.5123 73.0804C59.1199 74.053 55.1724 74.3761 49.7141 71.647C39.0791 66.3294 28.5236 71.647 28.5236 71.647C23.7653 74.0261 19.7821 73.7281 16.1885 72.8231C12.595 71.9181 9.53728 70.2674 6.50232 70.2674H3.99316V62.7375H6.50232C8.48565 62.7375 11.663 64.2336 15.5784 65.2197C19.4938 66.2058 24.2935 66.5335 29.6458 63.8573C29.6458 63.8573 33.741 61.8258 39.2242 61.7623Z" fill="#E73649"/>
<path d="M39.2218 51.7225C40.005 51.7135 40.8154 51.7425 41.6476 51.8254C43.8667 52.0466 46.2348 52.6378 48.5943 53.8176C54.5775 56.8092 59.4145 56.5049 63.1984 55.4201C66.9822 54.3353 69.8099 52.6978 71.7378 52.6978H74.247V60.2277H71.7378C68.6474 60.2277 65.9047 62.068 62.5123 63.0407C59.1199 64.0133 55.1724 64.3437 49.7141 61.6146C47.0554 60.2852 44.4027 59.6144 41.9171 59.3652C34.4604 58.6174 28.5236 61.6146 28.5236 61.6146C23.7653 63.9937 19.7821 63.6884 16.1885 62.7834C12.595 61.8784 9.53728 60.2277 6.50232 60.2277H3.99316V52.6978H6.50232C8.48565 52.6978 11.663 54.1939 15.5784 55.18C19.4938 56.166 24.2935 56.4937 29.6458 53.8176C29.6458 53.8176 33.7388 51.7861 39.2218 51.7225Z" fill="#E73649"/>
<path d="M39.115 31.2009C51.4165 31.2009 61.3942 40.9973 61.6876 53.2271C58.478 54.013 54.7346 54.0877 49.7103 51.5755C47.0515 50.2461 44.3989 49.5852 41.9133 49.3359C34.4565 48.5881 28.5197 51.5755 28.5197 51.5755C23.9257 53.8725 20.0555 53.6733 16.5596 52.8424C17.0504 40.7925 26.9427 31.2009 39.115 31.2009Z" fill="#E73649"/>
<path d="M39.0515 9.74385e-06C38.8862 -0.000642326 38.7223 0.0314397 38.5695 0.0944058C38.4166 0.157372 38.2777 0.249976 38.1608 0.366879C38.0439 0.483782 37.9513 0.622671 37.8884 0.775536C37.8254 0.928402 37.7933 1.09222 37.794 1.25754V20.8233C37.7945 20.9879 37.8275 21.1507 37.891 21.3025C37.9545 21.4543 38.0473 21.5921 38.1641 21.708C38.2809 21.8239 38.4194 21.9157 38.5716 21.9781C38.7239 22.0405 38.8869 22.0722 39.0515 22.0716C39.3822 22.0705 39.6991 21.9386 39.9329 21.7047C40.1668 21.4709 40.2986 21.154 40.2998 20.8233V1.25754C40.3004 1.093 40.2686 0.929937 40.2063 0.777675C40.1439 0.625414 40.0521 0.486937 39.9362 0.370156C39.8203 0.253375 39.6825 0.160578 39.5307 0.0970668C39.3789 0.0335558 39.216 0.0005754 39.0515 9.74385e-06Z" fill="#E73649"/>
<path d="M58.2974 14.3222C57.9775 14.4085 57.7049 14.6179 57.5391 14.9047L52.2686 24.0219C52.1022 24.3089 52.0564 24.6502 52.1414 24.9709C52.2263 25.2916 52.435 25.5655 52.7217 25.7325C52.8642 25.8163 53.0219 25.8711 53.1856 25.8937C53.3494 25.9163 53.5161 25.9063 53.676 25.8642C53.8358 25.822 53.9858 25.7487 54.1172 25.6483C54.2486 25.548 54.3588 25.4226 54.4415 25.2794L59.7028 16.153C59.8692 15.866 59.915 15.5247 59.83 15.204C59.7451 14.8833 59.5364 14.6094 59.2498 14.4424C59.1067 14.3607 58.949 14.3081 58.7855 14.2874C58.6221 14.2668 58.4562 14.2786 58.2974 14.3222Z" fill="#E73649"/>
<path d="M75.8913 18.3723L60.6067 30.587C60.4775 30.6899 60.37 30.8174 60.2903 30.962C60.2106 31.1066 60.1603 31.2655 60.1423 31.4297C60.1242 31.5938 60.1388 31.7599 60.1852 31.9184C60.2316 32.0769 60.3088 32.2246 60.4125 32.3531C60.5154 32.4822 60.6429 32.5897 60.7875 32.6694C60.9321 32.7491 61.091 32.7995 61.2552 32.8175C61.4193 32.8356 61.5854 32.821 61.7439 32.7746C61.9023 32.7282 62.0501 32.651 62.1786 32.5473L77.4632 20.3326C77.7213 20.1249 77.8866 19.8235 77.923 19.4942C77.9594 19.165 77.8639 18.8347 77.6574 18.5757C77.5551 18.4459 77.4282 18.3376 77.2839 18.257C77.1396 18.1765 76.9808 18.1253 76.8166 18.1064C76.6525 18.0875 76.4862 18.1012 76.3274 18.1469C76.1686 18.1925 76.0203 18.2691 75.8913 18.3723Z" fill="#E73649"/>
<path d="M76.5299 38.0773L66.3494 40.8051C66.1902 40.8474 66.041 40.9208 65.9102 41.0209C65.7794 41.121 65.6697 41.2459 65.5872 41.3885C65.5048 41.531 65.4512 41.6885 65.4297 41.8517C65.4082 42.015 65.419 42.1809 65.4617 42.34C65.5041 42.4992 65.5774 42.6484 65.6775 42.7792C65.7776 42.91 65.9025 43.0197 66.0451 43.1022C66.1876 43.1846 66.3451 43.2381 66.5084 43.2597C66.6716 43.2812 66.8376 43.2703 66.9966 43.2277L77.1771 40.4999C77.4968 40.4124 77.7688 40.2017 77.9335 39.914C78.0981 39.6263 78.142 39.285 78.0555 38.965C77.9699 38.6456 77.7614 38.3731 77.4756 38.2068C77.1898 38.0405 76.8498 37.994 76.5299 38.0773Z" fill="#E73649"/>
<path d="M18.8603 14.4413C18.5737 14.6083 18.365 14.8822 18.28 15.2029C18.1951 15.5236 18.2408 15.8649 18.4073 16.1519L23.6686 25.2783C23.8356 25.565 24.1095 25.7737 24.4302 25.8586C24.7509 25.9435 25.0922 25.8978 25.3792 25.7314C25.5219 25.6495 25.6471 25.5402 25.7475 25.4099C25.848 25.2796 25.9218 25.1307 25.9648 24.9719C26.0077 24.813 26.0189 24.6473 25.9978 24.4841C25.9766 24.3209 25.9235 24.1634 25.8415 24.0208L20.571 14.9036C20.489 14.7609 20.3798 14.6358 20.2495 14.5353C20.1191 14.4348 19.9703 14.361 19.8114 14.318C19.6526 14.2751 19.4868 14.2639 19.3236 14.285C19.1604 14.3062 19.003 14.3593 18.8603 14.4413Z" fill="#E73649"/>
<path d="M2.20585 18.3727C1.9457 18.1672 1.6147 18.0732 1.28539 18.1113C0.956082 18.1495 0.655316 18.3166 0.449002 18.5761C0.242488 18.8351 0.146976 19.1653 0.183367 19.4946C0.219758 19.8239 0.385088 20.1253 0.64318 20.3329L15.9278 32.5477C16.0563 32.6514 16.204 32.7286 16.3625 32.775C16.521 32.8214 16.6871 32.8359 16.8512 32.8179C17.0153 32.7999 17.1743 32.7495 17.3189 32.6698C17.4635 32.5901 17.591 32.4826 17.6939 32.3535C17.797 32.2244 17.8737 32.0762 17.9193 31.9174C17.9649 31.7585 17.9787 31.5923 17.9598 31.4281C17.9409 31.2639 17.8897 31.1051 17.8091 30.9608C17.7286 30.8166 17.6203 30.6896 17.4904 30.5874L2.20585 18.3727Z" fill="#E73649"/>
<path d="M1.57769 38.0767C1.41861 38.034 1.25269 38.0232 1.08941 38.0447C0.926131 38.0662 0.768701 38.1198 0.626132 38.2022C0.483562 38.2847 0.358651 38.3944 0.258548 38.5252C0.158445 38.656 0.0851149 38.8052 0.0427546 38.9644C9.2781e-05 39.1234 -0.0107805 39.2894 0.0107569 39.4526C0.0322943 39.6159 0.0858196 39.7733 0.16827 39.9159C0.250719 40.0585 0.360475 40.1834 0.491256 40.2835C0.622036 40.3836 0.771273 40.4569 0.930426 40.4993L11.1109 43.227C11.27 43.2697 11.4359 43.2806 11.5992 43.259C11.7625 43.2375 11.9199 43.184 12.0625 43.1015C12.205 43.0191 12.3299 42.9093 12.43 42.7785C12.5302 42.6478 12.6035 42.4985 12.6458 42.3394C12.6885 42.1803 12.6994 42.0144 12.6778 41.8511C12.6563 41.6878 12.6028 41.5304 12.5203 41.3878C12.4379 41.2452 12.3281 41.1203 12.1973 41.0202C12.0666 40.9201 11.9173 40.8468 11.7582 40.8044L1.57769 38.0767Z" fill="#E73649"/>
</svg>
