<svg width="313" height="107" viewBox="0 0 313 107" fill="none" xmlns="http://www.w3.org/2000/svg">
<path d="M3.67554 91.9253V75.6645L32.8559 53.3894C40.0953 47.7092 42.9911 44.1452 42.9911 39.3561C42.9911 34.3442 39.5384 31.337 34.1924 31.337C28.9578 31.337 24.8369 34.4555 18.7112 41.4722L4.12105 29.3323C12.4742 18.6402 20.8274 12.626 35.8631 12.626C52.7921 12.626 64.5979 22.7611 64.5979 37.4627V37.6854C64.5979 50.1595 58.1382 56.6193 46.5551 64.9724L33.19 74.328H65.3776V91.9253H3.67554Z" fill="#E73649"/>
<mask id="path-2-outside-1_2725_1119" maskUnits="userSpaceOnUse" x="51.9753" y="8.92529" width="69" height="86" fill="black">
<rect fill="white" x="51.9753" y="8.92529" width="69" height="86"/>
<path d="M55.6507 91.9253V75.6645L84.8311 53.3894C92.0705 47.7092 94.9662 44.1452 94.9662 39.3561C94.9662 34.3442 91.5136 31.337 86.1676 31.337C80.9329 31.337 76.812 34.4555 70.6864 41.4722L56.0962 29.3323C64.4494 18.6402 72.8025 12.626 87.8382 12.626C104.767 12.626 116.573 22.7611 116.573 37.4627V37.6854C116.573 50.1595 110.113 56.6193 98.5303 64.9724L85.1652 74.328H117.353V91.9253H55.6507Z"/>
</mask>
<path d="M55.6507 91.9253V75.6645L84.8311 53.3894C92.0705 47.7092 94.9662 44.1452 94.9662 39.3561C94.9662 34.3442 91.5136 31.337 86.1676 31.337C80.9329 31.337 76.812 34.4555 70.6864 41.4722L56.0962 29.3323C64.4494 18.6402 72.8025 12.626 87.8382 12.626C104.767 12.626 116.573 22.7611 116.573 37.4627V37.6854C116.573 50.1595 110.113 56.6193 98.5303 64.9724L85.1652 74.328H117.353V91.9253H55.6507Z" fill="#0CAADD"/>
<path d="M55.6507 91.9253H52.8663V94.7097H55.6507V91.9253ZM55.6507 75.6645L53.9612 73.4512L52.8663 74.287V75.6645H55.6507ZM84.8311 53.3894L86.5206 55.6026L86.5353 55.5914L86.5498 55.58L84.8311 53.3894ZM70.6864 41.4722L68.9055 43.6126L70.9957 45.3517L72.7839 43.3034L70.6864 41.4722ZM56.0962 29.3323L53.902 27.6181L52.2398 29.7457L54.3153 31.4726L56.0962 29.3323ZM98.5303 64.9724L100.127 67.2535L100.143 67.2423L100.159 67.2308L98.5303 64.9724ZM85.1652 74.328L83.5685 72.0469L76.3321 77.1124H85.1652V74.328ZM117.353 74.328H120.137V71.5436H117.353V74.328ZM117.353 91.9253V94.7097H120.137V91.9253H117.353ZM55.6507 91.9253H58.4351V75.6645H55.6507H52.8663V91.9253H55.6507ZM55.6507 75.6645L57.3402 77.8777L86.5206 55.6026L84.8311 53.3894L83.1416 51.1761L53.9612 73.4512L55.6507 75.6645ZM84.8311 53.3894L86.5498 55.58C93.7522 49.9289 97.7506 45.614 97.7506 39.3561H94.9662H92.1819C92.1819 42.6764 90.3888 45.4895 83.1123 51.1988L84.8311 53.3894ZM94.9662 39.3561H97.7506C97.7506 36.1763 96.6332 33.3764 94.4343 31.3975C92.2712 29.4506 89.347 28.5526 86.1676 28.5526V31.337V34.1214C88.3341 34.1214 89.8093 34.727 90.709 35.5367C91.573 36.3143 92.1819 37.5239 92.1819 39.3561H94.9662ZM86.1676 31.337V28.5526C79.5734 28.5526 74.7118 32.6275 68.5889 39.641L70.6864 41.4722L72.7839 43.3034C78.9123 36.2836 82.2924 34.1214 86.1676 34.1214V31.337ZM70.6864 41.4722L72.4673 39.3318L57.8771 27.1919L56.0962 29.3323L54.3153 31.4726L68.9055 43.6126L70.6864 41.4722ZM56.0962 29.3323L58.2904 31.0465C62.3573 25.8408 66.2696 21.9786 70.834 19.3921C75.3602 16.8273 80.718 15.4103 87.8382 15.4103V12.626V9.84157C79.9227 9.84157 73.5862 11.4318 68.0885 14.5471C62.6292 17.6408 58.1883 22.1317 53.902 27.6181L56.0962 29.3323ZM87.8382 12.626V15.4103C95.7572 15.4103 102.259 17.7779 106.735 21.6396C111.181 25.4742 113.789 30.9095 113.789 37.4627H116.573H119.357C119.357 29.3143 116.063 22.3312 110.373 17.4229C104.714 12.5416 96.8483 9.84157 87.8382 9.84157V12.626ZM116.573 37.4627H113.789V37.6854H116.573H119.357V37.4627H116.573ZM116.573 37.6854H113.789C113.789 43.3666 112.341 47.5207 109.642 51.2383C106.861 55.0692 102.67 58.5542 96.9016 62.714L98.5303 64.9724L100.159 67.2308C105.974 63.0375 110.804 59.116 114.148 54.5102C117.575 49.7911 119.357 44.4783 119.357 37.6854H116.573ZM98.5303 64.9724L96.9335 62.6914L83.5685 72.0469L85.1652 74.328L86.7619 76.609L100.127 67.2535L98.5303 64.9724ZM85.1652 74.328V77.1124H117.353V74.328V71.5436H85.1652V74.328ZM117.353 74.328H114.568V91.9253H117.353H120.137V74.328H117.353ZM117.353 91.9253V89.1409H55.6507V91.9253V94.7097H117.353V91.9253Z" fill="#F8F8F8" mask="url(#path-2-outside-1_2725_1119)"/>
<path d="M136.432 14.2263C158.02 7.33575 181.106 19.2503 187.997 40.8384C194.887 62.4266 182.973 85.5126 161.385 92.4031C139.796 99.2936 116.71 87.3791 109.82 65.791C102.929 44.2028 114.844 21.1168 136.432 14.2263Z" fill="white" stroke="#1F1F1F" stroke-width="2.78439"/>
<path d="M122.565 40.0503L141.511 34.0031L147.558 52.9491L128.612 58.9963L122.565 40.0503Z" fill="#F35325"/>
<path d="M143.405 33.3984L162.351 27.3512L168.398 46.2973L149.452 52.3445L143.405 33.3984Z" fill="#81BC06"/>
<path d="M129.217 60.8906L148.163 54.8434L154.21 73.7895L135.264 79.8367L129.217 60.8906Z" fill="#05A6F0"/>
<path d="M150.057 54.2393L169.003 48.1921L175.05 67.1381L156.104 73.1853L150.057 54.2393Z" fill="#FFBA08"/>
<rect x="190.643" y="2.01242" width="79.3507" height="79.3507" rx="39.6753" transform="rotate(20 190.643 2.01242)" fill="white" stroke="#1F1F1F" stroke-width="2.78439"/>
<path fill-rule="evenodd" clip-rule="evenodd" d="M202.1 48.56C202.627 47.1116 203.373 45.8107 204.276 44.6646L198.85 36.1908C196.303 38.6314 194.258 41.6818 192.965 45.2352C191.673 48.7856 191.278 52.4342 191.659 55.9382L201.263 52.9222C201.309 51.4711 201.575 50.0012 202.1 48.56Z" fill="#FBBC05"/>
<path fill-rule="evenodd" clip-rule="evenodd" d="M220.089 40.1879C223.236 41.3331 225.672 43.4824 227.241 46.1194L236.098 41.9971C233.393 37.1104 229.093 33.135 223.41 31.0662C214.585 27.8545 205.165 30.1406 198.85 36.1922L204.276 44.6659C207.92 40.04 214.232 38.056 220.089 40.1879Z" fill="#EB4335"/>
<path fill-rule="evenodd" clip-rule="evenodd" d="M210.499 66.5388C204.641 64.4069 201.082 58.83 201.263 52.9437L191.66 55.9461C192.608 64.6422 198.355 72.4488 207.179 75.6605C212.625 77.6428 218.529 77.6015 223.75 75.3986L218.624 67.2878C216.15 67.8231 213.367 67.5828 210.499 66.5388Z" fill="#34A853"/>
<path fill-rule="evenodd" clip-rule="evenodd" d="M236.608 61.1204C237.088 59.8029 237.401 58.31 237.576 56.8816L216.77 49.3086L213.634 57.9235L225.611 62.2827C223.943 65.0019 221.491 66.6667 218.623 67.2874L223.75 75.3983C229.234 73.0856 233.963 68.3884 236.608 61.1204Z" fill="#4285F4"/>
<mask id="path-14-outside-2_2725_1119" maskUnits="userSpaceOnUse" x="243.385" y="20.9253" width="65" height="64" fill="black">
<rect fill="white" x="243.385" y="20.9253" width="65" height="64"/>
<path d="M266.336 81.456V62.0767H246.734V43.3656H266.336V23.9863H285.715V43.3656H305.317V62.0767H285.715V81.456H266.336Z"/>
</mask>
<path d="M266.336 81.456V62.0767H246.734V43.3656H266.336V23.9863H285.715V43.3656H305.317V62.0767H285.715V81.456H266.336Z" fill="#1F1F1F"/>
<path d="M266.336 81.456H263.551V84.2404H266.336V81.456ZM266.336 62.0767H269.12V59.2923H266.336V62.0767ZM246.734 62.0767H243.949V64.8611H246.734V62.0767ZM246.734 43.3656V40.5812H243.949V43.3656H246.734ZM266.336 43.3656V46.15H269.12V43.3656H266.336ZM266.336 23.9863V21.2019H263.551V23.9863H266.336ZM285.715 23.9863H288.499V21.2019H285.715V23.9863ZM285.715 43.3656H282.931V46.15H285.715V43.3656ZM305.317 43.3656H308.102V40.5812H305.317V43.3656ZM305.317 62.0767V64.8611H308.102V62.0767H305.317ZM285.715 62.0767V59.2923H282.931V62.0767H285.715ZM285.715 81.456V84.2404H288.499V81.456H285.715ZM266.336 81.456H269.12V62.0767H266.336H263.551V81.456H266.336ZM266.336 62.0767V59.2923H246.734V62.0767V64.8611H266.336V62.0767ZM246.734 62.0767H249.518V43.3656H246.734H243.949V62.0767H246.734ZM246.734 43.3656V46.15H266.336V43.3656V40.5812H246.734V43.3656ZM266.336 43.3656H269.12V23.9863H266.336H263.551V43.3656H266.336ZM266.336 23.9863V26.7706H285.715V23.9863V21.2019H266.336V23.9863ZM285.715 23.9863H282.931V43.3656H285.715H288.499V23.9863H285.715ZM285.715 43.3656V46.15H305.317V43.3656V40.5812H285.715V43.3656ZM305.317 43.3656H302.533V62.0767H305.317H308.102V43.3656H305.317ZM305.317 62.0767V59.2923H285.715V62.0767V64.8611H305.317V62.0767ZM285.715 62.0767H282.931V81.456H285.715H288.499V62.0767H285.715ZM285.715 81.456V78.6716H266.336V81.456V84.2404H285.715V81.456Z" fill="#F8F8F8" mask="url(#path-14-outside-2_2725_1119)"/>
</svg>
