<svg width="76" height="97" viewBox="0 0 76 97" fill="none" xmlns="http://www.w3.org/2000/svg">
<path d="M72.4117 3.80508L57.2255 12.5728L55.5283 9.61933L70.7145 0.851562L72.4117 3.80508Z" fill="#FEDB2F"/>
<path d="M75.7462 19.6492H58.2109V16.228H75.7462V19.6492Z" fill="#FEDB2F"/>
<path d="M70.7145 35.0238L55.5283 26.256L57.2255 23.3027L72.4117 32.0703L70.7145 35.0238Z" fill="#FEDB2F"/>
<path fill-rule="evenodd" clip-rule="evenodd" d="M12.7256 96.2225V89.3868C12.7256 88.6141 13.3578 87.9819 14.1302 87.9819H61.6142C62.3866 87.9819 63.0188 88.6141 63.0188 89.3868V96.2225H12.7256Z" fill="#E73649"/>
<path fill-rule="evenodd" clip-rule="evenodd" d="M24.5827 34.5132L23.3164 45.4678L18.5967 86.2945H57.1478L52.428 45.4678L51.1617 34.5132H24.5827ZM29.8885 82.9183V69.3183C29.8885 64.9189 33.4775 61.3172 37.8722 61.2961C42.267 61.3172 45.856 64.9189 45.856 69.3183V82.9183H29.8885ZM37.8722 42.6352C34.0457 42.6563 30.9501 45.7646 30.9501 49.596C30.9501 53.4274 34.0457 56.5354 37.8722 56.5564C41.6987 56.5354 44.7943 53.4274 44.7943 49.596C44.7943 45.7646 41.6987 42.6563 37.8722 42.6352Z" fill="#E73649"/>
<path fill-rule="evenodd" clip-rule="evenodd" d="M24.5811 32.8247V26.0767H51.16V32.8247H24.5811Z" fill="#0CAADD"/>
<path fill-rule="evenodd" clip-rule="evenodd" d="M27.4404 16.7497V10.7998H48.3019V16.7497H27.4404Z" fill="#E73649"/>
<path fill-rule="evenodd" clip-rule="evenodd" d="M37.8705 0L31.7282 4.21163L24.5811 9.11159H51.16L44.0129 4.21163L37.8705 0Z" fill="#E73649"/>
<path d="M5.03018 0.851074L20.2164 9.61884L18.5192 12.5724L3.33301 3.80459L5.03018 0.851074Z" fill="#FEDB2F"/>
<path d="M0 16.228H17.5353V19.6492H0V16.228Z" fill="#FEDB2F"/>
<path d="M3.33301 32.0698L18.5192 23.3022L20.2164 26.2555L5.03018 35.0233L3.33301 32.0698Z" fill="#FEDB2F"/>
<path fill-rule="evenodd" clip-rule="evenodd" d="M27.4404 24.3895V18.4395H48.3019V24.3895H27.4404Z" fill="#0CAADD"/>
</svg>
