<svg width="80" height="80" viewBox="0 0 80 80" fill="none" xmlns="http://www.w3.org/2000/svg">
<g clip-path="url(#clip0_2179_650)">
<path d="M69.6875 9.6875H53.2812V7.03125C53.2812 3.15422 50.127 0 46.25 0H33.75C29.873 0 26.7188 3.15422 26.7188 7.03125V9.6875H10.3125C6.43547 9.6875 3.28125 12.8417 3.28125 16.7188V23.75H21.8623C26.4214 18.9414 32.8663 15.9375 40 15.9375C47.1338 15.9375 53.5784 18.9414 58.1377 23.75H76.7188V16.7188C76.7188 12.8417 73.5645 9.6875 69.6875 9.6875ZM31.4062 9.6875V7.03125C31.4062 5.73891 32.4577 4.6875 33.75 4.6875H46.25C47.5423 4.6875 48.5938 5.73891 48.5938 7.03125V9.6875H31.4062Z" fill="#0CAADD"/>
<path d="M65.0002 40.9375C65.0002 47.63 62.3831 53.9164 57.6312 58.6391C56.8348 59.4306 56.1978 60.3131 55.7344 61.25H69.6877C73.5647 61.25 76.7189 58.0958 76.7189 54.2188V28.4375H61.6442C63.7773 32.1169 65.0002 36.387 65.0002 40.9375Z" fill="#0CAADD"/>
<path d="M15 40.9375C15 36.387 16.2228 32.1169 18.3559 28.4375H3.28125V54.2188C3.28125 58.0958 6.43547 61.25 10.3125 61.25H24.2658C23.8023 60.313 23.1652 59.4305 22.3688 58.6389C17.617 53.9164 15 47.63 15 40.9375Z" fill="#0CAADD"/>
<path d="M29.8438 72.9688C29.8438 76.8458 32.998 80 36.875 80H43.125C47.002 80 50.1562 76.8458 50.1562 72.9688V69.0625H29.8438V72.9688Z" fill="#0CAADD"/>
<path d="M41.4913 44.6426C41.4735 44.6364 41.4571 44.6303 41.4395 44.624V51.0514C42.7091 50.49 43.4598 49.2925 43.6498 48.1612C43.7524 47.5512 43.8999 45.494 41.4913 44.6426Z" fill="#0CAADD"/>
<path d="M36.9225 37.3217C36.7646 38.1596 36.9774 38.9479 37.4644 39.33C37.7118 39.5239 37.9994 39.7118 38.314 39.8942V35.3584C37.4891 35.7831 37.0552 36.617 36.9225 37.3217Z" fill="#0CAADD"/>
<path d="M40 20.625C28.7995 20.625 19.6875 29.7372 19.6875 40.9375C19.6875 46.3723 21.8131 51.478 25.6731 55.3141C28.2122 57.8373 29.6727 61.035 29.8283 64.375H50.1717C50.3275 61.035 51.788 57.8373 54.3267 55.3141C58.1869 51.478 60.3125 46.3723 60.3125 40.9375C60.3125 29.7372 51.2005 20.625 40 20.625ZM46.7314 48.6792C46.3166 51.147 44.4095 53.6492 41.4392 54.3245V55.7812C41.4392 56.6442 40.7395 57.3438 39.8767 57.3438C39.0139 57.3438 38.3142 56.6442 38.3142 55.7812V54.4653C36.8137 54.3611 35.6127 53.9967 33.882 52.8645C33.1598 52.392 32.9575 51.4237 33.4298 50.7016C33.902 49.9794 34.8706 49.777 35.5928 50.2494C36.6831 50.9627 37.3455 51.2356 38.3142 51.3317V43.3952C37.1255 42.8591 36.248 42.3475 35.5363 41.7892C34.1203 40.6786 33.4748 38.7452 33.852 36.7434C34.2645 34.5545 35.7858 32.8137 37.8225 32.2002C37.9891 32.15 38.1523 32.107 38.3142 32.0672V30.7812C38.3142 29.9183 39.0139 29.2188 39.8767 29.2188C40.7395 29.2188 41.4392 29.9183 41.4392 30.7812V31.8859C43.2102 32.1439 44.4553 32.9995 45.0466 33.6783C45.6136 34.3289 45.5456 35.3158 44.895 35.8828C44.2467 36.4478 43.2641 36.3823 42.6963 35.7377C42.6669 35.7077 42.2522 35.2981 41.4392 35.0764V41.2991C41.8059 41.4366 42.1731 41.5691 42.5327 41.6962C45.6133 42.785 47.2616 45.5261 46.7314 48.6792Z" fill="#0CAADD"/>
</g>
<defs>
<clipPath id="clip0_2179_650">
<rect width="80" height="80" fill="white"/>
</clipPath>
</defs>
</svg>
