<svg width="233" height="26" viewBox="0 0 233 26" fill="none" xmlns="http://www.w3.org/2000/svg">
<path d="M0 3.14343H9.3369C11.3706 3.14343 12.8929 3.62562 13.9079 4.59391C14.9185 5.5622 15.426 6.9408 15.426 8.72964C15.426 10.565 14.8722 12.0027 13.7683 13.0344C12.6647 14.0703 10.9777 14.5862 8.71099 14.5862H5.63249V21.3098H0V3.14343ZM5.63249 10.9074H7.01516C8.10642 10.9074 8.87175 10.7171 9.31138 10.3406C9.75118 9.96437 9.97095 9.48233 9.97095 8.89443C9.97095 8.32358 9.78082 7.84143 9.39594 7.44381C9.01538 7.04637 8.2966 6.84784 7.23927 6.84784H5.63249V10.9074Z" fill="#F8F8F8"/>
<path d="M20.7289 12.4042L15.9078 11.897C16.0898 11.0512 16.3518 10.3875 16.6945 9.90515C17.0371 9.41885 17.5273 9.00024 18.1744 8.64498C18.6353 8.3872 19.2697 8.18828 20.0773 8.0488C20.8849 7.90932 21.7604 7.83752 22.7032 7.83752C24.2129 7.83752 25.4225 7.92188 26.3402 8.09116C27.2535 8.26026 28.0188 8.61553 28.6276 9.15245C29.0591 9.52494 29.3972 10.0533 29.6428 10.734C29.8921 11.4149 30.0149 12.0661 30.0149 12.6876V18.5063C30.0149 19.1283 30.0528 19.6143 30.1331 19.9652C30.2092 20.3162 30.3828 20.7646 30.6447 21.3099H25.9215C25.7313 20.9717 25.6084 20.7179 25.5492 20.5402C25.4943 20.3627 25.4353 20.088 25.3759 19.7116C24.7163 20.3456 24.0609 20.7983 23.4053 21.0689C22.5129 21.4326 21.4769 21.6146 20.2972 21.6146C18.7284 21.6146 17.5356 21.2507 16.724 20.5194C15.9078 19.7918 15.502 18.8914 15.502 17.8252C15.502 16.8234 15.7937 15.9987 16.3813 15.3517C16.969 14.7048 18.0517 14.2228 19.6291 13.9098C21.5193 13.5294 22.7457 13.2628 23.3081 13.1064C23.8703 12.9542 24.4666 12.7555 25.0926 12.5061C25.0926 11.8845 24.9656 11.4531 24.7079 11.2034C24.454 10.9539 24.0056 10.8315 23.3633 10.8315C22.5383 10.8315 21.9211 10.9625 21.5067 11.2287C21.1853 11.4403 20.9274 11.8292 20.7289 12.4042ZM25.0926 15.0432C24.3991 15.2924 23.676 15.5126 22.9193 15.707C21.8956 15.9816 21.2446 16.2527 20.9736 16.5189C20.6903 16.7936 20.551 17.1067 20.551 17.4577C20.551 17.8594 20.6904 18.1893 20.9657 18.4429C21.2447 18.6966 21.6505 18.8236 22.1874 18.8236C22.75 18.8236 23.2742 18.6841 23.7605 18.4091C24.2425 18.1344 24.5851 17.7999 24.7879 17.4027C24.9913 17.0052 25.0926 16.4893 25.0926 15.8551V15.0432Z" fill="#F8F8F8"/>
<path d="M31.6123 8.14199H36.3399V10.2898C36.7964 9.35547 37.2659 8.71281 37.7479 8.36169C38.2342 8.01092 38.8304 7.83752 39.5409 7.83752C40.2894 7.83752 41.1054 8.06983 41.9891 8.53531L40.4247 12.1167C39.8284 11.8674 39.3549 11.7448 39.0081 11.7448C38.3486 11.7448 37.8326 12.0194 37.4689 12.5652C36.9487 13.3347 36.6866 14.7768 36.6866 16.8868V21.3099H31.6123V8.14199Z" fill="#F8F8F8"/>
<path d="M56.0446 21.3098H51.3296V19.1871C50.6277 20.062 49.9214 20.6837 49.211 21.056C48.4964 21.4281 47.621 21.6142 46.5808 21.6142C45.1937 21.6142 44.1111 21.2001 43.3204 20.3668C42.5339 19.538 42.1406 18.2565 42.1406 16.5272V8.14166H47.2148V15.3979C47.2148 16.2228 47.3671 16.8105 47.6717 17.1615C47.9762 17.5083 48.4031 17.6815 48.9531 17.6815C49.5495 17.6815 50.04 17.4492 50.4247 16.9882C50.8051 16.5227 50.9954 15.6898 50.9954 14.4888V8.14166H56.0446V21.3098Z" fill="#F8F8F8"/>
<path d="M57.8213 3.14343H62.8705V21.3098H57.8213V3.14343Z" fill="#F8F8F8"/>
<path d="M69.387 0.916687C70.1711 0.916687 70.9366 1.11781 71.6852 1.52135C72.4316 1.92328 73.0153 2.50038 73.4316 3.24895C73.8483 3.99949 74.0574 4.7818 74.0574 5.59355C74.0574 6.39921 73.8526 7.17508 73.44 7.91719C73.0299 8.66163 72.4548 9.23878 71.7126 9.64879C70.9705 10.0611 70.1946 10.2663 69.387 10.2663C68.577 10.2663 67.8012 10.0611 67.0589 9.64879C66.3168 9.23878 65.7397 8.66163 65.3272 7.91719C64.915 7.17508 64.708 6.39921 64.708 5.59355C64.708 4.7818 64.9171 3.99949 65.3357 3.24895C65.7565 2.50038 66.3402 1.92328 67.0864 1.52135C67.8348 1.11781 68.6004 0.916687 69.387 0.916687ZM69.387 1.69062C68.7292 1.69062 68.0888 1.85949 67.4672 2.19571C66.8455 2.53176 66.3592 3.01413 66.0082 3.64009C65.6571 4.26587 65.4816 4.91715 65.4816 5.59355C65.4816 6.26816 65.655 6.91298 65.9998 7.53033C66.3443 8.14767 66.8263 8.63001 67.446 8.97449C68.0653 9.31933 68.7125 9.49241 69.387 9.49241C70.0593 9.49241 70.7062 9.31933 71.3257 8.97449C71.9454 8.63001 72.4273 8.14767 72.7699 7.53033C73.1123 6.91298 73.2835 6.26816 73.2835 5.59355C73.2835 4.91715 73.1083 4.26587 72.7592 3.64009C72.4107 3.01413 71.9243 2.53176 71.3005 2.19571C70.6767 1.85949 70.0382 1.69062 69.387 1.69062ZM67.3339 8.17335V3.14952H69.0636C69.6552 3.14952 70.0824 3.19578 70.3467 3.28913C70.6132 3.38176 70.8224 3.54243 70.9811 3.77508C71.1375 4.00557 71.2158 4.25096 71.2158 4.51108C71.2158 4.87692 71.0849 5.19831 70.8203 5.46902C70.5584 5.7417 70.2094 5.89387 69.7739 5.92761C69.9513 6.00193 70.0953 6.09025 70.2008 6.19401C70.4038 6.39057 70.6514 6.72268 70.9452 7.18995L71.5582 8.17335H70.5733L70.1248 7.38244C69.7739 6.75863 69.4883 6.36741 69.2727 6.2107C69.1248 6.09671 68.9091 6.03965 68.6236 6.04198H68.146V8.17335H67.3339ZM68.146 5.34406H69.1309C69.6027 5.34406 69.924 5.27422 70.0952 5.13474C70.2663 4.99526 70.3531 4.8089 70.3531 4.58092C70.3531 4.43264 70.3108 4.29983 70.2284 4.18333C70.1459 4.06503 70.0316 3.97812 69.8857 3.92121C69.7379 3.86395 69.4675 3.83454 69.0699 3.83454H68.146V5.34406Z" fill="#F8F8F8"/>
<path d="M89.6102 3.14313H91.8582V12.9494C91.8582 14.652 91.6639 16.0072 91.277 17.0108C90.8902 18.0143 90.1949 18.828 89.1883 19.4561C88.1809 20.0886 86.8623 20.4007 85.2273 20.4007C83.6397 20.4007 82.337 20.1277 81.3298 19.5788C80.3184 19.0338 79.5958 18.2393 79.1655 17.2002C78.7316 16.161 78.5176 14.747 78.5176 12.9494V3.14313H80.7608V12.9372C80.7608 14.411 80.8994 15.4977 81.1711 16.1926C81.4445 16.8921 81.9182 17.4293 82.5813 17.8088C83.2485 18.1879 84.0663 18.3778 85.0302 18.3778C86.6803 18.3778 87.8575 18.0023 88.5603 17.2516C89.2592 16.5048 89.6102 15.0669 89.6102 12.9372V3.14313ZM95.4017 20.1121V7.82084H97.2734V9.5673C98.1778 8.21575 99.4808 7.54028 101.183 7.54028C101.926 7.54028 102.605 7.67471 103.225 7.93913C103.848 8.2084 104.311 8.55559 104.618 8.99019C104.93 9.42102 105.144 9.93463 105.27 10.5272C105.345 10.9142 105.385 11.5901 105.385 12.5542V20.1121H103.299V12.633C103.299 11.7874 103.221 11.1515 103.059 10.7286C102.897 10.31 102.609 9.9743 102.198 9.72549C101.783 9.47238 101.301 9.34578 100.745 9.34578C99.8562 9.34578 99.0939 9.63066 98.4459 10.1915C97.8027 10.7566 97.4828 11.8231 97.4828 13.3995V20.1121H95.4017ZM108.661 5.54137V3.14313H110.745V5.54137H108.661ZM108.661 20.1121V7.82084H110.745V20.1121H108.661ZM117.402 20.1121L112.726 7.82084H114.926L117.563 15.1814C117.847 15.9752 118.109 16.8013 118.349 17.6585C118.535 17.0108 118.792 16.2322 119.124 15.3194L121.856 7.82084H123.997L119.344 20.1121H117.402ZM134.317 16.1534L136.469 16.4179C136.13 17.6782 135.502 18.6543 134.586 19.3497C133.666 20.0408 132.493 20.3887 131.068 20.3887C129.271 20.3887 127.845 19.8356 126.794 18.7295C125.741 17.6231 125.215 16.0702 125.215 14.0713C125.215 12.0006 125.748 10.397 126.81 9.25511C127.876 8.11341 129.255 7.54028 130.953 7.54028C132.596 7.54028 133.938 8.10142 134.977 9.21942C136.019 10.3376 136.541 11.9139 136.541 13.9408C136.541 14.0672 136.537 14.253 136.529 14.498H127.368C127.442 15.849 127.825 16.8842 128.512 17.5992C129.2 18.3185 130.053 18.6778 131.079 18.6778C131.841 18.6778 132.493 18.4765 133.034 18.0735C133.575 17.6745 134.001 17.0343 134.317 16.1534ZM127.482 12.7833H134.341C134.25 11.7518 133.985 10.974 133.555 10.46C132.891 9.65796 132.031 9.25511 130.976 9.25511C130.021 9.25511 129.215 9.57519 128.564 10.2152C127.912 10.8549 127.553 11.7127 127.482 12.7833ZM139.137 20.1121V7.82084H141.009V9.68167C141.487 8.81247 141.929 8.23567 142.335 7.9594C142.738 7.68277 143.185 7.54028 143.671 7.54028C144.374 7.54028 145.085 7.76552 145.81 8.21233L145.092 10.1478C144.587 9.84374 144.077 9.69373 143.567 9.69373C143.11 9.69373 142.703 9.83156 142.34 10.1048C141.977 10.3814 141.719 10.76 141.566 11.2465C141.333 11.985 141.218 12.7951 141.218 13.6758V20.1121H139.137ZM146.291 16.4418L148.348 16.1179C148.463 16.9433 148.787 17.5757 149.316 18.0179C149.842 18.4566 150.579 18.6778 151.531 18.6778C152.487 18.6778 153.198 18.4805 153.659 18.0931C154.122 17.7023 154.355 17.2437 154.355 16.722C154.355 16.2484 154.149 15.8804 153.739 15.6079C153.454 15.4225 152.743 15.1895 151.611 14.9048C150.086 14.5176 149.024 14.1858 148.435 13.9011C147.847 13.6209 147.397 13.2296 147.093 12.7318C146.788 12.2342 146.634 11.685 146.634 11.0844C146.634 10.5353 146.761 10.0295 147.014 9.56316C147.263 9.09302 147.606 8.70616 148.036 8.39794C148.361 8.16044 148.802 7.95547 149.36 7.78942C149.92 7.62355 150.52 7.54028 151.16 7.54028C152.124 7.54028 152.969 7.68277 153.7 7.9594C154.43 8.23567 154.967 8.61126 155.314 9.085C155.662 9.56322 155.899 10.1954 156.029 10.9896L153.995 11.2701C153.901 10.6377 153.632 10.1439 153.19 9.78846C152.747 9.43267 152.12 9.25511 151.31 9.25511C150.354 9.25511 149.671 9.41327 149.265 9.72921C148.854 10.0452 148.648 10.4164 148.648 10.8393C148.648 11.1118 148.735 11.3527 148.905 11.5701C149.075 11.7954 149.34 11.9773 149.703 12.127C149.912 12.2025 150.525 12.3803 151.543 12.6565C153.016 13.052 154.042 13.3717 154.624 13.6245C155.207 13.8737 155.666 14.2408 155.997 14.7192C156.33 15.1972 156.495 15.7896 156.495 16.5008C156.495 17.1963 156.289 17.8484 155.887 18.4645C155.48 19.0769 154.896 19.5511 154.134 19.887C153.372 20.2225 152.507 20.3887 151.543 20.3887C149.944 20.3887 148.728 20.0568 147.89 19.393C147.053 18.7293 146.52 17.7454 146.291 16.4418ZM159.052 5.54137V3.14313H161.137V5.54137H159.052ZM159.052 20.1121V7.82084H161.137V20.1121H159.052ZM168.927 18.2473L169.226 20.0886C168.642 20.211 168.117 20.2744 167.655 20.2744C166.896 20.2744 166.312 20.1557 165.894 19.9144C165.479 19.6775 165.188 19.3614 165.017 18.9704C164.847 18.583 164.761 17.7613 164.761 16.5128V9.4408H163.232V7.82084H164.761V4.77466L166.834 3.52656V7.82084H168.927V9.4408H166.834V16.6272C166.834 17.2241 166.869 17.6034 166.941 17.7732C167.016 17.943 167.134 18.0775 167.3 18.18C167.465 18.2789 167.703 18.33 168.011 18.33C168.243 18.33 168.548 18.3026 168.927 18.2473ZM170.943 24.8449L170.71 22.8895C171.168 23.0121 171.563 23.0749 171.903 23.0749C172.365 23.0749 172.736 22.9961 173.012 22.8421C173.292 22.6881 173.518 22.4748 173.695 22.1943C173.83 21.9891 174.039 21.4713 174.331 20.6454C174.371 20.5271 174.434 20.361 174.517 20.1358L169.857 7.82084H172.1L174.659 14.9367C174.987 15.8413 175.287 16.7895 175.548 17.7851C175.788 16.829 176.072 15.8966 176.404 14.9837L179.03 7.82084H181.112L176.439 20.3214C175.938 21.6729 175.548 22.6014 175.271 23.1108C174.9 23.7982 174.477 24.3 174 24.6202C173.518 24.9399 172.949 25.1018 172.286 25.1018C171.883 25.1018 171.437 25.0151 170.943 24.8449Z" fill="#F8F8F8"/>
<path d="M229.127 0H191.284C189.145 0 187.411 1.73405 187.411 3.87313V21.3252C187.411 23.4643 189.145 25.1982 191.284 25.1982H229.127C231.266 25.1982 233 23.4643 233 21.3252V3.87313C233 1.73405 231.266 0 229.127 0Z" fill="#E73649"/>
<path d="M200.218 14.7508V12.5582H205.881V17.7424C205.33 18.275 204.532 18.7455 203.485 19.1539C202.443 19.5564 201.386 19.7576 200.315 19.7576C198.954 19.7576 197.768 19.4736 196.755 18.9052C195.743 18.3313 194.983 17.5146 194.474 16.4553C193.965 15.3899 193.711 14.2331 193.711 12.9842C193.711 11.6291 193.995 10.4248 194.563 9.37137C195.131 8.31781 195.962 7.50998 197.057 6.94774C197.892 6.51583 198.931 6.29974 200.173 6.29974C201.789 6.29974 203.049 6.64005 203.955 7.32058C204.866 7.99537 205.452 8.93026 205.713 10.1258L203.102 10.6141C202.919 9.9749 202.573 9.4719 202.064 9.10498C201.561 8.73213 200.931 8.54576 200.173 8.54576C199.025 8.54576 198.11 8.90963 197.43 9.63756C196.755 10.3655 196.418 11.4456 196.418 12.8778C196.418 14.4225 196.761 15.5823 197.448 16.3576C198.134 17.127 199.034 17.5116 200.147 17.5116C200.697 17.5116 201.248 17.4051 201.797 17.192C202.354 16.9732 202.831 16.7098 203.227 16.402V14.7508H200.218ZM219.82 12.9844L217.556 12.576C217.811 11.6646 218.248 10.99 218.87 10.552C219.492 10.1142 220.415 9.89519 221.64 9.89519C222.752 9.89519 223.581 10.0284 224.125 10.2946C224.67 10.5551 225.052 10.8893 225.271 11.2977C225.496 11.7002 225.608 12.4428 225.608 13.526L225.581 16.4375C225.581 17.2661 225.62 17.8787 225.697 18.2752C225.78 18.6658 225.931 19.086 226.149 19.5357H223.681C223.617 19.37 223.537 19.1245 223.442 18.799C223.4 18.6511 223.371 18.5534 223.353 18.506C222.927 18.9204 222.471 19.2311 221.986 19.438C221.501 19.6452 220.983 19.7488 220.432 19.7488C219.462 19.7488 218.695 19.4854 218.133 18.9588C217.577 18.4321 217.299 17.7663 217.299 16.9613C217.299 16.4287 217.426 15.9553 217.68 15.541C217.935 15.1208 218.29 14.8012 218.746 14.5822C219.207 14.3573 219.87 14.1622 220.735 13.9965C221.9 13.7773 222.708 13.5732 223.157 13.3838V13.1354C223.157 12.6559 223.039 12.3155 222.803 12.1145C222.566 11.9073 222.119 11.8038 221.462 11.8038C221.019 11.8038 220.672 11.8926 220.424 12.07C220.175 12.2416 219.974 12.5466 219.82 12.9844ZM223.157 15.0084C222.838 15.1149 222.332 15.2421 221.64 15.39C220.948 15.5381 220.495 15.683 220.281 15.825C219.956 16.0558 219.793 16.3488 219.793 16.7039C219.793 17.0531 219.924 17.3548 220.184 17.6094C220.444 17.8639 220.776 17.9912 221.178 17.9912C221.628 17.9912 222.057 17.8433 222.465 17.5473C222.767 17.3223 222.966 17.0474 223.06 16.7217C223.126 16.5086 223.157 16.1033 223.157 15.5055V15.0084ZM206.992 14.6889C206.992 13.8602 207.196 13.0584 207.604 12.2833C208.012 11.5078 208.589 10.9161 209.335 10.5077C210.087 10.0993 210.924 9.89519 211.848 9.89519C213.274 9.89519 214.443 10.3596 215.354 11.2889C216.266 12.2122 216.721 13.3809 216.721 14.7953C216.721 16.2215 216.26 17.4053 215.336 18.3463C214.419 19.2812 213.262 19.7488 211.865 19.7488C211.001 19.7488 210.176 19.5535 209.388 19.1629C208.607 18.7723 208.012 18.2012 207.604 17.4496C207.196 16.692 206.992 15.7719 206.992 14.6889ZM209.548 14.8219C209.548 15.757 209.77 16.4733 210.215 16.9702C210.658 17.4674 211.205 17.716 211.856 17.716C212.507 17.716 213.052 17.4674 213.489 16.9702C213.933 16.4733 214.156 15.7513 214.156 14.8042C214.156 13.8809 213.933 13.1707 213.489 12.6738C213.052 12.1766 212.507 11.928 211.856 11.928C211.205 11.928 210.658 12.1766 210.215 12.6738C209.77 13.1707 209.548 13.887 209.548 14.8219Z" fill="white"/>
</svg>
