<svg width="375" height="268" viewBox="0 0 375 268" fill="none" xmlns="http://www.w3.org/2000/svg">
<mask id="mask0_2848_136" style="mask-type:alpha" maskUnits="userSpaceOnUse" x="0" y="0" width="375" height="268">
<rect x="0.5" y="0.5" width="374" height="267" rx="15.5" fill="white" stroke="#0CAADD"/>
</mask>
<g mask="url(#mask0_2848_136)">
<rect x="0.5" y="0.5" width="374" height="267" rx="15.5" fill="#0CAADD" stroke="#0CAADD"/>
<g opacity="0.4">
<path d="M279.918 96.1157C285.888 107.687 297.761 115.1 310.877 115.1C323.992 115.1 335.866 107.686 341.836 96.1157L355.349 96.1157C354.213 99.3087 352.83 102.398 351.037 105.267L351.003 105.322L351.036 105.377L353.77 109.938C354.493 111.142 354.302 112.684 353.31 113.675L344.362 122.624C343.37 123.612 341.829 123.802 340.626 123.083L336.065 120.348L336.01 120.315L335.955 120.349C331.512 123.13 326.681 125.128 321.545 126.305L321.481 126.32L321.466 126.382L320.171 131.559C319.827 132.928 318.599 134.084 317.205 134.084L304.549 134.084C303.154 134.084 301.926 132.928 301.583 131.559L300.288 126.382L300.272 126.32L300.21 126.305L299.25 126.075C294.471 124.875 289.964 122.956 285.8 120.349L285.745 120.315L285.69 120.348L281.129 123.083C279.918 123.8 278.381 123.617 277.392 122.624L277.391 122.624L268.443 113.675C267.451 112.684 267.261 111.142 267.984 109.938L270.719 105.377L270.752 105.322L270.718 105.267C268.923 102.398 267.541 99.3087 266.404 96.1157L279.918 96.1157Z" fill="#F8F8F8" stroke="#0CAADD" stroke-width="0.210938"/>
<path d="M261.623 80.2954L360.131 80.2954C362.693 80.2954 364.771 82.3732 364.771 84.936C364.771 87.4988 362.693 89.5767 360.131 89.5767L261.623 89.5767C259.06 89.5767 256.982 87.4988 256.982 84.936C256.982 82.3732 259.06 80.2954 261.623 80.2954Z" fill="#F8F8F8" stroke="#0CAADD" stroke-width="0.210938"/>
<path d="M304.549 26.2954L317.205 26.2954C320.642 26.2954 323.427 29.081 323.427 32.5181L323.427 54.8774C323.427 56.6841 324.89 58.1469 326.697 58.147C328.504 58.147 329.967 56.6842 329.967 54.8774L329.967 37.1245C332.099 38.0739 334.141 39.1605 336.084 40.3979L336.084 54.8774C336.084 56.6841 337.547 58.1469 339.353 58.147C341.16 58.147 342.623 56.6842 342.623 54.8774L342.623 45.3481C350.681 52.7107 356.157 62.7181 357.709 73.7563L264.045 73.7563C265.596 62.7183 271.073 52.7117 279.131 45.3491L279.131 54.8774C279.131 56.6841 280.593 58.1469 282.4 58.147C284.207 58.147 285.67 56.6842 285.67 54.8774L285.67 40.3979C287.613 39.1605 289.654 38.0739 291.787 37.1245L291.787 54.8774C291.787 56.6841 293.25 58.1469 295.056 58.147C296.863 58.147 298.326 56.6842 298.326 54.8774L298.326 32.5181C298.326 29.1892 300.939 26.4706 304.228 26.3032L304.549 26.2954Z" fill="#F8F8F8" stroke="#0CAADD" stroke-width="0.210938"/>
</g>
</g>
<rect x="0.5" y="0.5" width="374" height="267" rx="15.5" stroke="#0CAADD"/>
<path d="M36.88 120.145V97.7454H53.488V101.265H40.816V107.089H52.048V110.609H40.816V116.625H53.648V120.145H36.88ZM56.5895 120.145V103.249H60.4615V105.873C61.5495 104.273 63.1175 102.897 65.7415 102.897C69.5495 102.897 71.7575 105.457 71.7575 109.393V120.145H67.8855V110.545C67.8855 107.921 66.5735 106.417 64.2695 106.417C62.0295 106.417 60.4615 107.985 60.4615 110.609V120.145H56.5895ZM82.6732 125.329C79.8892 125.329 77.2972 124.625 75.1212 123.313L76.5612 120.401C78.3532 121.521 80.2732 122.193 82.5772 122.193C86.0332 122.193 87.9212 120.401 87.9212 117.009V115.697C86.5132 117.521 84.7532 118.801 81.9692 118.801C78.0012 118.801 74.2892 115.857 74.2892 110.897V110.833C74.2892 105.841 78.0332 102.897 81.9692 102.897C84.8172 102.897 86.5772 104.209 87.8892 105.777V103.249H91.7612V116.689C91.7612 119.537 91.0252 121.649 89.6172 123.057C88.0812 124.593 85.7132 125.329 82.6732 125.329ZM82.9932 115.537C85.6812 115.537 87.9532 113.617 87.9532 110.897V110.833C87.9532 108.049 85.6812 106.161 82.9932 106.161C80.3052 106.161 78.1932 108.017 78.1932 110.801V110.865C78.1932 113.649 80.3372 115.537 82.9932 115.537ZM95.3747 100.657V96.9774H99.5347V100.657H95.3747ZM95.5347 120.145V103.249H99.4068V120.145H95.5347ZM103.187 120.145V103.249H107.059V105.873C108.147 104.273 109.715 102.897 112.339 102.897C116.147 102.897 118.355 105.457 118.355 109.393V120.145H114.483V110.545C114.483 107.921 113.171 106.417 110.867 106.417C108.627 106.417 107.059 107.985 107.059 110.609V120.145H103.187ZM129.495 120.529C124.599 120.529 120.823 116.977 120.823 111.761V111.697C120.823 106.865 124.247 102.897 129.079 102.897C134.455 102.897 137.175 107.121 137.175 111.985C137.175 112.337 137.143 112.689 137.111 113.073H124.695C125.111 115.825 127.063 117.361 129.559 117.361C131.447 117.361 132.791 116.657 134.135 115.345L136.407 117.361C134.807 119.281 132.599 120.529 129.495 120.529ZM124.663 110.513H133.335C133.079 108.017 131.607 106.065 129.047 106.065C126.679 106.065 125.015 107.889 124.663 110.513ZM147.527 120.529C142.631 120.529 138.855 116.977 138.855 111.761V111.697C138.855 106.865 142.279 102.897 147.111 102.897C152.487 102.897 155.207 107.121 155.207 111.985C155.207 112.337 155.175 112.689 155.143 113.073H142.727C143.143 115.825 145.095 117.361 147.591 117.361C149.479 117.361 150.823 116.657 152.167 115.345L154.439 117.361C152.839 119.281 150.631 120.529 147.527 120.529ZM142.695 110.513H151.367C151.111 108.017 149.639 106.065 147.079 106.065C144.711 106.065 143.047 107.889 142.695 110.513ZM157.816 120.145V103.249H161.688V107.057C162.744 104.529 164.696 102.801 167.672 102.929V107.025H167.448C164.056 107.025 161.688 109.233 161.688 113.713V120.145H157.816ZM169.818 100.657V96.9774H173.978V100.657H169.818ZM169.978 120.145V103.249H173.85V120.145H169.978ZM177.631 120.145V103.249H181.503V105.873C182.591 104.273 184.159 102.897 186.783 102.897C190.591 102.897 192.799 105.457 192.799 109.393V120.145H188.927V110.545C188.927 107.921 187.615 106.417 185.311 106.417C183.071 106.417 181.503 107.985 181.503 110.609V120.145H177.631ZM203.714 125.329C200.93 125.329 198.338 124.625 196.162 123.313L197.602 120.401C199.394 121.521 201.314 122.193 203.618 122.193C207.074 122.193 208.962 120.401 208.962 117.009V115.697C207.554 117.521 205.794 118.801 203.01 118.801C199.042 118.801 195.33 115.857 195.33 110.897V110.833C195.33 105.841 199.074 102.897 203.01 102.897C205.858 102.897 207.618 104.209 208.93 105.777V103.249H212.802V116.689C212.802 119.537 212.066 121.649 210.658 123.057C209.122 124.593 206.754 125.329 203.714 125.329ZM204.034 115.537C206.722 115.537 208.994 113.617 208.994 110.897V110.833C208.994 108.049 206.722 106.161 204.034 106.161C201.346 106.161 199.234 108.017 199.234 110.801V110.865C199.234 113.649 201.378 115.537 204.034 115.537ZM215.424 124.785L215.008 123.153C216.96 122.769 217.888 121.777 217.728 120.145H216.096V115.761H220.352V119.473C220.352 123.025 218.656 124.529 215.424 124.785ZM37.104 158.145V135.745H41.04V158.145H37.104ZM51.2603 158.145V139.393H44.1563V135.745H62.3323V139.393H55.2283V158.145H51.2603ZM89.06 158.593L86.084 155.553C84.164 157.345 81.924 158.465 79.204 158.465C75.044 158.465 71.908 155.937 71.908 152.065V152.001C71.908 149.121 73.604 147.041 76.676 145.729C75.396 144.097 74.82 142.689 74.82 141.057V140.993C74.82 137.985 77.252 135.361 81.252 135.361C84.804 135.361 87.204 137.761 87.204 140.769V140.833C87.204 143.777 85.252 145.537 82.276 146.657L86.116 150.561C86.98 149.281 87.78 147.809 88.516 146.241L91.492 147.809C90.596 149.601 89.604 151.361 88.452 152.929L91.972 156.513L89.06 158.593ZM80.196 144.545C82.5 143.713 83.716 142.657 83.716 141.057V140.993C83.716 139.489 82.66 138.465 81.156 138.465C79.556 138.465 78.5 139.585 78.5 141.153V141.217C78.5 142.337 78.948 143.169 80.196 144.545ZM79.62 155.201C81.156 155.201 82.564 154.465 83.844 153.249L78.852 148.161C76.772 149.057 75.876 150.433 75.876 151.873V151.937C75.876 153.825 77.444 155.201 79.62 155.201ZM113.255 158.529C106.727 158.529 101.863 153.441 101.863 147.009V146.945C101.863 140.577 106.631 135.361 113.415 135.361C117.543 135.361 120.039 136.801 122.183 138.849L119.655 141.761C117.863 140.097 115.943 138.977 113.383 138.977C109.095 138.977 105.991 142.497 105.991 146.881V146.945C105.991 151.329 109.095 154.913 113.383 154.913C116.135 154.913 117.895 153.793 119.815 152.001L122.343 154.561C120.007 156.993 117.447 158.529 113.255 158.529ZM133.04 158.465C129.616 158.465 126.384 157.281 123.696 154.881L126.064 152.065C128.208 153.921 130.352 154.977 133.136 154.977C135.568 154.977 137.104 153.857 137.104 152.161V152.097C137.104 150.497 136.208 149.633 132.048 148.673C127.28 147.521 124.592 146.113 124.592 141.985V141.921C124.592 138.081 127.792 135.425 132.24 135.425C135.504 135.425 138.096 136.417 140.368 138.241L138.256 141.217C136.24 139.713 134.224 138.913 132.176 138.913C129.872 138.913 128.528 140.097 128.528 141.569V141.633C128.528 143.361 129.552 144.129 133.84 145.153C138.576 146.305 141.04 148.001 141.04 151.713V151.777C141.04 155.969 137.744 158.465 133.04 158.465Z" fill="white"/>
<rect x="34" y="175.145" width="60.8546" height="19.8546" rx="9.92731" fill="white"/>
<path d="M41.5708 188.573V181.527H44.3442C45.0441 181.527 45.6398 181.664 46.1313 181.937C46.6229 182.207 46.9989 182.601 47.2593 183.119C47.5197 183.636 47.6499 184.263 47.6499 184.999V185.008C47.6499 185.767 47.5197 186.411 47.2593 186.942C47.0021 187.472 46.6278 187.878 46.1362 188.158C45.6447 188.434 45.0474 188.573 44.3442 188.573H41.5708ZM43.0454 187.357H44.1099C44.5461 187.357 44.9155 187.267 45.2183 187.088C45.521 186.909 45.7505 186.647 45.9067 186.302C46.0662 185.954 46.146 185.531 46.146 185.033V185.023C46.146 184.538 46.0646 184.126 45.9019 183.788C45.7424 183.446 45.5096 183.187 45.2036 183.011C44.9009 182.832 44.5363 182.743 44.1099 182.743H43.0454V187.357ZM49.0513 188.573V181.527H50.5259V188.573H49.0513ZM52.9722 186.351V185.199H54.7788C55.202 185.199 55.5308 185.091 55.7651 184.876C56.0028 184.658 56.1216 184.349 56.1216 183.949V183.939C56.1216 183.539 56.0028 183.231 55.7651 183.016C55.5308 182.801 55.202 182.694 54.7788 182.694H52.9722V181.527H55.1401C55.6349 181.527 56.0679 181.628 56.439 181.83C56.8101 182.028 57.0981 182.308 57.3032 182.669C57.5116 183.031 57.6157 183.452 57.6157 183.934V183.944C57.6157 184.429 57.5116 184.852 57.3032 185.213C57.0981 185.575 56.8101 185.855 56.439 186.053C56.0679 186.252 55.6349 186.351 55.1401 186.351H52.9722ZM52.2349 188.573V181.527H53.7095V188.573H52.2349ZM58.9731 188.573V181.527H60.4478V187.357H63.5825V188.573H58.9731ZM67.8062 188.753C67.1095 188.753 66.5073 188.604 65.9995 188.304C65.4917 188.001 65.0994 187.573 64.8228 187.02C64.5493 186.467 64.4126 185.811 64.4126 185.052V185.042C64.4126 184.281 64.5509 183.625 64.8276 183.075C65.1076 182.521 65.5015 182.095 66.0093 181.795C66.5171 181.496 67.116 181.346 67.8062 181.346C68.4995 181.346 69.0985 181.496 69.603 181.795C70.1108 182.095 70.5031 182.521 70.7798 183.075C71.0565 183.628 71.1948 184.284 71.1948 185.042V185.052C71.1948 185.811 71.0565 186.467 70.7798 187.02C70.5063 187.573 70.1157 188.001 69.6079 188.304C69.1001 188.604 68.4995 188.753 67.8062 188.753ZM67.8062 187.503C68.187 187.503 68.519 187.403 68.8022 187.201C69.0854 186.999 69.3035 186.714 69.4565 186.346C69.6128 185.978 69.6909 185.547 69.6909 185.052V185.042C69.6909 184.544 69.6128 184.113 69.4565 183.749C69.3035 183.381 69.0854 183.097 68.8022 182.899C68.519 182.697 68.187 182.596 67.8062 182.596C67.4253 182.596 67.0933 182.697 66.8101 182.899C66.5269 183.097 66.3071 183.381 66.1509 183.749C65.9946 184.113 65.9165 184.544 65.9165 185.042V185.052C65.9165 185.547 65.993 185.978 66.146 186.346C66.3022 186.714 66.5203 186.999 66.8003 187.201C67.0835 187.403 67.4188 187.503 67.8062 187.503ZM72.5962 188.573V181.527H74.2856L76.2339 186.683H76.3218L78.2651 181.527H79.9546V188.573H78.6411V183.778H77.9136L79.3198 181.722L76.7368 188.573H75.814L73.2358 181.722L74.6372 183.778H73.9097V188.573H72.5962ZM81.1655 188.573L83.6118 181.527H84.8667V182.933H84.437L82.7134 188.573H81.1655ZM82.4741 186.864L82.8354 185.76H86.0923L86.4536 186.864H82.4741ZM86.2437 188.573L84.5249 182.933V181.527H85.3452L87.7964 188.573H86.2437Z" fill="black"/>
<rect x="98.8547" y="175.145" width="50.8546" height="19.8546" rx="9.92731" fill="white"/>
<path d="M107.075 188.573V187.474H109.126C109.552 187.474 109.876 187.386 110.097 187.21C110.322 187.035 110.434 186.779 110.434 186.444V186.434C110.434 186.216 110.382 186.032 110.278 185.882C110.177 185.733 110.026 185.62 109.824 185.545C109.625 185.467 109.381 185.428 109.092 185.428H107.075V184.457H108.921C109.318 184.457 109.622 184.377 109.834 184.217C110.045 184.058 110.151 183.833 110.151 183.543V183.534C110.151 183.247 110.053 183.024 109.858 182.865C109.666 182.702 109.394 182.621 109.043 182.621H107.075V181.527H109.419C109.878 181.527 110.268 181.598 110.591 181.742C110.916 181.882 111.165 182.083 111.338 182.347C111.513 182.608 111.601 182.918 111.601 183.28V183.29C111.601 183.537 111.544 183.768 111.43 183.983C111.32 184.198 111.168 184.377 110.976 184.52C110.784 184.663 110.568 184.753 110.327 184.789V184.876C110.639 184.899 110.916 184.987 111.157 185.14C111.401 185.293 111.592 185.492 111.728 185.736C111.868 185.98 111.938 186.252 111.938 186.551V186.561C111.938 186.971 111.839 187.328 111.64 187.63C111.445 187.93 111.165 188.163 110.801 188.329C110.439 188.491 110.006 188.573 109.502 188.573H107.075ZM106.338 188.573V181.527H107.812V188.573H106.338ZM114.155 188.695C113.908 188.695 113.703 188.613 113.54 188.451C113.377 188.288 113.296 188.086 113.296 187.845C113.296 187.604 113.377 187.404 113.54 187.245C113.703 187.082 113.908 187 114.155 187C114.409 187 114.616 187.082 114.775 187.245C114.935 187.404 115.014 187.604 115.014 187.845C115.014 188.086 114.935 188.288 114.775 188.451C114.616 188.613 114.409 188.695 114.155 188.695ZM117.578 188.573V182.743H115.464V181.527H121.167V182.743H119.052V188.573H117.578ZM122.47 188.573V181.527H127.138V182.743H123.945V184.442H126.958V185.575H123.945V187.357H127.138V188.573H122.47ZM131.684 188.753C131.004 188.753 130.416 188.604 129.922 188.304C129.427 188.005 129.046 187.578 128.779 187.025C128.512 186.472 128.379 185.814 128.379 185.052V185.042C128.379 184.281 128.512 183.623 128.779 183.07C129.046 182.516 129.425 182.092 129.917 181.795C130.412 181.496 131.001 181.346 131.684 181.346C132.241 181.346 132.741 181.455 133.183 181.673C133.629 181.891 133.989 182.193 134.262 182.577C134.536 182.961 134.695 183.4 134.741 183.895V183.958H133.31L133.305 183.924C133.257 183.661 133.157 183.43 133.008 183.231C132.858 183.029 132.669 182.873 132.441 182.762C132.217 182.652 131.964 182.596 131.684 182.596C131.316 182.596 130.997 182.695 130.727 182.894C130.457 183.089 130.249 183.371 130.102 183.739C129.959 184.103 129.887 184.538 129.887 185.042V185.052C129.887 185.554 129.959 185.988 130.102 186.356C130.249 186.724 130.457 187.007 130.727 187.206C130.997 187.404 131.318 187.503 131.689 187.503C131.972 187.503 132.225 187.453 132.446 187.352C132.671 187.248 132.856 187.103 133.003 186.917C133.152 186.729 133.252 186.509 133.301 186.258L133.31 186.214H134.746V186.273C134.694 186.764 134.533 187.196 134.262 187.567C133.992 187.938 133.637 188.229 133.198 188.441C132.759 188.649 132.254 188.753 131.684 188.753ZM136.103 188.573V181.527H137.578V184.388H140.752V181.527H142.226V188.573H140.752V185.604H137.578V188.573H136.103Z" fill="black"/>
<rect x="153.709" y="175.145" width="34.8546" height="19.8546" rx="9.92731" fill="white"/>
<path d="M162.001 188.573V187.474H164.052C164.478 187.474 164.802 187.386 165.023 187.21C165.248 187.035 165.36 186.779 165.36 186.444V186.434C165.36 186.216 165.308 186.032 165.204 185.882C165.103 185.733 164.952 185.62 164.75 185.545C164.551 185.467 164.307 185.428 164.017 185.428H162.001V184.457H163.846C164.244 184.457 164.548 184.377 164.76 184.217C164.971 184.058 165.077 183.833 165.077 183.543V183.534C165.077 183.247 164.979 183.024 164.784 182.865C164.592 182.702 164.32 182.621 163.969 182.621H162.001V181.527H164.344C164.803 181.527 165.194 181.598 165.516 181.742C165.842 181.882 166.091 182.083 166.263 182.347C166.439 182.608 166.527 182.918 166.527 183.28V183.29C166.527 183.537 166.47 183.768 166.356 183.983C166.246 184.198 166.094 184.377 165.902 184.52C165.71 184.663 165.494 184.753 165.253 184.789V184.876C165.565 184.899 165.842 184.987 166.083 185.14C166.327 185.293 166.517 185.492 166.654 185.736C166.794 185.98 166.864 186.252 166.864 186.551V186.561C166.864 186.971 166.765 187.328 166.566 187.63C166.371 187.93 166.091 188.163 165.726 188.329C165.365 188.491 164.932 188.573 164.427 188.573H162.001ZM161.263 188.573V181.527H162.738V188.573H161.263ZM171.19 188.753C170.51 188.753 169.922 188.604 169.427 188.304C168.933 188.005 168.552 187.578 168.285 187.025C168.018 186.472 167.885 185.814 167.885 185.052V185.042C167.885 184.281 168.018 183.623 168.285 183.07C168.552 182.516 168.931 182.092 169.423 181.795C169.917 181.496 170.507 181.346 171.19 181.346C171.747 181.346 172.247 181.455 172.689 181.673C173.135 181.891 173.495 182.193 173.768 182.577C174.042 182.961 174.201 183.4 174.247 183.895V183.958H172.816L172.811 183.924C172.762 183.661 172.663 183.43 172.513 183.231C172.364 183.029 172.175 182.873 171.947 182.762C171.722 182.652 171.47 182.596 171.19 182.596C170.822 182.596 170.503 182.695 170.233 182.894C169.963 183.089 169.755 183.371 169.608 183.739C169.465 184.103 169.393 184.538 169.393 185.042V185.052C169.393 185.554 169.465 185.988 169.608 186.356C169.755 186.724 169.963 187.007 170.233 187.206C170.503 187.404 170.824 187.503 171.195 187.503C171.478 187.503 171.731 187.453 171.952 187.352C172.177 187.248 172.362 187.103 172.509 186.917C172.658 186.729 172.758 186.509 172.806 186.258L172.816 186.214H174.252V186.273C174.2 186.764 174.038 187.196 173.768 187.567C173.498 187.938 173.143 188.229 172.704 188.441C172.264 188.649 171.76 188.753 171.19 188.753ZM174.891 188.573L177.338 181.527H178.593V182.933H178.163L176.439 188.573H174.891ZM176.2 186.864L176.561 185.76H179.818L180.179 186.864H176.2ZM179.969 188.573L178.251 182.933V181.527H179.071L181.522 188.573H179.969Z" fill="black"/>
<rect x="192.564" y="175.145" width="36.8546" height="19.8546" rx="9.92731" fill="white"/>
<path d="M200.049 188.573V181.527H201.738L203.687 186.683H203.774L205.718 181.527H207.407V188.573H206.094V183.778H205.366L206.772 181.722L204.189 188.573H203.267L200.688 181.722L202.09 183.778H201.362V188.573H200.049ZM212.114 188.753C211.434 188.753 210.846 188.604 210.352 188.304C209.857 188.005 209.476 187.578 209.209 187.025C208.942 186.472 208.809 185.814 208.809 185.052V185.042C208.809 184.281 208.942 183.623 209.209 183.07C209.476 182.516 209.855 182.092 210.347 181.795C210.841 181.496 211.431 181.346 212.114 181.346C212.671 181.346 213.171 181.455 213.613 181.673C214.059 181.891 214.419 182.193 214.692 182.577C214.966 182.961 215.125 183.4 215.171 183.895V183.958H213.74L213.735 183.924C213.687 183.661 213.587 183.43 213.438 183.231C213.288 183.029 213.099 182.873 212.871 182.762C212.646 182.652 212.394 182.596 212.114 182.596C211.746 182.596 211.427 182.695 211.157 182.894C210.887 183.089 210.679 183.371 210.532 183.739C210.389 184.103 210.317 184.538 210.317 185.042V185.052C210.317 185.554 210.389 185.988 210.532 186.356C210.679 186.724 210.887 187.007 211.157 187.206C211.427 187.404 211.748 187.503 212.119 187.503C212.402 187.503 212.655 187.453 212.876 187.352C213.101 187.248 213.286 187.103 213.433 186.917C213.582 186.729 213.682 186.509 213.73 186.258L213.74 186.214H215.176V186.273C215.124 186.764 214.963 187.196 214.692 187.567C214.422 187.938 214.067 188.229 213.628 188.441C213.188 188.649 212.684 188.753 212.114 188.753ZM215.815 188.573L218.262 181.527H219.517V182.933H219.087L217.363 188.573H215.815ZM217.124 186.864L217.485 185.76H220.742L221.104 186.864H217.124ZM220.894 188.573L219.175 182.933V181.527H219.995L222.446 188.573H220.894Z" fill="black"/>
</svg>
