<svg width="351" height="434" viewBox="0 0 351 434" fill="none" xmlns="http://www.w3.org/2000/svg">
<rect width="351" height="434" rx="24" fill="#FEDB2F"/>
<g opacity="0.5">
<path d="M235.499 216.428C268.36 216.428 294.999 190.921 294.999 159.456C294.999 127.992 268.36 102.484 235.499 102.484C202.638 102.484 175.999 127.992 175.999 159.456C175.999 190.921 202.638 216.428 235.499 216.428Z" fill="white"/>
<path d="M116.5 216.428C149.361 216.428 176 190.921 176 159.456C176 127.992 149.361 102.484 116.5 102.484C83.6392 102.484 57 127.992 57 159.456C57 190.921 83.6392 216.428 116.5 216.428Z" fill="white"/>
<path d="M235.499 330.369C268.36 330.369 294.999 304.861 294.999 273.397C294.999 241.932 268.36 216.425 235.499 216.425C202.638 216.425 175.999 241.932 175.999 273.397C175.999 304.861 202.638 330.369 235.499 330.369Z" fill="white"/>
<path d="M116.5 330.369C149.361 330.369 176 304.861 176 273.397C176 241.932 149.361 216.425 116.5 216.425C83.6392 216.425 57 241.932 57 273.397C57 304.861 83.6392 330.369 116.5 330.369Z" fill="white"/>
<path d="M237.912 157.146H114.088V275.709H237.912V157.146Z" fill="#E0E0E0"/>
<path d="M235.499 216.422C202.643 216.422 176.001 241.931 176.001 273.399C176.001 241.931 149.36 216.422 116.504 216.422C149.36 216.422 176.001 190.921 176.001 159.452C176.001 190.921 202.643 216.422 235.499 216.422Z" fill="white"/>
</g>
</svg>
