<svg width="271" height="131" viewBox="0 0 271 131" fill="none" xmlns="http://www.w3.org/2000/svg">
<path d="M181.473 58.4476C179.149 58.4476 176.618 58.8038 173.919 59.4224C174.162 48.6251 166.833 38.6339 156.767 37.6404C153.112 30.8359 146.232 23.1316 133.748 23.1316C127.431 23.1316 120.232 25.1373 112.341 29.0738C121.245 18.1828 135.266 12.653 147.376 5.88597C148.182 5.43608 148.163 4.23638 147.376 3.7865C127.056 -7.98552 106.473 9.59753 105.33 30.3485C99.7251 28.3428 94.5327 27.293 89.8463 27.293C65.59 27.293 62.0284 54.1362 61.9909 54.4174C61.9159 54.961 62.2159 55.4671 62.722 55.6921C62.8719 55.7483 63.0406 55.7858 63.1906 55.7858C63.5468 55.7858 63.9029 55.6171 64.1466 55.3359C71.6822 45.9446 88.2905 40.7709 99.9875 38.1653C91.8333 45.026 87.4657 52.4304 86.9971 60.2472C86.1348 74.5873 98.5816 84.8409 99.1065 85.2721C99.3314 85.4595 99.6126 85.5533 99.8751 85.5533C99.8938 85.5533 99.8938 85.5533 99.8938 85.5533C100.475 85.572 101.131 85.0096 101.131 84.3348C101.131 84.0724 101.056 83.8474 100.906 83.6412C97.4194 73.1626 101.037 58.0915 104.711 47.2567C105.724 47.8753 106.98 48.1003 108.254 47.8003C109.96 47.3692 111.216 46.0758 111.61 44.5387C126.212 65.8145 130.73 95.9381 122.726 121.132C116.84 124.393 113.315 128.311 113.072 128.592C112.753 128.948 112.678 129.455 112.884 129.905C113.09 130.336 113.522 130.617 113.99 130.617H165.146C165.165 130.617 165.183 130.617 165.183 130.617C165.858 130.617 166.402 130.073 166.402 129.398C166.402 128.93 166.158 128.536 165.783 128.33C162.822 125.649 159.822 123.456 156.786 121.713C156.842 121.507 156.842 121.3 156.786 121.094C152.137 103.53 157.086 82.8727 168.558 69.3011C168.839 70.1447 169.457 70.8757 170.395 71.2131C171.069 71.4568 171.744 71.4193 172.363 71.2131C174.031 78.5988 175.362 88.7587 172.269 95.3008C172.044 95.7882 172.157 96.3693 172.569 96.7442C172.794 96.9316 173.094 97.0441 173.375 97.0441C173.6 97.0441 173.825 96.9878 174.031 96.8566C174.425 96.5942 183.479 90.6145 183.929 80.9232C184.154 76.0307 182.092 71.1757 177.874 66.3769C185.166 68.9637 194.557 73.2939 198.531 79.4798C198.756 79.836 199.15 80.0422 199.562 80.0422C199.675 80.0422 199.806 80.0234 199.918 79.9859C200.443 79.836 200.799 79.3486 200.781 78.805C200.799 78.5613 200.256 58.4476 181.473 58.4476ZM112.828 32.9541C112.847 32.9541 112.847 32.9541 112.866 32.9541C112.866 32.9728 112.847 32.9728 112.847 32.9916C112.828 32.9728 112.828 32.9728 112.828 32.9541ZM139.484 116.67C143.027 91.2143 135.547 63.1902 119.67 41.3707C122.294 40.3022 123.831 37.5654 123.175 34.8661C123.119 34.6412 123.025 34.435 122.95 34.21C130.28 35.3722 139.503 37.453 147.244 41.052C147.319 41.1458 147.394 41.2582 147.488 41.3145C150.937 43.7514 154.649 46.0383 158.135 48.5501C158.229 48.6439 158.323 48.7376 158.398 48.8313C158.566 49.0188 158.773 49.1125 158.998 49.1687C162.165 51.5119 165.108 54.0987 167.489 57.173C162.447 54.2487 157.779 52.7491 153.543 52.7491C140.027 52.7491 135.66 67.7453 135.622 67.8952C135.472 68.4201 135.697 68.9825 136.166 69.2636C136.372 69.3949 136.578 69.4511 136.803 69.4511C137.103 69.4511 137.403 69.3386 137.628 69.1324C143.177 64.0337 153.974 62.3466 161.491 61.803C161.022 63.3589 161.659 65.0085 163.028 65.9457C150.337 80.0047 143.402 99.2748 144.882 117.176C143.083 116.877 141.283 116.67 139.484 116.67Z" fill="#423D3D"/>
<path d="M32.8042 96.7827C32.8042 96.7827 7.47935 84.767 0 106.905C7.04821 87.8787 34.9036 103.306 34.9036 103.306C43.5452 75.9755 62.5529 90.8217 62.5529 90.8217C56.6481 84.4483 36.572 78.9935 32.8042 96.7827Z" fill="#423D3D"/>
<path d="M214.933 20.5833C214.933 20.5833 198.193 3.89999 186.027 19.3836C196.993 6.26189 214.764 26.3568 214.764 26.3568C229.329 7.06794 240.239 24.2386 240.239 24.2386C237.333 17.509 222.937 7.51782 214.933 20.5833Z" fill="#423D3D"/>
<path d="M252.948 117.964C252.948 117.964 244.382 101.562 231.635 110.241C242.919 103.024 251.467 122.238 251.467 122.238C266.895 111.272 271 126.662 271 126.662C270.419 120.963 262.021 110.091 252.948 117.964Z" fill="#423D3D"/>
</svg>
