<svg width="289" height="406" viewBox="0 0 289 406" fill="none" xmlns="http://www.w3.org/2000/svg">
<path d="M107.733 176.508C114.321 183.097 125 182.87 131.361 176.508C137.723 170.147 137.723 159.241 131.361 152.88C124.772 146.291 114.094 146.518 107.733 152.88C101.371 159.241 101.144 169.919 107.733 176.508Z" fill="url(#paint0_linear_2175_548)"/>
<path d="M131.133 183.55C123.408 188.094 113.412 187.64 106.142 181.733L105.914 181.96C99.3256 188.548 99.5528 199.227 105.914 205.588C112.503 212.177 123.181 211.95 129.543 205.588C135.677 199.908 136.131 190.366 131.133 183.55Z" fill="url(#paint1_linear_2175_548)"/>
<path d="M102.054 178.1C101.146 176.736 100.237 175.373 99.5553 173.783C95.4658 174.237 91.1491 173.556 87.5139 171.738C76.6085 176.282 62.7496 182.871 45.7098 191.731C49.1178 195.139 52.2985 199.229 54.3433 203.546C55.0249 205.136 54.3433 206.726 52.9801 207.181C51.8441 207.862 50.481 207.408 49.7994 206.726C49.5722 206.499 49.345 206.272 49.1178 206.045C47.3002 201.955 43.6651 197.866 40.4843 194.685C38.2124 196.048 35.486 197.411 32.9869 198.547C32.7597 198.774 32.5325 199.002 32.3053 198.774C35.9404 202.41 39.8027 206.726 41.8475 211.497C42.5291 213.088 41.8475 214.678 40.4843 215.133C39.3484 215.814 37.9852 215.36 37.3036 214.678C37.0764 214.451 36.8492 214.224 36.622 213.997C34.5772 209.68 30.7149 205.363 27.307 201.955C0.725014 218.086 -35.3992 249.212 -49.0309 261.481C-52.2117 264.207 -52.2117 269.205 -49.2582 272.159L-23.1306 298.286C-20.177 301.24 -15.6331 301.24 -12.6796 298.286C-8.36284 293.97 -1.31975 286.927 9.13127 277.384C4.36015 271.25 -1.77415 265.57 -1.77415 265.57C-2.91013 264.434 -3.13731 262.844 -2.00134 261.708C-0.865359 260.572 0.725003 260.345 1.86098 261.481C2.08818 261.708 8.44967 267.161 13.448 273.522C15.72 271.25 18.4463 268.978 21.1727 266.706C16.4016 260.117 9.81285 254.438 9.58565 254.21C8.44967 253.074 8.22249 251.484 9.35847 250.348C10.4945 249.212 12.0848 248.985 13.2208 250.121C13.6752 250.575 20.2639 256.255 25.2622 263.071C35.486 254.21 47.3002 243.759 61.6136 232.172C70.247 224.902 84.5604 214.224 98.4193 204C93.6482 196.048 95.0114 185.143 102.054 178.1Z" fill="#673F23"/>
<path d="M211.563 219.905C200.203 187.188 171.803 175.601 151.583 171.739C159.308 169.467 168.168 167.877 177.711 167.877L182.027 155.835C184.526 158.334 186.344 162.878 187.707 168.331C191.342 168.785 194.75 169.467 198.385 170.376L202.475 158.562C205.428 161.515 207.473 167.65 208.836 174.465C212.926 176.283 216.788 177.873 220.423 180.145L225.195 166.741C228.83 170.376 231.329 179.691 232.465 187.643C251.322 201.502 260.637 217.178 260.637 217.178C260.637 217.178 272.451 169.013 221.105 144.475C196.795 132.888 174.303 137.66 157.49 145.839C173.848 120.847 181.346 86.0861 138.406 52.2338C138.406 52.2338 153.628 85.6317 139.314 129.935C135.225 107.67 123.411 79.4974 90.4672 66.0928C31.6234 42.2372 0.724716 87.6764 0.724716 87.6764C0.724716 87.6764 20.718 83.5869 46.3911 88.8124C54.1158 83.8141 63.2037 78.8158 69.1108 79.2702L61.6133 93.1292C65.93 94.7195 70.4739 96.5371 74.7907 98.5819C81.1522 94.9467 87.968 91.766 92.512 92.2204L85.9233 104.716C89.5584 106.988 92.512 109.487 95.6927 112.214C100.918 109.26 106.371 107.443 110.233 107.67L103.645 120.165C110.006 127.436 115.004 135.16 118.867 142.658C125.001 142.431 130.908 144.703 135.452 149.247C144.085 157.88 144.313 172.193 135.452 181.054C142.268 189.688 141.814 201.956 134.089 210.135C147.039 263.981 121.139 300.332 121.139 300.332C182.482 268.525 164.988 220.132 147.266 191.959C153.173 195.595 158.853 199.911 164.533 205.591L176.12 200.366C176.12 204.001 173.848 208.545 171.122 213.089C173.394 215.815 175.211 218.996 177.029 222.177L188.616 216.951C188.616 221.041 185.435 226.948 181.8 232.4C183.618 236.49 184.981 240.579 185.89 244.669L198.613 238.762C198.613 244.215 193.614 251.939 188.843 258.528C192.251 281.929 187.707 299.65 187.707 299.65C187.707 299.65 230.42 274.204 211.563 219.905Z" fill="#218F3E"/>
<path d="M108.869 139.929C102.28 133.341 91.602 133.568 85.2405 139.929C78.6518 146.518 78.879 157.196 85.2405 163.558C88.6484 166.966 93.4196 168.556 97.7363 168.329C96.6003 161.286 98.4179 153.561 103.871 148.109C106.143 145.837 108.869 144.019 111.595 143.11C110.914 142.429 110.005 141.065 108.869 139.929Z" fill="url(#paint2_linear_2175_548)"/>
<defs>
<linearGradient id="paint0_linear_2175_548" x1="131.361" y1="152.88" x2="107.733" y2="176.508" gradientUnits="userSpaceOnUse">
<stop offset="0.591346" stop-color="#1F781E"/>
<stop offset="1" stop-color="#DDD4CD"/>
</linearGradient>
<linearGradient id="paint1_linear_2175_548" x1="129.547" y1="181.964" x2="105.918" y2="205.592" gradientUnits="userSpaceOnUse">
<stop offset="0.591346" stop-color="#1F781E"/>
<stop offset="1" stop-color="#DDD4CD"/>
</linearGradient>
<linearGradient id="paint2_linear_2175_548" x1="107.279" y1="138.339" x2="83.6501" y2="161.967" gradientUnits="userSpaceOnUse">
<stop offset="0.591346" stop-color="#1F781E"/>
<stop offset="1" stop-color="#DDD4CD"/>
</linearGradient>
</defs>
</svg>
