<svg width="158" height="303" viewBox="0 0 158 303" fill="none" xmlns="http://www.w3.org/2000/svg">
<path d="M86.9645 260.526C80.6273 255.935 74.3031 251.326 67.975 246.723C67.0919 246.08 66.1913 245.882 65.1781 246.482C64.0445 247.154 62.858 247.737 61.7295 248.416C61.2471 248.706 60.9404 248.653 60.5158 248.31C57.6815 246.023 54.8396 243.746 51.9682 241.505C50.5628 240.409 49.9284 240.451 48.6923 241.698C44.7297 245.695 40.7943 249.719 36.8453 253.73C34.4275 256.186 32.0333 258.667 29.5788 261.084C26.3874 264.229 23.277 267.448 20.2924 270.789C19.5784 271.587 19.5081 272.636 20.2349 273.422C20.9137 273.829 21.8063 274.096 22.7641 274.094C24.7523 274.091 26.6814 273.615 28.6281 273.302C42.3745 271.094 56.1156 268.86 69.8577 266.629C75.287 265.748 80.7141 264.85 86.1427 263.964C86.9805 263.827 87.7308 263.567 87.9453 262.626C88.1592 261.69 87.7062 261.064 86.9645 260.526ZM57.4287 250.84C53.5978 252.969 49.7845 255.132 45.9676 257.286C42.399 259.299 38.8336 261.318 35.2641 263.329C33.0495 264.577 30.8315 265.819 28.6157 267.063C28.5383 266.975 28.461 266.887 28.3843 266.799C29.5504 265.703 30.7446 264.633 31.877 263.502C34.6185 260.765 37.3315 257.997 40.0565 255.243C43.4062 251.856 46.7593 248.472 50.1022 245.078C50.3977 244.778 50.6387 244.714 50.9778 245.006C51.4556 245.416 51.9626 245.792 52.4578 246.183C54.1005 247.477 55.7478 248.766 57.3809 250.073C57.6273 250.272 58.0912 250.471 57.4287 250.84ZM82.0902 261.206C65.1983 263.949 48.5351 266.656 31.8716 269.361C31.8498 269.31 31.8275 269.26 31.8057 269.208C31.893 269.138 31.9723 269.053 32.069 268.999C34.9647 267.365 37.8629 265.737 40.758 264.103C45.623 261.357 50.4856 258.607 55.3505 255.86C58.7692 253.929 62.1898 252.004 65.6063 250.069C66.0345 249.827 66.3981 249.734 66.8607 250.072C71.301 253.322 75.7589 256.549 80.2088 259.786C80.7878 260.207 81.3516 260.647 82.0902 261.206Z" fill="#969696"/>
<path d="M24.3627 227.801C23.1686 227.157 21.9221 228.656 22.4052 229.778C23.0116 231.188 24.286 232.173 25.3594 233.245C26.5132 234.397 27.6523 235.562 28.7919 236.727C30.0302 237.994 32.2246 236.395 31.0152 234.987C29.8835 233.67 28.7535 232.352 27.6372 231.022C26.6181 229.807 25.771 228.56 24.3627 227.801Z" fill="#969696"/>
<path d="M37.4207 216.935C37.0883 218.879 37.9935 220.983 38.5372 222.836C39.1357 224.877 39.7346 226.918 40.3337 228.96C40.8275 230.643 43.6246 229.849 43.3066 228.139C42.9161 226.04 42.5256 223.941 42.1351 221.842C41.778 219.924 41.6017 217.722 40.4138 216.122C39.5203 214.919 37.6566 215.553 37.4207 216.935Z" fill="#969696"/>
<path d="M62.3616 214.157C61.04 215.041 60.6996 216.647 60.1504 218.072C59.512 219.728 58.8743 221.385 58.2359 223.042C57.5494 224.825 60.2302 225.943 60.9766 224.18C61.6684 222.546 62.3603 220.911 63.0522 219.277C63.6488 217.868 64.5305 216.459 64.1939 214.901C64.005 214.027 63.1095 213.657 62.3616 214.157Z" fill="#969696"/>
<path d="M86.7072 235.117C87.3667 235.25 88.0782 235.093 88.6355 234.631C90.2185 233.312 91.7871 231.925 93.2997 230.503C94.2248 229.634 94.2696 228.177 93.3999 227.252C92.5274 226.328 91.0748 226.284 90.1487 227.152C88.7025 228.51 87.2035 229.838 85.6931 231.096C84.7163 231.91 84.5844 233.359 85.3968 234.336C85.7455 234.754 86.2125 235.017 86.7072 235.117ZM99.6313 222.236C100.429 222.397 101.289 222.13 101.848 221.462C103.17 219.891 104.472 218.251 105.715 216.591C106.477 215.574 106.269 214.132 105.252 213.371C104.24 212.61 102.794 212.815 102.032 213.833C100.841 215.425 99.5928 216.997 98.3275 218.501C97.5102 219.475 97.6358 220.924 98.6074 221.742C98.9134 222 99.2654 222.162 99.6313 222.236ZM110.164 207.328C111.098 207.516 112.09 207.108 112.601 206.24C113.648 204.465 114.66 202.634 115.609 200.801C116.193 199.673 115.752 198.286 114.625 197.701C113.497 197.119 112.109 197.556 111.524 198.685C110.613 200.444 109.64 202.199 108.636 203.904C107.992 205 108.356 206.409 109.451 207.055C109.678 207.189 109.919 207.278 110.164 207.328ZM118.132 190.905C119.208 191.122 120.316 190.541 120.728 189.485C121.479 187.557 122.185 185.591 122.829 183.639C123.227 182.433 122.572 181.132 121.365 180.734C120.153 180.335 118.858 180.992 118.46 182.198C117.842 184.074 117.163 185.963 116.442 187.816C115.981 189 116.566 190.333 117.75 190.794C117.876 190.843 118.005 190.879 118.132 190.905ZM123.384 173.423C124.616 173.672 125.822 172.886 126.088 171.653C126.193 171.168 126.294 170.683 126.392 170.197C126.702 168.66 126.986 167.095 127.233 165.546C127.433 164.292 126.574 163.128 125.325 162.912C124.07 162.712 122.892 163.567 122.691 164.82C122.454 166.307 122.183 167.809 121.883 169.285C121.789 169.751 121.692 170.217 121.591 170.684C121.323 171.925 122.114 173.149 123.355 173.417C123.364 173.419 123.374 173.421 123.384 173.423ZM125.763 155.326C125.876 155.349 125.993 155.364 126.111 155.369C127.38 155.431 128.458 154.451 128.518 153.182C128.619 151.104 128.66 149.013 128.645 146.965C128.636 145.695 127.605 144.667 126.328 144.683C125.058 144.692 124.037 145.73 124.047 147C124.062 148.962 124.021 150.968 123.925 152.961C123.868 154.112 124.669 155.105 125.763 155.326ZM125.096 137.088C125.333 137.136 125.583 137.147 125.836 137.115C127.097 136.958 127.99 135.809 127.833 134.549C127.577 132.491 127.255 130.422 126.878 128.396C126.645 127.148 125.444 126.323 124.197 126.556C122.949 126.788 122.123 127.987 122.356 129.237C122.716 131.173 123.023 133.152 123.268 135.119C123.394 136.125 124.153 136.897 125.096 137.088ZM92.1732 124.535C92.2364 124.548 92.3 124.558 92.3642 124.566C94.5754 124.823 96.8455 124.743 99.1103 124.323C100.358 124.093 101.184 122.893 100.953 121.644C100.723 120.396 99.526 119.57 98.2739 119.801C96.4619 120.136 94.6519 120.202 92.8994 119.997C91.638 119.85 90.4955 120.753 90.3481 122.015C90.2069 123.212 91.0126 124.301 92.1732 124.535ZM81.499 119.167C82.223 119.313 83.003 119.109 83.5685 118.552C84.4739 117.661 84.4864 116.205 83.5966 115.3C82.3153 113.997 81.2811 112.538 80.5209 110.965C79.9689 109.821 78.5951 109.341 77.4496 109.894C76.3058 110.446 75.8256 111.821 76.3788 112.965C77.357 114.993 78.6818 116.864 80.3156 118.527C80.6508 118.865 81.0649 119.079 81.499 119.167ZM109.178 119.232C109.814 119.36 110.501 119.22 111.052 118.788C112.772 117.444 114.358 115.909 115.768 114.226C116.584 113.253 116.456 111.802 115.483 110.986C114.509 110.171 113.058 110.296 112.243 111.271C111.039 112.707 109.684 114.018 108.217 115.166C107.217 115.948 107.041 117.394 107.824 118.394C108.174 118.844 108.66 119.127 109.178 119.232ZM121.204 119.262C121.577 119.338 121.974 119.321 122.362 119.196C123.571 118.806 124.236 117.511 123.846 116.302C123.18 114.232 122.447 112.246 121.666 110.398C121.171 109.228 119.822 108.679 118.652 109.175C117.482 109.669 116.935 111.019 117.429 112.189C118.156 113.911 118.843 115.77 119.468 117.712C119.732 118.532 120.414 119.103 121.204 119.262ZM77.4617 102.426C78.5116 102.638 79.6011 102.09 80.0335 101.064C80.682 99.5259 81.6731 98.1506 82.9766 96.9739C83.9206 96.1241 83.9957 94.6698 83.1446 93.7257C82.2933 92.7828 80.8377 92.7073 79.8964 93.5577C78.0871 95.1873 76.7076 97.1116 75.7947 99.2748C75.301 100.445 75.8489 101.794 77.0202 102.288C77.166 102.35 77.3136 102.396 77.4617 102.426ZM119.414 104.399C120.522 104.623 121.654 104.001 122.037 102.903C122.716 100.963 123.285 98.8885 123.727 96.7374C123.983 95.4925 123.182 94.277 121.939 94.0205C121.937 94.02 121.933 94.0192 121.93 94.0187C120.69 93.7682 119.477 94.5677 119.222 95.8088C118.82 97.7601 118.307 99.6355 117.695 101.384C117.276 102.582 117.908 103.895 119.107 104.314C119.209 104.351 119.311 104.378 119.414 104.399ZM113.051 103.008C113.689 103.137 114.374 102.996 114.927 102.565C115.927 101.781 116.102 100.335 115.319 99.3363C113.932 97.5666 112.425 95.9724 110.839 94.5983C109.879 93.7663 108.425 93.8694 107.595 94.8292C106.763 95.7888 106.866 97.2416 107.825 98.0736C109.19 99.2569 110.492 100.635 111.697 102.174C112.049 102.62 112.535 102.904 113.051 103.008ZM92.0544 92.9536C92.2709 92.9973 92.4961 93.0106 92.7258 92.9886C94.5558 92.8166 96.3882 92.8917 98.1725 93.2118C99.4221 93.4374 100.619 92.6051 100.843 91.3552C101.069 90.1043 100.258 88.8759 98.9862 88.6849C96.7918 88.2913 94.5406 88.1986 92.295 88.4101C91.0308 88.5288 90.1016 89.6511 90.2216 90.9155C90.3186 91.9487 91.087 92.7582 92.0544 92.9536ZM122.227 86.4257C122.367 86.4538 122.511 86.4695 122.658 86.4711C123.929 86.4864 124.971 85.47 124.986 84.1994C124.992 83.6563 124.993 83.1135 124.989 82.571C124.978 81.0469 124.926 79.4906 124.835 77.9478C124.76 76.6804 123.674 75.7141 122.404 75.7875C121.136 75.8627 120.168 76.9516 120.243 78.219C120.33 79.6832 120.38 81.1588 120.39 82.6061C120.395 83.118 120.393 83.6311 120.388 84.1422C120.371 85.2665 121.166 86.2113 122.227 86.4257ZM120.549 68.2638C120.837 68.3221 121.14 68.3255 121.447 68.2655C122.692 68.021 123.506 66.8124 123.262 65.5658C122.864 63.532 122.394 61.4862 121.866 59.4864C121.541 58.2584 120.283 57.5256 119.055 57.8488C117.827 58.1733 117.093 59.4315 117.417 60.6594C117.92 62.5643 118.367 64.5129 118.747 66.4506C118.931 67.3914 119.664 68.0851 120.549 68.2638ZM115.337 50.7788C115.765 50.8652 116.221 50.8313 116.654 50.6561C117.831 50.1791 118.399 48.8376 117.922 47.6607C117.146 45.7449 116.297 43.8278 115.402 41.959C114.853 40.8157 113.48 40.3293 112.334 40.8795C111.189 41.4286 110.705 42.803 111.254 43.9476C112.109 45.7305 112.918 47.5605 113.659 49.3875C113.96 50.1306 114.605 50.631 115.337 50.7788ZM106.937 34.5793C107.504 34.6938 108.112 34.5967 108.636 34.2601C109.704 33.5734 110.014 32.1505 109.328 31.0814C108.209 29.3403 107.02 27.6106 105.795 25.9446C105.043 24.9199 103.603 24.7015 102.58 25.4534C101.556 26.2054 101.336 27.6452 102.088 28.6686C103.257 30.2588 104.391 31.9076 105.458 33.5685C105.809 34.1127 106.35 34.4607 106.937 34.5793ZM95.6748 20.2216C96.3846 20.365 97.1517 20.1713 97.7175 19.634C98.6382 18.7594 98.675 17.3027 97.7989 16.383C96.3689 14.8794 94.874 13.4057 93.358 12.0027C92.4246 11.1411 90.9703 11.1987 90.1077 12.1306C89.2448 13.0638 89.3023 14.5181 90.2343 15.3807C91.6795 16.7157 93.1026 18.12 94.4649 19.5536C94.8021 19.9086 95.2278 20.1313 95.6748 20.2216ZM81.8729 8.29271C82.7411 8.46807 83.6686 8.13115 84.2116 7.36127C84.9417 6.32215 84.691 4.88786 83.6522 4.15649C81.9497 2.95992 80.1895 1.81067 78.4211 0.741558C77.3321 0.0858637 75.92 0.43217 75.263 1.52092C74.6063 2.60837 74.9549 4.02223 76.0424 4.67895C77.7212 5.69377 79.3914 6.7846 81.0081 7.92095C81.2758 8.1091 81.5714 8.23183 81.8729 8.29271Z" fill="#969696"/>
</svg>
