<svg width="289" height="406" viewBox="0 0 289 406" fill="none" xmlns="http://www.w3.org/2000/svg">
<path d="M180.542 176.508C173.954 183.097 163.276 182.87 156.914 176.508C150.553 170.147 150.553 159.241 156.914 152.88C163.503 146.291 174.181 146.518 180.542 152.88C186.904 159.241 187.131 169.919 180.542 176.508Z" fill="url(#paint0_linear_2175_554)"/>
<path d="M157.142 183.55C164.867 188.094 174.863 187.64 182.134 181.733L182.361 181.96C188.949 188.548 188.722 199.227 182.361 205.588C175.772 212.177 165.094 211.95 158.732 205.588C152.598 199.908 152.144 190.366 157.142 183.55Z" fill="url(#paint1_linear_2175_554)"/>
<path d="M186.221 178.1C187.129 176.736 188.038 175.373 188.72 173.783C192.809 174.237 197.126 173.556 200.761 171.738C211.667 176.282 225.526 182.871 242.565 191.731C239.157 195.139 235.977 199.229 233.932 203.546C233.25 205.136 233.932 206.726 235.295 207.181C236.431 207.862 237.794 207.408 238.476 206.726C238.703 206.499 238.93 206.272 239.157 206.045C240.975 201.955 244.61 197.866 247.791 194.685C250.063 196.048 252.789 197.411 255.288 198.547C255.515 198.774 255.743 199.002 255.97 198.774C252.335 202.41 248.472 206.726 246.428 211.497C245.746 213.088 246.428 214.678 247.791 215.133C248.927 215.814 250.29 215.36 250.972 214.678C251.199 214.451 251.426 214.224 251.653 213.997C253.698 209.68 257.56 205.363 260.968 201.955C287.55 218.086 323.674 249.212 337.306 261.481C340.487 264.207 340.487 269.205 337.533 272.159L311.406 298.286C308.452 301.24 303.908 301.24 300.955 298.286C296.638 293.97 289.595 286.927 279.144 277.384C283.915 271.25 290.049 265.57 290.049 265.57C291.185 264.434 291.412 262.844 290.276 261.708C289.14 260.572 287.55 260.345 286.414 261.481C286.187 261.708 279.825 267.161 274.827 273.522C272.555 271.25 269.829 268.978 267.102 266.706C271.874 260.117 278.462 254.438 278.689 254.21C279.825 253.074 280.053 251.484 278.917 250.348C277.781 249.212 276.19 248.985 275.054 250.121C274.6 250.575 268.011 256.255 263.013 263.071C252.789 254.21 240.975 243.759 226.662 232.172C218.028 224.902 203.715 214.224 189.856 204C194.627 196.048 193.264 185.143 186.221 178.1Z" fill="#673F23"/>
<path d="M76.7124 219.905C88.0722 187.188 116.472 175.601 136.692 171.739C128.967 169.467 120.107 167.877 110.565 167.877L106.248 155.835C103.749 158.334 101.931 162.878 100.568 168.331C96.9328 168.785 93.5249 169.467 89.8897 170.376L85.8002 158.562C82.8467 161.515 80.8019 167.65 79.4387 174.465C75.3492 176.283 71.4869 177.873 67.8517 180.145L63.0806 166.741C59.4454 170.376 56.9463 179.691 55.8103 187.643C36.953 201.502 27.638 217.178 27.638 217.178C27.638 217.178 15.8238 169.013 67.1701 144.475C91.4801 132.888 113.973 137.66 130.785 145.839C114.427 120.847 106.929 86.0861 149.87 52.2338C149.87 52.2338 134.647 85.6317 148.961 129.935C153.05 107.67 164.864 79.4974 197.808 66.0928C256.652 42.2372 287.55 87.6764 287.55 87.6764C287.55 87.6764 267.557 83.5869 241.884 88.8124C234.159 83.8141 225.071 78.8158 219.164 79.2702L226.662 93.1292C222.345 94.7195 217.801 96.5371 213.484 98.5819C207.123 94.9467 200.307 91.766 195.763 92.2204L202.352 104.716C198.717 106.988 195.763 109.487 192.582 112.214C187.357 109.26 181.904 107.443 178.042 107.67L184.631 120.165C178.269 127.436 173.271 135.16 169.408 142.658C163.274 142.431 157.367 144.703 152.823 149.247C144.19 157.88 143.962 172.193 152.823 181.054C146.007 189.688 146.462 201.956 154.186 210.135C141.236 263.981 167.136 300.332 167.136 300.332C105.793 268.525 123.288 220.132 141.009 191.959C135.102 195.595 129.422 199.911 123.742 205.591L112.155 200.366C112.155 204.001 114.427 208.545 117.153 213.089C114.881 215.815 113.064 218.996 111.246 222.177L99.6592 216.951C99.6592 221.041 102.84 226.948 106.475 232.4C104.657 236.49 103.294 240.579 102.386 244.669L89.6625 238.762C89.6625 244.215 94.6609 251.939 99.432 258.528C96.024 281.929 100.568 299.65 100.568 299.65C100.568 299.65 57.8551 274.204 76.7124 219.905Z" fill="#218F3E"/>
<path d="M179.406 139.929C185.995 133.341 196.673 133.568 203.035 139.929C209.623 146.518 209.396 157.196 203.035 163.558C199.627 166.966 194.856 168.556 190.539 168.329C191.675 161.286 189.857 153.561 184.405 148.109C182.133 145.837 179.406 144.019 176.68 143.11C177.361 142.429 178.27 141.065 179.406 139.929Z" fill="url(#paint2_linear_2175_554)"/>
<defs>
<linearGradient id="paint0_linear_2175_554" x1="156.914" y1="152.88" x2="180.542" y2="176.508" gradientUnits="userSpaceOnUse">
<stop offset="0.591346" stop-color="#1F781E"/>
<stop offset="1" stop-color="#DDD4CD"/>
</linearGradient>
<linearGradient id="paint1_linear_2175_554" x1="158.728" y1="181.964" x2="182.357" y2="205.592" gradientUnits="userSpaceOnUse">
<stop offset="0.591346" stop-color="#1F781E"/>
<stop offset="1" stop-color="#DDD4CD"/>
</linearGradient>
<linearGradient id="paint2_linear_2175_554" x1="180.997" y1="138.339" x2="204.625" y2="161.967" gradientUnits="userSpaceOnUse">
<stop offset="0.591346" stop-color="#1F781E"/>
<stop offset="1" stop-color="#DDD4CD"/>
</linearGradient>
</defs>
</svg>
