<svg width="191" height="138" viewBox="0 0 191 138" fill="none" xmlns="http://www.w3.org/2000/svg">
<path d="M191 138L0 138V74H127C162.346 74 191 102.654 191 138Z" fill="url(#paint0_linear_2168_455)"/>
<path d="M158.276 4.26168L141.264 14.0834L139.363 10.7749L156.375 0.953125L158.276 4.26168Z" fill="#E73649"/>
<path d="M162.012 22.0112H142.369V18.1787H162.012V22.0112Z" fill="#E73649"/>
<path d="M156.375 39.2326L139.363 29.4108L141.264 26.1025L158.276 35.924L156.375 39.2326Z" fill="#E73649"/>
<path fill-rule="evenodd" clip-rule="evenodd" d="M91.417 107.79V100.132C91.417 99.2668 92.1252 98.5586 92.9905 98.5586H146.182C147.048 98.5586 147.756 99.2668 147.756 100.132V107.79H91.417Z" fill="#E73649"/>
<path fill-rule="evenodd" clip-rule="evenodd" d="M104.7 38.6621L103.281 50.9335L97.9941 96.668H141.179L135.892 50.9335L134.474 38.6621H104.7ZM110.643 92.886V77.6511C110.643 72.7229 114.664 68.6882 119.587 68.6646C124.51 68.6882 128.53 72.7229 128.53 77.6511V92.886H110.643ZM119.587 47.7605C115.3 47.7841 111.833 51.266 111.833 55.558C111.833 59.8499 115.3 63.3316 119.587 63.3552C123.873 63.3316 127.341 59.8499 127.341 55.558C127.341 51.266 123.873 47.7841 119.587 47.7605Z" fill="#E73649"/>
<path fill-rule="evenodd" clip-rule="evenodd" d="M104.697 36.7692V29.21H134.471V36.7692H104.697Z" fill="#E73649"/>
<path fill-rule="evenodd" clip-rule="evenodd" d="M107.9 18.7637V12.0986H131.27V18.7637H107.9Z" fill="#E73649"/>
<path fill-rule="evenodd" clip-rule="evenodd" d="M119.584 0L112.704 4.71791L104.697 10.2069H134.471L126.465 4.71791L119.584 0Z" fill="#E73649"/>
<path d="M82.7957 0.953125L99.8074 10.7749L97.9063 14.0834L80.8945 4.26168L82.7957 0.953125Z" fill="#E73649"/>
<path d="M77.1602 18.1787H96.8034V22.0112H77.1602V18.1787Z" fill="#E73649"/>
<path d="M80.8945 35.925L97.9063 26.1035L99.8074 29.4118L82.7957 39.2336L80.8945 35.925Z" fill="#E73649"/>
<path fill-rule="evenodd" clip-rule="evenodd" d="M107.9 27.3216V20.6562H131.27V27.3216H107.9Z" fill="#E73649"/>
<path d="M65.8123 73.6714C67.604 73.6714 69.025 72.1887 69.025 70.4588C69.025 68.7289 67.5422 67.2461 65.8123 67.2461C64.0206 67.2461 62.5996 68.7289 62.5996 70.4588C62.5996 72.1887 64.0206 73.6714 65.8123 73.6714Z" fill="#E73649"/>
<path d="M69.9508 71.4482C69.5183 73.1164 68.0973 74.4138 66.3057 74.5991V74.6609C66.3057 76.4526 67.7884 77.8736 69.5183 77.8736C71.31 77.8736 72.731 76.3908 72.731 74.6609C72.7928 73.0546 71.5572 71.6954 69.9508 71.4482Z" fill="#E73649"/>
<path d="M65.2563 74.6612C64.9474 74.5994 64.6385 74.5376 64.3296 74.4141C63.8353 75.0319 63.1557 75.5261 62.4144 75.7733C61.5494 77.8739 60.5609 80.6541 59.4488 84.1757C60.3755 84.1757 61.3641 84.2992 62.229 84.6081C62.5379 84.7317 62.6615 85.0406 62.5379 85.2877C62.4761 85.5349 62.229 85.6584 62.0437 85.6584C61.9819 85.6584 61.9201 85.6584 61.8583 85.6584C61.0551 85.3495 60.0048 85.2877 59.1399 85.2877C59.0163 85.782 58.831 86.338 58.6456 86.8323C58.6456 86.8941 58.6456 86.9559 58.5839 86.9559C59.5724 86.9559 60.6844 87.0176 61.6112 87.3883C61.9201 87.5119 62.0437 87.8208 61.9201 88.0679C61.8583 88.3151 61.6112 88.4386 61.4258 88.4386C61.3641 88.4386 61.3023 88.4386 61.2405 88.4386C60.3755 88.1297 59.2635 88.0679 58.3367 88.0679C56.9157 93.8755 56.2361 103.019 56.0508 106.541C55.989 107.344 56.6686 108.024 57.4718 108.024H64.5767C65.3799 108.024 65.9977 107.406 65.9977 106.603C65.9977 105.429 65.9977 103.513 66.1213 100.795C64.6385 100.61 63.0322 100.672 63.0322 100.672C62.7233 100.672 62.4761 100.486 62.4761 100.177C62.4761 99.8683 62.6615 99.6212 62.9704 99.6212C63.0322 99.6212 64.6385 99.4976 66.1831 99.683C66.1831 99.0652 66.2448 98.3856 66.3066 97.706C64.7621 97.4588 63.094 97.5824 63.0322 97.5824C62.7233 97.5824 62.4761 97.397 62.4761 97.0881C62.4761 96.7792 62.6615 96.5321 62.9704 96.5321C63.094 96.5321 64.7621 96.4085 66.3684 96.6557C66.5538 94.0608 66.7391 91.0335 67.1098 87.5119C67.2951 85.3495 67.7894 81.9515 68.2837 78.677C66.5538 78.2446 65.2563 76.5764 65.2563 74.6612Z" fill="#E73649"/>
<path d="M85.8302 65.4556C79.8373 62.5518 74.4005 64.8377 71.126 67.0619C71.8674 65.7027 72.8559 64.2817 74.1533 62.9843L73.103 60.7601C73.7826 60.7601 74.6476 61.1308 75.5743 61.6868C76.1304 61.2544 76.6864 60.8837 77.3042 60.513L76.2539 58.3506C77.0571 58.3506 78.1692 58.9066 79.2813 59.648C80.0844 59.3391 80.8258 59.0302 81.629 58.8449L80.4551 56.3736C81.4436 56.3736 83.05 57.3003 84.2856 58.227C88.7339 57.5474 92.132 58.4124 92.132 58.4124C92.132 58.4124 87.1894 50.2571 76.8717 53.9023C71.991 55.6322 69.5814 59.3391 68.4076 62.7371C67.2337 57.115 63.5268 51.3692 53.0856 52.6049C53.0856 52.6049 59.6963 55.0761 63.7739 63.0461C60.1905 60.5748 54.7537 58.3506 48.4519 61.0072C37.2076 65.7645 39.1846 76.1439 39.1846 76.1439C39.1846 76.1439 41.347 72.8694 45.5482 70.0892C45.9189 68.3593 46.4749 66.4441 47.3398 65.7027L48.2048 68.6065C49.008 68.2358 49.8729 67.8651 50.7379 67.5562C51.1086 66.1969 51.6028 64.8377 52.2824 64.2817L53.0856 66.8766C53.8888 66.6912 54.6301 66.6294 55.4333 66.5676C55.7422 65.4556 56.2365 64.467 56.7925 63.9728L57.5957 66.5676C59.4492 66.6912 61.1791 67.0619 62.7236 67.5562C63.5268 66.6912 64.6389 66.1969 65.8745 66.1969C68.2222 66.1969 70.1993 68.1122 70.1993 70.5217C72.2999 70.7688 73.9062 72.4987 73.968 74.6611C83.05 80.2215 84.471 88.6857 84.471 88.6857C88.4868 76.0203 79.5284 71.8191 73.2884 70.3981C74.5858 70.0892 75.945 69.9039 77.4896 69.9039L78.3545 67.6179C78.8488 68.1122 79.1577 69.0389 79.4048 70.0274C80.0844 70.0892 80.764 70.2746 81.4436 70.4599L82.3086 68.174C82.8646 68.73 83.2353 69.9657 83.4824 71.2013C84.2856 71.5102 85.027 71.8809 85.7066 72.3134L86.6333 69.7803C87.3747 70.5217 87.7454 72.2516 87.9925 73.7962C91.6377 76.5146 93.4294 79.5419 93.4294 79.5419C93.4294 79.5419 95.7771 70.2746 85.8302 65.4556Z" fill="#E73649"/>
<path d="M60.9939 68.5449C59.2022 68.5449 57.7812 70.0277 57.7812 71.7576C57.7812 73.5493 59.264 74.9703 60.9939 74.9703C61.9207 74.9703 62.7856 74.5378 63.3417 73.92C62.2296 73.1168 61.4264 71.8194 61.4264 70.3366C61.4264 69.7188 61.55 69.101 61.7971 68.6067C61.6117 68.6067 61.3028 68.5449 60.9939 68.5449Z" fill="#E73649"/>
<defs>
<linearGradient id="paint0_linear_2168_455" x1="95.5" y1="138" x2="95.5" y2="74" gradientUnits="userSpaceOnUse">
<stop stop-color="#FFCACF"/>
<stop offset="1" stop-color="white"/>
</linearGradient>
</defs>
</svg>
