<svg width="269" height="89" viewBox="0 0 269 89" fill="none" xmlns="http://www.w3.org/2000/svg">
<path d="M26.6895 8.15781C29.2907 3.65237 35.0518 2.1087 39.5572 4.70992L77.6271 26.6895C82.1325 29.2908 83.6762 35.0518 81.075 39.5573L59.0953 77.6271C56.4941 82.1325 50.733 83.6762 46.2276 81.075L8.15777 59.0954C3.65233 56.4942 2.10866 50.7331 4.70988 46.2276L26.6895 8.15781Z" fill="#F2F2F2"/>
<path d="M33.9502 10.3589L53.644 21.7291L42.2738 41.423L22.58 30.0527L33.9502 10.3589Z" fill="#F35325"/>
<path d="M55.6123 22.8662L75.3061 34.2365L63.9359 53.9303L44.2421 42.56L55.6123 22.8662Z" fill="#81BC06"/>
<path d="M21.4424 32.0225L41.1362 43.3927L29.766 63.0865L10.0721 51.7163L21.4424 32.0225Z" fill="#05A6F0"/>
<path d="M43.1055 44.5293L62.7993 55.8995L51.4291 75.5934L31.7352 64.2231L43.1055 44.5293Z" fill="#FFBA08"/>
<rect x="78.499" y="22.7646" width="62.7989" height="62.7989" rx="9.41984" fill="#F2F2F2"/>
<rect x="85.5645" y="29.8301" width="48.6692" height="48.6692" rx="4.86692" fill="#F2F2F2"/>
<path d="M129.831 29.8301H89.967C87.5356 29.8301 85.5645 31.8012 85.5645 34.2326V74.0966C85.5645 76.5281 87.5356 78.4992 89.967 78.4992H129.831C132.263 78.4992 134.234 76.5281 134.234 74.0966V34.2326C134.234 31.8012 132.263 29.8301 129.831 29.8301ZM100.625 71.8542C100.625 72.5619 100.051 73.1354 99.3436 73.1354H93.8898C93.1822 73.1354 92.6086 72.5619 92.6086 71.8542V48.9923C92.6086 48.2847 93.1822 47.7112 93.8898 47.7112H99.3436C100.051 47.7112 100.625 48.2847 100.625 48.9923V71.8542ZM96.6167 45.5561C93.7553 45.5561 91.4356 43.2364 91.4356 40.375C91.4356 37.5136 93.7553 35.1939 96.6167 35.1939C99.4781 35.1939 101.798 37.5136 101.798 40.375C101.798 43.2364 99.4782 45.5561 96.6167 45.5561ZM129.126 71.9574C129.126 72.608 128.598 73.1354 127.948 73.1354H122.096C121.445 73.1354 120.918 72.608 120.918 71.9574V61.2339C120.918 59.6342 121.387 54.2239 116.737 54.2239C113.13 54.2239 112.399 57.9271 112.252 59.589V71.9574C112.252 72.608 111.725 73.1354 111.074 73.1354H105.414C104.763 73.1354 104.236 72.608 104.236 71.9574V48.8891C104.236 48.2386 104.763 47.7112 105.414 47.7112H111.074C111.724 47.7112 112.252 48.2386 112.252 48.8891V50.8837C113.589 48.8767 115.577 47.3275 119.809 47.3275C129.18 47.3275 129.126 56.0824 129.126 60.8927V71.9574Z" fill="#0077B7"/>
<rect x="123.243" y="35.3242" width="62.7989" height="62.7989" rx="9.41984" transform="rotate(-30 123.243 35.3242)" fill="#F2F2F2"/>
<path fill-rule="evenodd" clip-rule="evenodd" d="M168.289 47.7939C168.386 49.4177 167.772 50.8531 166.76 51.8023C166.582 51.9048 166.363 52.15 166.092 52.3065C164.113 53.4488 162.059 52.5937 160.76 50.3431C159.094 47.4591 160.026 45.1234 161.819 43.2438C162.834 42.2994 164.134 41.4273 165.484 40.6478L166.109 41.7299C167.304 43.8005 168.328 45.3689 168.289 47.7939ZM163.094 36.5089C161.975 37.2734 160.674 38.1431 159.426 39.1001C157.514 40.5686 155.653 42.1234 154.413 43.9203C151.862 47.1943 151.274 51.3761 153.716 55.6062C156.786 60.9232 161.764 61.648 166.088 59.1515C167.527 58.3207 168.592 57.4627 169.515 56.5747C170.917 55.0424 171.781 53.2221 172.451 50.4329C174.221 51.2119 174.86 51.6875 177.399 52.1413C177.952 52.0585 178.403 51.7982 178.607 51.3256C179.167 49.799 180.123 47.0845 180.592 45.6143C180.835 44.9941 180.433 44.5031 179.902 44.2146C178.185 43.523 176.568 43.0142 175.164 40.5836L170.485 32.4786C168.51 29.0571 166.963 25.7465 163.092 24.8624C159.932 24.169 156.272 25.3188 153.752 26.774L152.67 27.3985C148.236 30.3136 144.522 35.1007 146.714 41.401C146.951 42.2271 147.648 42.1829 148.059 42.064L153.464 39.7845C153.951 39.3818 153.962 38.7743 153.793 38.2767C153.097 36.036 154.146 34.109 155.84 32.8882L156.202 32.6791C157.283 32.0547 158.714 31.8301 159.863 32.3694C161.206 33.0338 161.95 34.527 162.679 35.7891L163.094 36.5089Z" fill="#343B45"/>
<path fill-rule="evenodd" clip-rule="evenodd" d="M192.386 45.1968L192.384 45.1944C192.12 44.7808 191.844 44.5081 191.512 44.3418L191.477 44.3265L191.44 44.3126C191.147 44.2197 190.931 44.245 190.697 44.2714C190.014 44.3781 189.134 44.7323 188.154 45.2948C187.452 45.7005 186.716 46.2149 186.035 46.8353L186.002 46.7839L185.369 47.4982L185.358 47.5137L184.998 47.9138L185.009 47.933C184.613 48.4494 184.296 48.9909 184.041 49.5634C183.885 49.9252 183.817 50.3265 184.044 50.7485C184.167 50.9782 184.432 51.1708 184.71 51.215C184.988 51.2592 185.239 51.1846 185.434 51.0724C185.479 51.0461 185.521 51.0188 185.555 50.9895L185.592 50.9649L185.618 50.9435C185.955 50.6404 186.482 50.2626 187.084 49.7934C187.609 49.407 188.177 49.018 188.693 48.7203C189.056 48.5075 189.4 48.3442 189.653 48.262C189.78 48.2209 189.88 48.2013 189.94 48.1989C189.959 48.1941 189.975 48.1943 189.985 48.195C190.013 48.2206 190.074 48.2939 190.137 48.408C190.391 48.8372 190.672 49.7438 190.871 50.6714C191.078 51.5948 191.234 52.5511 191.338 53.1853C191.359 53.3329 191.404 53.4829 191.487 53.6268C191.603 53.8384 191.836 54.0428 192.116 54.1056C192.39 54.1711 192.659 54.1053 192.851 53.9945L192.86 53.989C193.147 53.8205 193.325 53.5641 193.44 53.2767C194.398 50.3375 193.439 47.0773 192.539 45.4507L192.386 45.1968ZM187.916 51.0852C187.711 51.2005 187.53 51.369 187.388 51.5723C187.22 51.7847 187.055 52.0142 186.895 52.2249L186.661 52.533L186.351 52.9264L186.353 52.9312C183.002 57.2337 179.005 60.9293 174.804 63.4768C174.65 63.5716 174.492 63.663 174.341 63.7502C167.653 67.6181 160.402 67.6647 153.129 67.7846C152.879 67.7946 152.65 67.8567 152.458 67.9675C152.211 68.1101 152.011 68.3505 151.926 68.6298C151.842 68.9116 151.877 69.2272 152.028 69.4826C152.218 69.8175 152.575 70.0207 152.942 70.0745C160.702 71.5798 168.774 72.4795 176.396 68.0853C176.545 67.9995 176.693 67.9075 176.843 67.8178C181.628 64.9115 186.161 60.1089 188.873 54.9797L188.889 54.9477C189.253 54.293 189.591 53.5926 189.873 52.8695C190.06 52.4389 190.066 51.9296 189.839 51.5361C189.422 50.8462 188.556 50.7156 187.916 51.0852Z" fill="#FF9A00"/>
<rect x="209.09" y="4.71045" width="62.7989" height="62.7989" rx="9.41984" transform="rotate(20 209.09 4.71045)" fill="#F2F2F2"/>
<path fill-rule="evenodd" clip-rule="evenodd" d="M215.536 40.5904C216.061 39.1461 216.805 37.8488 217.706 36.7059L212.295 28.2559C209.755 30.6896 207.716 33.7315 206.427 37.2749C205.138 40.8153 204.744 44.4538 205.124 47.9479L214.701 44.9403C214.747 43.4933 215.013 42.0275 215.536 40.5904Z" fill="#FBBC05"/>
<path fill-rule="evenodd" clip-rule="evenodd" d="M233.474 32.2415C236.612 33.3835 239.041 35.5267 240.606 38.1564L249.438 34.0457C246.741 29.1727 242.453 25.2083 236.785 23.1454C227.986 19.9427 218.592 22.2223 212.294 28.257L217.705 36.707C221.339 32.094 227.633 30.1156 233.474 32.2415Z" fill="#EB4335"/>
<path fill-rule="evenodd" clip-rule="evenodd" d="M223.91 58.5189C218.07 56.393 214.52 50.8317 214.701 44.9619L205.125 47.9559C206.069 56.6277 211.8 64.4124 220.6 67.6151C226.031 69.5918 231.918 69.5507 237.124 67.3539L232.013 59.2658C229.546 59.7996 226.771 59.56 223.91 58.5189Z" fill="#34A853"/>
<path fill-rule="evenodd" clip-rule="evenodd" d="M249.947 53.1157C250.425 51.8018 250.738 50.3131 250.913 48.8887L230.164 41.3369L227.037 49.9277L238.98 54.2746C237.317 56.9862 234.872 58.6464 232.013 59.2654L237.124 67.3535C242.593 65.0473 247.309 60.3633 249.947 53.1157Z" fill="#4285F4"/>
</svg>
