<svg width="420" height="48" viewBox="0 0 420 48" fill="none" xmlns="http://www.w3.org/2000/svg">
<path d="M0 5.87012H16.8195C20.4829 5.87012 23.2251 6.76998 25.0535 8.57779C26.874 10.3856 27.788 12.9594 27.788 16.2993C27.788 19.7257 26.7905 22.4097 24.8019 24.3358C22.8139 26.2699 19.7749 27.2333 15.692 27.2333H10.1463V39.7857H0V5.87012ZM10.1463 20.3648H12.637C14.6028 20.3648 15.9814 20.0096 16.7734 19.3069C17.5659 18.6043 17.9616 17.7045 17.9616 16.6067C17.9616 15.5413 17.6192 14.641 16.9259 13.8986C16.2402 13.1567 14.9455 12.7858 13.041 12.7858H10.1463V20.3648Z" fill="white"/>
<path d="M37.3403 23.1595L28.6562 22.2129C28.984 20.6335 29.456 19.3945 30.0732 18.4941C30.6904 17.5861 31.5737 16.8045 32.7392 16.1412C33.5696 15.66 34.7122 15.2886 36.1671 15.0284C37.6219 14.7677 39.1988 14.6338 40.8974 14.6338C43.6168 14.6338 45.7957 14.7913 47.4487 15.1075C49.094 15.423 50.4726 16.0863 51.5691 17.0888C52.3465 17.784 52.9555 18.7704 53.3979 20.0412C53.8471 21.3125 54.068 22.5285 54.068 23.6885V34.552C54.068 35.7131 54.1365 36.6205 54.2812 37.2758C54.4182 37.931 54.7309 38.7681 55.2029 39.7862H46.6946C46.3517 39.1546 46.1307 38.6811 46.024 38.3493C45.9248 38.0176 45.8185 37.5049 45.7117 36.8022C44.5234 37.9859 43.3429 38.831 42.1619 39.3363C40.5545 40.0152 38.6884 40.355 36.5633 40.355C33.7371 40.355 31.5887 39.6754 30.1265 38.31C28.6562 36.9521 27.9248 35.2707 27.9248 33.2807C27.9248 31.41 28.4507 29.8705 29.5094 28.6625C30.5681 27.4546 32.5182 26.5548 35.3594 25.9704C38.7646 25.2603 40.9737 24.7625 41.9866 24.4706C42.9995 24.1863 44.0737 23.8153 45.2013 23.3499C45.2013 22.1891 44.9726 21.384 44.5083 20.918C44.0509 20.4518 43.2433 20.2234 42.0862 20.2234C40.6002 20.2234 39.4882 20.4679 38.7417 20.9652C38.1629 21.3602 37.6982 22.0861 37.3403 23.1595ZM45.2013 28.0862C43.9523 28.5518 42.6495 28.9629 41.2864 29.3259C39.4425 29.8388 38.2698 30.3446 37.7817 30.8418C37.2714 31.3546 37.0203 31.939 37.0203 32.5942C37.0203 33.3441 37.2714 33.9602 37.7672 34.4337C38.2698 34.9074 39.0006 35.1443 39.968 35.1443C40.9813 35.1443 41.9258 34.8836 42.8019 34.3703C43.6701 33.8575 44.287 33.2333 44.6526 32.4915C45.0187 31.7496 45.2013 30.7864 45.2013 29.6022V28.0862Z" fill="white"/>
<path d="M56.9453 15.2021H65.4615V19.2122C66.284 17.4678 67.1295 16.268 67.9978 15.6123C68.8738 14.9575 69.9475 14.6338 71.2275 14.6338C72.5761 14.6338 74.0461 15.0677 75.6379 15.9364L72.8199 22.623C71.7457 22.1574 70.8926 21.9286 70.2675 21.9286C69.0797 21.9286 68.1503 22.4413 67.4952 23.46C66.558 24.897 66.086 27.589 66.086 31.5283V39.7862H56.9453V15.2021Z" fill="white"/>
<path d="M100.956 39.7863H92.4631V35.8234C91.1986 37.4571 89.9263 38.6177 88.6467 39.3127C87.3594 40.0073 85.7826 40.3551 83.9087 40.3551C81.4101 40.3551 79.4599 39.5815 78.0352 38.0259C76.6187 36.4788 75.9102 34.0861 75.9102 30.8575V15.2021H85.0508V28.7493C85.0508 30.2893 85.3251 31.3864 85.8739 32.0418C86.4222 32.689 87.1914 33.0126 88.182 33.0126C89.2561 33.0126 90.14 32.5787 90.8329 31.7181C91.518 30.8494 91.861 29.2943 91.861 27.0521V15.2021H100.956V39.7863Z" fill="white"/>
<path d="M104.157 5.87012H113.253V39.7857H104.157V5.87012Z" fill="white"/>
<path d="M124.992 1.71191C126.405 1.71191 127.784 2.08687 129.132 2.84029C130.477 3.59069 131.528 4.66825 132.278 6.06588C133.028 7.46704 133.405 8.92756 133.405 10.443C133.405 11.9473 133.036 13.3958 132.293 14.7814C131.554 16.171 130.518 17.2485 129.181 18.0139C127.845 18.784 126.447 19.1669 124.992 19.1669C123.533 19.1669 122.135 18.784 120.799 18.0139C119.462 17.2485 118.422 16.171 117.679 14.7814C116.936 13.3958 116.563 11.9473 116.563 10.443C116.563 8.92756 116.94 7.46704 117.695 6.06588C118.453 4.66825 119.504 3.59069 120.848 2.84029C122.196 2.08687 123.575 1.71191 124.992 1.71191ZM124.992 3.15636C123.807 3.15636 122.654 3.47192 121.534 4.09951C120.414 4.72712 119.538 5.6275 118.906 6.79614C118.273 7.96428 117.957 9.18022 117.957 10.443C117.957 11.7027 118.27 12.9066 118.891 14.0591C119.511 15.2117 120.379 16.112 121.496 16.7552C122.611 17.3989 123.777 17.722 124.992 17.722C126.203 17.722 127.369 17.3989 128.485 16.7552C129.601 16.112 130.469 15.2117 131.086 14.0591C131.703 12.9066 132.011 11.7027 132.011 10.443C132.011 9.18022 131.696 7.96428 131.067 6.79614C130.439 5.6275 129.563 4.72712 128.439 4.09951C127.315 3.47192 126.165 3.15636 124.992 3.15636ZM121.294 15.2595V5.88014H124.409C125.475 5.88014 126.245 5.96672 126.721 6.14086C127.201 6.31399 127.578 6.61396 127.864 7.0483C128.145 7.47861 128.287 7.9366 128.287 8.42226C128.287 9.10523 128.051 9.70515 127.574 10.2104C127.102 10.7198 126.474 11.0036 125.689 11.067C126.009 11.2054 126.268 11.3705 126.458 11.5643C126.824 11.9312 127.27 12.5513 127.799 13.4235L128.903 15.2595H127.129L126.321 13.7828C125.689 12.6182 125.175 11.8879 124.786 11.5955C124.52 11.3826 124.131 11.2759 123.617 11.2804H122.757V15.2595H121.294ZM122.757 9.97743H124.531C125.381 9.97743 125.96 9.84708 126.268 9.58637C126.576 9.32617 126.733 8.9784 126.733 8.55261C126.733 8.2758 126.656 8.02768 126.508 7.81026C126.359 7.58932 126.153 7.42728 125.891 7.32107C125.624 7.21387 125.137 7.15901 124.421 7.15901H122.757V9.97743Z" fill="white"/>
<path d="M161.421 5.87012H165.47V24.1777C165.47 27.3565 165.121 29.8866 164.424 31.7604C163.727 33.634 162.475 35.1529 160.661 36.3256C158.847 37.5064 156.471 38.0892 153.526 38.0892C150.666 38.0892 148.32 37.5793 146.505 36.5546C144.683 35.5371 143.382 34.0538 142.607 32.1141C141.825 30.1739 141.439 27.5338 141.439 24.1777V5.87012H145.48V24.1551C145.48 26.9066 145.73 28.9354 146.22 30.2329C146.712 31.5389 147.565 32.5414 148.76 33.25C149.961 33.9581 151.435 34.3125 153.171 34.3125C156.143 34.3125 158.264 33.6114 159.53 32.2097C160.789 30.8156 161.421 28.1311 161.421 24.1551V5.87012ZM171.854 37.5501V14.6032H175.225V17.8635C176.855 15.3405 179.202 14.0793 182.269 14.0793C183.606 14.0793 184.83 14.3304 185.946 14.8241C187.069 15.3265 187.902 15.9747 188.456 16.7864C189.018 17.5907 189.403 18.5494 189.63 19.6557C189.766 20.3784 189.837 21.6402 189.837 23.4399V37.5501H186.08V23.5873C186.08 22.0085 185.939 20.8214 185.647 20.0317C185.355 19.2501 184.836 18.6235 184.096 18.1589C183.35 17.6864 182.481 17.4503 181.479 17.4503C179.878 17.4503 178.505 17.9818 177.338 19.0291C176.179 20.084 175.603 22.0751 175.603 25.0183V37.5501H171.854ZM195.738 10.3474V5.87012H199.494V10.3474H195.738ZM195.738 37.5501V14.6032H199.494V37.5501H195.738ZM211.484 37.5501L203.061 14.6032H207.024L211.775 28.345C212.287 29.8272 212.757 31.3693 213.191 32.9697C213.525 31.7604 213.988 30.3068 214.586 28.6026L219.508 14.6032H223.364L214.983 37.5501H211.484ZM241.955 30.1598L245.831 30.6535C245.221 33.0065 244.089 34.8284 242.439 36.1269C240.781 37.4172 238.669 38.0666 236.101 38.0666C232.864 38.0666 230.296 37.0343 228.403 34.9689C226.505 32.9033 225.559 30.0043 225.559 26.2724C225.559 22.4067 226.519 19.4126 228.432 17.2807C230.353 15.1493 232.835 14.0793 235.894 14.0793C238.854 14.0793 241.272 15.1272 243.143 17.2143C245.021 19.3019 245.96 22.2447 245.96 26.0289C245.96 26.2649 245.953 26.6116 245.938 27.0692H229.436C229.571 29.5912 230.261 31.5242 231.498 32.859C232.736 34.2018 234.273 34.8726 236.122 34.8726C237.495 34.8726 238.669 34.4967 239.643 33.7443C240.618 32.9994 241.386 31.8042 241.955 30.1598ZM229.642 23.8677H241.998C241.834 21.9422 241.357 20.4897 240.582 19.5305C239.386 18.0331 237.836 17.2807 235.936 17.2807C234.215 17.2807 232.764 17.8786 231.591 19.0734C230.417 20.2677 229.77 21.8692 229.642 23.8677ZM250.638 37.5501V14.6032H254.009V18.0773C254.87 16.4543 255.666 15.3778 256.398 14.8619C257.124 14.3456 257.929 14.0793 258.804 14.0793C260.07 14.0793 261.351 14.5 262.658 15.334L261.364 18.9476C260.454 18.3798 259.537 18.0995 258.618 18.0995C257.793 18.0995 257.061 18.3572 256.407 18.867C255.752 19.3835 255.289 20.0906 255.012 20.9985C254.592 22.3774 254.386 23.8898 254.386 25.5342V37.5501H250.638ZM263.524 30.6979L267.23 30.0934C267.436 31.6346 268.02 32.8152 268.973 33.6405C269.92 34.4595 271.249 34.8726 272.964 34.8726C274.685 34.8726 275.966 34.5043 276.797 33.781C277.63 33.0513 278.049 32.1951 278.049 31.2213C278.049 30.337 277.679 29.65 276.94 29.1413C276.427 28.795 275.147 28.3601 273.106 27.8286C270.36 27.1054 268.447 26.4863 267.386 25.9548C266.326 25.4314 265.516 24.7011 264.968 23.7716C264.42 22.8426 264.143 21.8173 264.143 20.696C264.143 19.6708 264.37 18.7267 264.826 17.856C265.274 16.9782 265.893 16.256 266.668 15.6807C267.252 15.2373 268.048 14.8544 269.052 14.5443C270.061 14.2348 271.142 14.0793 272.296 14.0793C274.031 14.0793 275.553 14.3456 276.87 14.8619C278.185 15.3778 279.152 16.0789 279.778 16.9631C280.405 17.856 280.831 19.0366 281.066 20.5189L277.402 21.0427C277.232 19.8621 276.748 18.9401 275.951 18.2766C275.154 17.6123 274.024 17.2807 272.566 17.2807C270.843 17.2807 269.613 17.5761 268.882 18.166C268.141 18.7558 267.771 19.4489 267.771 20.2385C267.771 20.7473 267.927 21.1973 268.233 21.603C268.539 22.0236 269.016 22.3629 269.67 22.6427C270.047 22.7837 271.15 23.1154 272.985 23.6313C275.638 24.3695 277.487 24.9664 278.534 25.4385C279.586 25.9035 280.411 26.589 281.008 27.4819C281.607 28.3742 281.905 29.4805 281.905 30.8081C281.905 32.1065 281.535 33.3241 280.811 34.4746C280.077 35.6175 279.025 36.5029 277.652 37.1299C276.279 37.7565 274.721 38.0666 272.985 38.0666C270.104 38.0666 267.913 37.4469 266.404 36.2079C264.897 34.9687 263.937 33.1318 263.524 30.6979ZM286.511 10.3474V5.87012H290.268V10.3474H286.511ZM286.511 37.5501V14.6032H290.268V37.5501H286.511ZM304.3 34.0689L304.839 37.5064C303.787 37.7348 302.84 37.8531 302.009 37.8531C300.642 37.8531 299.59 37.6317 298.837 37.1812C298.089 36.7388 297.564 36.1485 297.256 35.4188C296.951 34.6955 296.794 33.1615 296.794 30.8308V17.6274H294.041V14.6032H296.794V8.91603L300.529 6.58581V14.6032H304.3V17.6274H300.529V31.0442C300.529 32.1584 300.592 32.8665 300.721 33.1836C300.857 33.5007 301.07 33.7518 301.369 33.943C301.666 34.1277 302.094 34.2234 302.65 34.2234C303.068 34.2234 303.617 34.1721 304.3 34.0689ZM307.932 46.3863L307.511 42.7356C308.336 42.9645 309.048 43.0817 309.66 43.0817C310.493 43.0817 311.161 42.9348 311.659 42.6469C312.163 42.3596 312.569 41.9614 312.889 41.4376C313.132 41.0546 313.509 40.0878 314.034 38.5461C314.105 38.3252 314.219 38.0151 314.369 37.5945L305.974 14.6032H310.015L314.625 27.888C315.215 29.577 315.756 31.3471 316.226 33.2058C316.659 31.421 317.171 29.6802 317.769 27.976L322.5 14.6032H326.249L317.832 37.9412C316.93 40.4642 316.226 42.1975 315.728 43.1487C315.059 44.4321 314.298 45.3688 313.438 45.9667C312.569 46.5636 311.545 46.866 310.35 46.866C309.624 46.866 308.821 46.7039 307.932 46.3863Z" fill="white"/>
<path d="M412.741 0H344.574C340.72 0 337.597 3.23738 337.597 7.2309V39.813C337.597 43.8065 340.72 47.0439 344.574 47.0439H412.741C416.595 47.0439 419.718 43.8065 419.718 39.813V7.2309C419.718 3.23738 416.595 0 412.741 0Z" fill="white"/>
<path d="M360.666 27.5404V23.4468H370.868V33.1256C369.876 34.12 368.438 34.9984 366.552 35.7608C364.675 36.5121 362.771 36.8878 360.841 36.8878C358.39 36.8878 356.253 36.3574 354.429 35.2968C352.606 34.225 351.237 32.7003 350.32 30.7226C349.403 28.7337 348.945 26.5737 348.945 24.2423C348.945 21.7122 349.457 19.4637 350.48 17.497C351.503 15.5304 353.001 14.0222 354.974 12.9726C356.477 12.166 358.348 11.7627 360.586 11.7627C363.497 11.7627 365.767 12.398 367.398 13.6686C369.04 14.9282 370.096 16.6739 370.565 18.9058L365.863 19.8173C365.532 18.624 364.91 17.6849 363.992 16.9999C363.087 16.3037 361.951 15.9557 360.586 15.9557C358.518 15.9557 356.871 16.6352 355.644 17.9943C354.429 19.3533 353.821 21.3696 353.821 24.0435C353.821 26.9273 354.44 29.0927 355.677 30.5402C356.913 31.9765 358.534 32.6947 360.538 32.6947C361.53 32.6947 362.522 32.4958 363.512 32.0981C364.515 31.6892 365.373 31.1977 366.087 30.6231V27.5404H360.666Z" fill="#E73649"/>
<path d="M372.869 27.4261C372.869 25.8792 373.237 24.3822 373.972 22.9347C374.707 21.4873 375.747 20.3825 377.09 19.6201C378.443 18.8577 379.952 18.4766 381.616 18.4766C384.185 18.4766 386.291 19.3439 387.932 21.0786C389.574 22.8021 390.394 24.9844 390.394 27.6249C390.394 30.2877 389.563 32.4975 387.899 34.2543C386.248 36 384.163 36.8728 381.648 36.8728C380.091 36.8728 378.604 36.5082 377.186 35.7791C375.778 35.0498 374.707 33.9836 373.972 32.5804C373.237 31.1661 372.869 29.4481 372.869 27.4261ZM377.474 27.6747C377.474 29.4204 377.874 30.7574 378.674 31.6854C379.472 32.6135 380.458 33.0775 381.631 33.0775C382.804 33.0775 383.785 32.6135 384.573 31.6854C385.373 30.7574 385.773 29.4094 385.773 27.6416C385.773 25.9179 385.373 24.592 384.573 23.664C383.785 22.7359 382.804 22.2719 381.631 22.2719C380.458 22.2719 379.472 22.7359 378.674 23.664C377.874 24.592 377.474 25.929 377.474 27.6747Z" fill="#E73649"/>
<path d="M395.977 24.244L391.899 23.4816C392.357 21.7801 393.146 20.5206 394.265 19.703C395.386 18.8854 397.048 18.4766 399.255 18.4766C401.259 18.4766 402.751 18.7252 403.732 19.2223C404.713 19.7085 405.401 20.3327 405.795 21.0951C406.201 21.8464 406.403 23.233 406.403 25.255L406.355 30.691C406.355 32.2379 406.425 33.3814 406.563 34.1216C406.713 34.8509 406.984 35.6353 407.378 36.4751H402.933C402.816 36.1657 402.672 35.7073 402.502 35.0995C402.426 34.8233 402.373 34.6409 402.341 34.5525C401.573 35.326 400.753 35.9061 399.879 36.2928C399.004 36.6795 398.071 36.8728 397.08 36.8728C395.332 36.8728 393.951 36.3812 392.939 35.3978C391.936 34.4145 391.436 33.1715 391.436 31.6689C391.436 30.6745 391.665 29.7906 392.123 29.0171C392.581 28.2327 393.221 27.636 394.042 27.2272C394.873 26.8074 396.068 26.4428 397.624 26.1334C399.724 25.7246 401.18 25.3435 401.989 24.9898V24.5258C401.989 23.6309 401.776 22.9954 401.35 22.6199C400.923 22.2332 400.118 22.0397 398.936 22.0397C398.136 22.0397 397.512 22.2055 397.065 22.537C396.616 22.8574 396.254 23.4265 395.977 24.244ZM401.989 28.0227C401.414 28.2216 400.502 28.4591 399.255 28.7353C398.008 29.0117 397.192 29.2823 396.808 29.5475C396.223 29.9783 395.929 30.5254 395.929 31.1882C395.929 31.8402 396.164 32.4035 396.633 32.8786C397.102 33.3539 397.698 33.5914 398.424 33.5914C399.233 33.5914 400.007 33.3152 400.742 32.7626C401.285 32.3428 401.643 31.8291 401.813 31.2214C401.931 30.8236 401.989 30.0668 401.989 28.9508V28.0227Z" fill="#E73649"/>
</svg>
