<svg width="80" height="80" viewBox="0 0 80 80" fill="none" xmlns="http://www.w3.org/2000/svg">
<path d="M27.166 11.833H47.4993V19.9997H27.166V11.833Z" fill="#0CAADD"/>
<path d="M11.6663 52.666V17.666H0.833008V52.666C0.833008 55.666 3.33301 57.9993 6.16634 57.9993C8.99967 57.9993 11.6663 55.666 11.6663 52.666Z" fill="#0CAADD"/>
<path d="M23.8327 50.9997C23.8327 50.833 23.8327 50.6663 23.8327 50.6663V50.4997C23.3327 47.833 23.166 45.1663 23.4993 42.4997C23.4993 41.9997 23.666 41.6663 23.8327 41.1663V39.4997H24.166C24.666 37.9997 25.3327 36.333 25.9993 34.9997H23.666V31.6663H28.3327C28.8327 31.1663 29.3327 30.4997 29.8327 29.9997C33.4993 26.333 38.166 24.1663 43.166 23.6663H23.8327V8.49967H50.8327V23.333H47.9993C48.4993 23.333 49.166 23.4997 49.8327 23.4997C52.9993 24.1663 55.9993 25.333 58.4993 27.1663C58.666 27.333 58.9993 27.4997 59.3327 27.6663C59.4993 27.833 59.666 27.833 59.666 27.9997V0.833008H14.9993V50.833C14.9993 59.4997 9.66602 59.4997 9.66602 59.4997H28.166C27.4993 58.6663 26.9993 57.9997 26.666 57.333C25.3327 55.4997 24.4993 53.333 23.8327 50.9997Z" fill="#0CAADD"/>
<path d="M77.8332 70.8337L69.6665 62.667L71.1665 61.167L65.1665 55.167L61.3332 59.0003L60.1665 57.8337C63.8332 53.5003 65.3332 47.8337 64.3332 42.167C63.6665 38.3337 61.8332 34.8337 58.9999 32.167C58.3332 31.5003 57.6665 30.8337 56.9999 30.5003C56.8332 30.3337 56.4999 30.167 56.3332 30.0003C54.1665 28.5003 51.6665 27.5003 48.9999 27.0003C48.1665 26.667 47.3332 26.667 46.4999 26.667C46.3332 26.667 45.9999 26.667 45.8332 26.667H45.6665C40.6665 26.667 35.8332 28.667 32.1665 32.167C29.3332 35.0003 27.3332 38.667 26.8332 42.8337C26.4999 45.3337 26.4999 47.8337 27.1665 50.167C27.6665 52.167 28.4999 54.167 29.4999 55.8337C29.8332 56.5003 30.3332 57.167 30.9999 57.8337C31.3332 58.3337 31.8332 58.667 32.1665 59.167C34.4999 61.5003 37.3332 63.167 40.4999 64.0003C42.1665 64.5003 43.9999 64.667 45.6665 64.667C50.1665 64.667 54.4999 63.167 57.9999 60.167L59.1665 61.3337L55.3332 65.167L61.3332 71.167L62.8332 69.667L70.9999 77.8337C71.8332 78.667 72.9999 79.167 73.9999 79.167C75.1665 79.167 76.1665 78.667 76.9999 77.8337L77.9999 76.8337C78.8332 76.0003 79.3332 75.0003 79.3332 73.8337C79.1665 72.667 78.6665 71.667 77.8332 70.8337ZM53.4999 42.8337C52.9999 41.667 52.3332 40.667 51.4999 39.667C51.1665 39.3337 50.8332 39.0003 50.4999 38.8337C48.9999 37.667 47.1665 37.0003 45.1665 37.0003L44.8332 33.667H45.3332C47.8332 33.667 50.3332 34.667 52.3332 36.167C52.8332 36.5003 53.1665 36.8337 53.6665 37.3337C54.8332 38.5003 55.8332 40.0003 56.4999 41.5003L53.4999 42.8337Z" fill="#0CAADD"/>
</svg>
