<svg width="253" height="406" viewBox="0 0 253 406" fill="none" xmlns="http://www.w3.org/2000/svg">
<path d="M71.7328 176.508C78.3215 183.097 88.9997 182.87 95.3612 176.508C101.723 170.147 101.723 159.241 95.3612 152.88C88.7725 146.291 78.0943 146.518 71.7328 152.88C65.3713 159.241 65.1441 169.919 71.7328 176.508Z" fill="url(#paint0_linear_2515_901)"/>
<path d="M95.1334 183.55C87.4087 188.094 77.4121 187.639 70.1418 181.732L69.9146 181.959C63.3259 188.548 63.5531 199.226 69.9146 205.588C76.5033 212.176 87.1815 211.949 93.543 205.588C99.6773 199.908 100.132 190.365 95.1334 183.55Z" fill="url(#paint1_linear_2515_901)"/>
<path d="M66.0542 178.099C65.1454 176.736 64.2366 175.373 63.555 173.782C59.4655 174.237 55.1488 173.555 51.5136 171.738C40.6082 176.282 26.7493 182.87 9.70954 191.731C13.1175 195.139 16.2982 199.228 18.343 203.545C19.0246 205.135 18.343 206.726 16.9798 207.18C15.8438 207.862 14.4807 207.407 13.7991 206.726C13.5719 206.499 13.3447 206.271 13.1175 206.044C11.2999 201.955 7.66478 197.865 4.48403 194.684C2.21207 196.048 -0.514283 197.411 -3.01344 198.547C-3.24064 198.774 -3.46783 199.001 -3.69503 198.774C-0.0598871 202.409 3.80244 206.726 5.84721 211.497C6.52879 213.087 5.84721 214.678 4.48403 215.132C3.34805 215.814 1.98487 215.359 1.30328 214.678C1.07608 214.451 0.848889 214.223 0.621693 213.996C-1.42307 209.679 -5.2854 205.363 -8.69335 201.955C-35.2753 218.086 -71.3995 249.212 -85.0313 261.48C-88.212 264.206 -88.212 269.205 -85.2585 272.158L-59.1309 298.286C-56.1773 301.239 -51.6334 301.239 -48.6799 298.286C-44.3631 293.969 -37.3201 286.926 -26.869 277.384C-31.6402 271.25 -37.7745 265.57 -37.7745 265.57C-38.9104 264.434 -39.1376 262.843 -38.0016 261.707C-36.8657 260.571 -35.2753 260.344 -34.1393 261.48C-33.9121 261.707 -27.5506 267.16 -22.5523 273.522C-20.2804 271.25 -17.554 268.978 -14.8276 266.706C-19.5988 260.117 -26.1875 254.437 -26.4147 254.21C-27.5506 253.074 -27.7778 251.483 -26.6418 250.347C-25.5059 249.212 -23.9155 248.984 -22.7795 250.12C-22.3251 250.575 -15.7364 256.255 -10.7381 263.07C-0.514284 254.21 11.2999 243.759 25.6133 232.172C34.2467 224.902 48.5601 214.223 62.419 203.999C57.6479 196.048 59.0111 185.142 66.0542 178.099Z" fill="#673F23"/>
<path d="M175.563 219.905C164.203 187.188 135.804 175.601 115.583 171.739C123.308 169.467 132.168 167.877 141.711 167.877L146.027 155.835C148.527 158.334 150.344 162.878 151.707 168.331C155.342 168.785 158.75 169.467 162.385 170.376L166.475 158.562C169.429 161.515 171.473 167.65 172.837 174.465C176.926 176.283 180.788 177.873 184.424 180.145L189.195 166.741C192.83 170.376 195.329 179.691 196.465 187.643C215.322 201.502 224.637 217.178 224.637 217.178C224.637 217.178 236.451 169.013 185.105 144.475C160.795 132.888 138.303 137.66 121.49 145.839C137.848 120.847 145.346 86.0861 102.406 52.2338C102.406 52.2338 117.628 85.6317 103.314 129.935C99.225 107.67 87.4108 79.4974 54.4673 66.0928C-4.37648 42.2372 -35.2752 87.6764 -35.2752 87.6764C-35.2752 87.6764 -15.2819 83.5869 10.3913 88.8124C18.1159 83.8141 27.2038 78.8158 33.1109 79.2702L25.6134 93.1292C29.9301 94.7195 34.4741 96.5371 38.7908 98.5819C45.1523 94.9467 51.9682 91.766 56.5121 92.2204L49.9234 104.716C53.5585 106.988 56.5121 109.487 59.6928 112.214C64.9183 109.26 70.371 107.443 74.2334 107.67L67.6447 120.165C74.0062 127.436 79.0045 135.16 82.8668 142.658C89.0011 142.431 94.9082 144.703 99.4522 149.247C108.086 157.88 108.313 172.193 99.4522 181.054C106.268 189.688 105.814 201.956 98.089 210.135C111.039 263.981 85.1388 300.332 85.1388 300.332C146.482 268.525 128.988 220.132 111.266 191.959C117.173 195.595 122.853 199.911 128.533 205.591L140.12 200.366C140.12 204.001 137.848 208.545 135.122 213.089C137.394 215.815 139.211 218.996 141.029 222.177L152.616 216.951C152.616 221.041 149.435 226.948 145.8 232.4C147.618 236.49 148.981 240.579 149.89 244.669L162.613 238.762C162.613 244.215 157.614 251.939 152.843 258.528C156.251 281.929 151.707 299.65 151.707 299.65C151.707 299.65 194.42 274.204 175.563 219.905Z" fill="#218F3E"/>
<path d="M72.8688 139.93C66.2801 133.341 55.6019 133.568 49.2404 139.93C42.6517 146.519 42.8789 157.197 49.2404 163.558C52.6483 166.966 57.4194 168.557 61.7362 168.329C60.6002 161.286 62.4177 153.562 67.8705 148.109C70.1424 145.837 72.8688 144.019 75.5951 143.111C74.9135 142.429 74.0047 141.066 72.8688 139.93Z" fill="url(#paint2_linear_2515_901)"/>
<defs>
<linearGradient id="paint0_linear_2515_901" x1="95.3612" y1="152.88" x2="71.7328" y2="176.508" gradientUnits="userSpaceOnUse">
<stop offset="0.591346" stop-color="#1F781E"/>
<stop offset="1" stop-color="#DDD4CD"/>
</linearGradient>
<linearGradient id="paint1_linear_2515_901" x1="93.5471" y1="181.963" x2="69.9187" y2="205.592" gradientUnits="userSpaceOnUse">
<stop offset="0.591346" stop-color="#1F781E"/>
<stop offset="1" stop-color="#DDD4CD"/>
</linearGradient>
<linearGradient id="paint2_linear_2515_901" x1="71.2784" y1="138.34" x2="47.65" y2="161.968" gradientUnits="userSpaceOnUse">
<stop offset="0.591346" stop-color="#1F781E"/>
<stop offset="1" stop-color="#DDD4CD"/>
</linearGradient>
</defs>
</svg>
