<svg width="258" height="406" viewBox="0 0 258 406" fill="none" xmlns="http://www.w3.org/2000/svg">
<path d="M180.542 176.508C173.954 183.097 163.276 182.87 156.914 176.508C150.553 170.147 150.553 159.241 156.914 152.88C163.503 146.291 174.181 146.518 180.542 152.88C186.904 159.241 187.131 169.919 180.542 176.508Z" fill="url(#paint0_linear_2515_907)"/>
<path d="M157.142 183.55C164.867 188.094 174.863 187.639 182.133 181.732L182.361 181.959C188.949 188.548 188.722 199.226 182.361 205.588C175.772 212.176 165.094 211.949 158.732 205.588C152.598 199.908 152.144 190.365 157.142 183.55Z" fill="url(#paint1_linear_2515_907)"/>
<path d="M186.221 178.099C187.13 176.736 188.039 175.373 188.72 173.782C192.81 174.237 197.126 173.555 200.762 171.738C211.667 176.282 225.526 182.87 242.566 191.731C239.158 195.139 235.977 199.228 233.932 203.545C233.251 205.135 233.932 206.726 235.295 207.18C236.431 207.862 237.795 207.407 238.476 206.726C238.703 206.499 238.931 206.271 239.158 206.044C240.975 201.955 244.61 197.865 247.791 194.684C250.063 196.048 252.79 197.411 255.289 198.547C255.516 198.774 255.743 199.001 255.97 198.774C252.335 202.409 248.473 206.726 246.428 211.497C245.746 213.087 246.428 214.678 247.791 215.132C248.927 215.814 250.29 215.359 250.972 214.678C251.199 214.451 251.426 214.223 251.654 213.996C253.698 209.679 257.561 205.363 260.969 201.955C287.551 218.086 323.675 249.212 337.306 261.48C340.487 264.206 340.487 269.205 337.534 272.158L311.406 298.286C308.453 301.239 303.909 301.239 300.955 298.286C296.638 293.969 289.595 286.926 279.144 277.384C283.915 271.25 290.05 265.57 290.05 265.57C291.186 264.434 291.413 262.843 290.277 261.707C289.141 260.571 287.551 260.344 286.415 261.48C286.187 261.707 279.826 267.16 274.828 273.522C272.556 271.25 269.829 268.978 267.103 266.706C271.874 260.117 278.463 254.437 278.69 254.21C279.826 253.074 280.053 251.483 278.917 250.347C277.781 249.212 276.191 248.984 275.055 250.12C274.6 250.575 268.012 256.255 263.013 263.07C252.79 254.21 240.975 243.759 226.662 232.172C218.029 224.902 203.715 214.223 189.856 203.999C194.627 196.048 193.264 185.142 186.221 178.099Z" fill="#673F23"/>
<path d="M76.7124 219.905C88.0722 187.188 116.472 175.601 136.692 171.739C128.967 169.467 120.107 167.877 110.565 167.877L106.248 155.835C103.749 158.334 101.931 162.878 100.568 168.331C96.9328 168.785 93.5249 169.467 89.8897 170.376L85.8002 158.562C82.8467 161.515 80.8019 167.65 79.4387 174.465C75.3492 176.283 71.4869 177.873 67.8517 180.145L63.0806 166.741C59.4454 170.376 56.9463 179.691 55.8103 187.643C36.953 201.502 27.638 217.178 27.638 217.178C27.638 217.178 15.8238 169.013 67.1701 144.475C91.4801 132.888 113.973 137.66 130.785 145.839C114.427 120.847 106.929 86.0861 149.87 52.2338C149.87 52.2338 134.647 85.6317 148.961 129.935C153.05 107.67 164.864 79.4974 197.808 66.0928C256.652 42.2372 287.55 87.6764 287.55 87.6764C287.55 87.6764 267.557 83.5869 241.884 88.8124C234.159 83.8141 225.071 78.8158 219.164 79.2702L226.662 93.1292C222.345 94.7195 217.801 96.5371 213.484 98.5819C207.123 94.9467 200.307 91.766 195.763 92.2204L202.352 104.716C198.717 106.988 195.763 109.487 192.582 112.214C187.357 109.26 181.904 107.443 178.042 107.67L184.631 120.165C178.269 127.436 173.271 135.16 169.408 142.658C163.274 142.431 157.367 144.703 152.823 149.247C144.19 157.88 143.962 172.193 152.823 181.054C146.007 189.688 146.462 201.956 154.186 210.135C141.236 263.981 167.136 300.332 167.136 300.332C105.793 268.525 123.288 220.132 141.009 191.959C135.102 195.595 129.422 199.911 123.742 205.591L112.155 200.366C112.155 204.001 114.427 208.545 117.153 213.089C114.881 215.815 113.064 218.996 111.246 222.177L99.6592 216.951C99.6592 221.041 102.84 226.948 106.475 232.4C104.657 236.49 103.294 240.579 102.386 244.669L89.6625 238.762C89.6625 244.215 94.6609 251.939 99.432 258.528C96.024 281.929 100.568 299.65 100.568 299.65C100.568 299.65 57.8551 274.204 76.7124 219.905Z" fill="#218F3E"/>
<path d="M179.406 139.93C185.995 133.341 196.673 133.568 203.035 139.93C209.624 146.519 209.396 157.197 203.035 163.558C199.627 166.966 194.856 168.557 190.539 168.329C191.675 161.286 189.857 153.562 184.405 148.109C182.133 145.837 179.406 144.019 176.68 143.111C177.362 142.429 178.27 141.066 179.406 139.93Z" fill="url(#paint2_linear_2515_907)"/>
<defs>
<linearGradient id="paint0_linear_2515_907" x1="156.914" y1="152.88" x2="180.542" y2="176.508" gradientUnits="userSpaceOnUse">
<stop offset="0.591346" stop-color="#1F781E"/>
<stop offset="1" stop-color="#DDD4CD"/>
</linearGradient>
<linearGradient id="paint1_linear_2515_907" x1="158.728" y1="181.963" x2="182.357" y2="205.592" gradientUnits="userSpaceOnUse">
<stop offset="0.591346" stop-color="#1F781E"/>
<stop offset="1" stop-color="#DDD4CD"/>
</linearGradient>
<linearGradient id="paint2_linear_2515_907" x1="180.997" y1="138.34" x2="204.625" y2="161.968" gradientUnits="userSpaceOnUse">
<stop offset="0.591346" stop-color="#1F781E"/>
<stop offset="1" stop-color="#DDD4CD"/>
</linearGradient>
</defs>
</svg>
