<svg width="1440" height="76" viewBox="0 0 1440 76" fill="none" xmlns="http://www.w3.org/2000/svg">
<path d="M365.462 34.4437C375.493 34.3296 386.856 36.0657 398.187 41.6301C419.083 51.8918 435.976 50.8482 449.191 47.127C462.406 43.4058 472.282 37.7889 479.015 37.7889H487.778V63.6178H479.015C468.221 63.6178 458.643 69.9306 446.795 73.2669C434.947 76.6031 421.16 77.7113 402.097 68.3499C364.955 50.1098 328.09 68.3499 328.09 68.3499C311.472 76.5106 297.56 75.4887 285.01 72.3843C272.46 69.28 261.781 63.6178 251.181 63.6178H242.418V37.7889H251.181C258.108 37.7889 269.205 42.9209 282.879 46.3033C296.554 49.6857 313.316 50.8097 332.009 41.6301C332.009 41.6301 346.312 34.6616 365.462 34.4437Z" fill="#0CAADD"/>
<path d="M365.453 0.00543166C368.189 -0.0255529 371.019 0.0739043 373.925 0.358446C381.675 1.1172 389.946 3.14498 398.187 7.19178C419.083 17.4535 435.976 16.41 449.191 12.6887C462.406 8.96752 472.282 3.35066 479.015 3.35066H487.778V29.1795H479.015C468.221 29.1795 458.643 35.4923 446.795 38.8286C434.947 42.1648 421.16 43.2982 402.097 33.9368C392.812 29.3768 383.547 27.076 374.867 26.2209C348.824 23.6559 328.09 33.9368 328.09 33.9368C311.472 42.0976 297.56 41.0504 285.01 37.9461C272.46 34.8417 261.781 29.1795 251.181 29.1795H242.418V3.35066H251.181C258.108 3.35066 269.205 8.48261 282.879 11.865C296.554 15.2475 313.316 16.3715 332.009 7.19179C332.009 7.19179 346.304 0.223481 365.453 0.00543166Z" fill="#0CAADD"/>
<path d="M123.044 34.4437C133.075 34.3296 144.438 36.0657 155.769 41.6301C176.665 51.8918 193.558 50.8482 206.773 47.127C219.988 43.4058 229.864 37.7889 236.597 37.7889H245.36V63.6178H236.597C225.803 63.6178 216.225 69.9306 204.377 73.2669C192.529 76.6031 178.742 77.7113 159.679 68.3499C122.537 50.1098 85.6719 68.3499 85.6719 68.3499C69.0539 76.5106 55.1424 75.4887 42.592 72.3843C30.0416 69.28 19.3627 63.6178 8.76316 63.6178H0V37.7889H8.76316C15.6899 37.7889 26.7866 42.9209 40.4611 46.3033C54.1356 49.6857 70.8985 50.8097 89.5913 41.6301C89.5913 41.6301 103.894 34.6616 123.044 34.4437Z" fill="#0CAADD"/>
<path d="M123.035 0.00543166C125.771 -0.0255529 128.601 0.0739043 131.507 0.358446C139.257 1.1172 147.528 3.14498 155.769 7.19178C176.665 17.4535 193.558 16.41 206.773 12.6887C219.988 8.96752 229.864 3.35066 236.597 3.35066H245.36V29.1795H236.597C225.804 29.1795 216.225 35.4923 204.377 38.8286C192.529 42.1648 178.742 43.2982 159.68 33.9368C150.394 29.3768 141.13 27.076 132.449 26.2209C106.406 23.6559 85.6719 33.9368 85.6719 33.9368C69.054 42.0976 55.1425 41.0504 42.5921 37.9461C30.0417 34.8417 19.3628 29.1795 8.76325 29.1795H9.15527e-05V3.35066H8.76325C15.69 3.35066 26.7867 8.48261 40.4612 11.865C54.1357 15.2475 70.8986 16.3715 89.5914 7.19179C89.5914 7.19179 103.886 0.223481 123.035 0.00543166Z" fill="#0CAADD"/>
<path d="M843.165 34.4437C853.196 34.3296 864.559 36.0657 875.89 41.6301C896.786 51.8918 913.679 50.8482 926.894 47.127C940.109 43.4058 949.985 37.7889 956.718 37.7889H965.481V63.6178H956.718C945.924 63.6178 936.346 69.9306 924.498 73.2669C912.65 76.6031 898.863 77.7113 879.8 68.3499C842.658 50.1098 805.793 68.3499 805.793 68.3499C789.175 76.5106 775.263 75.4887 762.713 72.3843C750.163 69.28 739.484 63.6178 728.884 63.6178H720.121V37.7889H728.884C735.811 37.7889 746.908 42.9209 760.582 46.3033C774.257 49.6857 791.019 50.8097 809.712 41.6301C809.712 41.6301 824.015 34.6616 843.165 34.4437Z" fill="#0CAADD"/>
<path d="M843.156 0.00543166C845.892 -0.0255529 848.722 0.0739043 851.628 0.358446C859.378 1.1172 867.649 3.14498 875.89 7.19178C896.786 17.4535 913.679 16.41 926.894 12.6887C940.109 8.96752 949.985 3.35066 956.718 3.35066H965.481V29.1795H956.718C945.925 29.1795 936.346 35.4923 924.498 38.8286C912.65 42.1648 898.863 43.2982 879.801 33.9368C870.515 29.3768 861.251 27.076 852.57 26.2209C826.527 23.6559 805.793 33.9368 805.793 33.9368C789.175 42.0976 775.264 41.0504 762.713 37.9461C750.163 34.8417 739.484 29.1795 728.884 29.1795H720.121V3.35066H728.884C735.811 3.35066 746.908 8.48261 760.582 11.865C774.257 15.2475 791.02 16.3715 809.712 7.19179C809.712 7.19179 824.007 0.223481 843.156 0.00543166Z" fill="#0CAADD"/>
<path d="M604.312 34.4437C614.343 34.3296 625.706 36.0657 637.037 41.6301C657.933 51.8918 674.826 50.8482 688.041 47.127C701.256 43.4058 711.132 37.7889 717.865 37.7889H726.628V63.6178H717.865C707.072 63.6178 697.493 69.9306 685.645 73.2669C673.797 76.6031 660.011 77.7113 640.948 68.3499C603.805 50.1098 566.94 68.3499 566.94 68.3499C550.322 76.5106 536.411 75.4887 523.861 72.3843C511.31 69.28 500.631 63.6178 490.032 63.6178H481.269V37.7889H490.032C496.958 37.7889 508.055 42.9209 521.73 46.3033C535.404 49.6857 552.167 50.8097 570.86 41.6301C570.86 41.6301 585.162 34.6616 604.312 34.4437Z" fill="#0CAADD"/>
<path d="M604.304 0.00640823C607.039 -0.0245763 609.869 0.0748809 612.776 0.359423C620.526 1.11817 628.796 3.14596 637.037 7.19276C657.933 17.4545 674.826 16.4109 688.041 12.6897C701.256 8.9685 711.132 3.35164 717.865 3.35164H726.628V29.1805H717.865C707.072 29.1805 697.493 35.4933 685.645 38.8296C673.797 42.1658 660.011 43.2992 640.948 33.9378C631.662 29.3778 622.398 27.0769 613.717 26.2219C587.675 23.6569 566.94 33.9378 566.94 33.9378C550.322 42.0985 536.411 41.0514 523.86 37.947C511.31 34.8427 500.631 29.1805 490.032 29.1805H481.268V3.35164H490.032C496.958 3.35164 508.055 8.48358 521.73 11.866C535.404 15.2484 552.167 16.3724 570.86 7.19277C570.86 7.19277 585.155 0.224458 604.304 0.00640823Z" fill="#0CAADD"/>
<path d="M1082.02 34.4437C1092.05 34.3296 1103.41 36.0657 1114.74 41.6301C1135.64 51.8918 1152.53 50.8482 1165.75 47.127C1178.96 43.4058 1188.84 37.7889 1195.57 37.7889H1204.33V63.6178H1195.57C1184.78 63.6178 1175.2 69.9306 1163.35 73.2669C1151.5 76.6031 1137.71 77.7113 1118.65 68.3499C1081.51 50.1098 1044.64 68.3499 1044.64 68.3499C1028.03 76.5106 1014.12 75.4887 1001.56 72.3843C989.014 69.28 978.335 63.6178 967.736 63.6178H958.973V37.7889H967.736C974.663 37.7889 985.759 42.9209 999.434 46.3033C1013.11 49.6857 1029.87 50.8097 1048.56 41.6301C1048.56 41.6301 1062.87 34.6616 1082.02 34.4437Z" fill="#0CAADD"/>
<path d="M1082.01 0.00640823C1084.74 -0.0245763 1087.57 0.0748809 1090.48 0.359423C1098.23 1.11817 1106.5 3.14596 1114.74 7.19276C1135.64 17.4545 1152.53 16.4109 1165.75 12.6897C1178.96 8.9685 1188.84 3.35164 1195.57 3.35164H1204.33V29.1805H1195.57C1184.78 29.1805 1175.2 35.4933 1163.35 38.8296C1151.5 42.1658 1137.72 43.2992 1118.65 33.9378C1109.37 29.3778 1100.1 27.0769 1091.42 26.2219C1065.38 23.6569 1044.65 33.9378 1044.65 33.9378C1028.03 42.0985 1014.12 41.0514 1001.57 37.947C989.015 34.8427 978.336 29.1805 967.737 29.1805H958.974V3.35164H967.737C974.664 3.35164 985.76 8.48358 999.435 11.866C1013.11 15.2484 1029.87 16.3724 1048.56 7.19277C1048.56 7.19277 1062.86 0.224458 1082.01 0.00640823Z" fill="#0CAADD"/>
<path d="M1317.68 34.4437C1327.72 34.3296 1339.08 36.0657 1350.41 41.6301C1371.31 51.8918 1388.2 50.8482 1401.41 47.127C1414.63 43.4058 1424.5 37.7889 1431.24 37.7889H1440V63.6178H1431.24C1420.44 63.6178 1410.87 69.9306 1399.02 73.2669C1387.17 76.6031 1373.38 77.7113 1354.32 68.3499C1317.18 50.1098 1280.31 68.3499 1280.31 68.3499C1263.69 76.5106 1249.78 75.4887 1237.23 72.3843C1224.68 69.28 1214 63.6178 1203.4 63.6178H1194.64V37.7889H1203.4C1210.33 37.7889 1221.43 42.9209 1235.1 46.3033C1248.78 49.6857 1265.54 50.8097 1284.23 41.6301C1284.23 41.6301 1298.53 34.6616 1317.68 34.4437Z" fill="#0CAADD"/>
<path d="M1317.68 0.00543166C1320.41 -0.0255529 1323.24 0.0739043 1326.15 0.358446C1333.9 1.1172 1342.17 3.14498 1350.41 7.19178C1371.31 17.4535 1388.2 16.41 1401.41 12.6887C1414.63 8.96752 1424.5 3.35066 1431.24 3.35066H1440V29.1795H1431.24C1420.44 29.1795 1410.87 35.4923 1399.02 38.8286C1387.17 42.1648 1373.38 43.2982 1354.32 33.9368C1345.03 29.3768 1335.77 27.076 1327.09 26.2209C1301.05 23.6559 1280.31 33.9368 1280.31 33.9368C1263.69 42.0976 1249.78 41.0504 1237.23 37.9461C1224.68 34.8417 1214 29.1795 1203.4 29.1795H1194.64V3.35066H1203.4C1210.33 3.35066 1221.43 8.48261 1235.1 11.865C1248.78 15.2475 1265.54 16.3715 1284.23 7.19179C1284.23 7.19179 1298.53 0.223481 1317.68 0.00543166Z" fill="#0CAADD"/>
</svg>
