<svg width="60" height="60" viewBox="0 0 60 60" fill="none" xmlns="http://www.w3.org/2000/svg">
<path d="M11.207 0H48.462C54.626 0 59.669 5.043 59.669 11.207V48.462C59.669 54.626 54.626 59.669 48.462 59.669H11.207C5.043 59.669 0 54.626 0 48.462V11.206C0 5.043 5.043 0 11.207 0Z" fill="#1F1F1F"/>
<path d="M12.9971 23.2414C13.0411 21.0324 13.3821 18.8664 14.6381 16.9634C15.8001 15.2014 17.3901 14.0134 19.4011 13.3374C21.3701 12.6744 23.3961 12.6734 25.4261 12.6704C29.3251 12.6634 33.2251 12.6704 37.1241 12.7074C39.3161 12.7284 41.4121 13.1914 43.2651 14.4244C45.3531 15.8154 46.6261 17.7954 47.0521 20.2484C47.3031 21.6974 47.4241 23.1854 47.4311 24.6554C47.4501 28.8514 47.4041 33.0464 47.3381 37.2424C47.3081 39.0874 46.8971 40.8614 45.9251 42.4594C44.7581 44.3764 43.0971 45.6484 40.9481 46.3414C38.9951 46.9714 36.9931 46.9924 34.9861 46.9964C31.1591 47.0054 27.3321 46.9944 23.5051 46.9694C21.4971 46.9564 19.5461 46.6164 17.7741 45.6194C15.7051 44.4554 14.3261 42.7224 13.6161 40.4424C13.1371 38.9054 13.0461 37.3274 12.9741 35.7414C12.9581 35.4604 12.9331 26.4574 12.9971 23.2414ZM16.3401 38.2204C16.5141 39.8694 17.2091 41.3394 18.6001 42.4114C19.9581 43.4594 21.5461 43.7774 23.1651 43.8164C28.3171 43.9384 33.4721 44.1284 38.6191 43.6544C39.7781 43.5474 40.8341 43.1434 41.7671 42.4484C43.5491 41.1224 44.1631 39.2004 44.2141 37.1224C44.3101 33.2614 44.2911 29.3974 44.2771 25.5354C44.2721 24.1534 44.2051 22.7644 44.0581 21.3904C43.8971 19.8874 43.2821 18.5664 42.1311 17.5324C40.8561 16.3874 39.3061 15.9474 37.6581 15.9144C33.4651 15.8304 29.2701 15.7704 25.0761 15.7984C23.5391 15.8094 21.9811 15.8214 20.4711 16.3044C17.9141 17.1214 16.5231 19.0634 16.3361 21.4684C16.1011 24.4844 16.1341 36.2774 16.3401 38.2204Z" fill="#FEDB2F"/>
<path d="M30.2379 21.0085C35.0299 20.9715 39.1069 24.9135 39.0879 29.8935C39.0689 34.8465 34.932 38.7315 30.158 38.6925C25.278 38.6535 21.262 34.6665 21.318 29.7605C21.374 24.8495 25.3469 20.9495 30.2379 21.0085ZM35.9279 29.9115C36.0249 26.8845 33.4159 24.1515 30.2199 24.1495C27.0769 24.1475 24.4909 26.7275 24.4919 29.7815C24.4919 33.0175 27.027 35.5565 30.262 35.5515C33.35 35.5455 35.9269 32.9815 35.9279 29.9115Z" fill="#FEDB2F"/>
<path d="M39.4019 22.7062C38.2519 22.8122 37.3359 21.7762 37.3049 20.6822C37.2739 19.5602 38.2869 18.5692 39.4199 18.5852C40.5829 18.6022 41.5669 19.5692 41.5219 20.7012C41.4799 21.7452 40.6339 22.8092 39.4019 22.7062Z" fill="#FEDB2F"/>
</svg>
